<svg enable-background="new 0 0 3840 1520" height="1520" viewBox="0 0 3840 1520" width="3840" xmlns="http://www.w3.org/2000/svg" xmlns:xlink="http://www.w3.org/1999/xlink"><image height="1520" overflow="visible" transform="translate(-4554.5 3126.3955)" width="3840" xlink:href="8175AF77.jpg"/><g fill="none"><circle cx="-5099.063" cy="3545.379" r="106.543" stroke="#2f6df6" stroke-miterlimit="10"/><circle cx="-5024.586" cy="3490.759" r="13.896" stroke="#2f6df6" stroke-miterlimit="10"/><circle cx="-5900.245" cy="3730.269" r="78.349" stroke="#2f6df6" stroke-miterlimit="10"/><circle cx="-5900.245" cy="3730.269" r="106.543" stroke="#2f6df6" stroke-miterlimit="10"/><circle cx="-5642.655" cy="3689.545" r="13.896" stroke="#2f6df6" stroke-miterlimit="10"/><circle cx="-5975.462" cy="3783.913" r="13.896" stroke="#2f6df6" stroke-miterlimit="10"/><circle cx="-2652.96" cy="4005.407" r="92.833" stroke="#2f6df6" stroke-miterlimit="10" stroke-width="3"/></g><path d="m-2590.017 3959.419c.006.008.01.016.015.023.005.006.011.012.016.018 25.254 34.889 17.456 83.643-17.425 108.908-34.878 25.266-83.634 17.477-108.91-17.393-.006-.006-.01-.014-.015-.021-.006-.006-.011-.014-.017-.02-4.622-6.355-13.517-7.771-19.885-3.16-6.373 4.617-7.798 13.527-3.182 19.9 34.506 47.635 101.095 58.277 148.728 23.773 47.632-34.504 58.276-101.092 23.771-148.729-4.617-6.371-13.526-7.797-19.901-3.18-6.365 4.615-7.792 13.51-3.195 19.881z" fill="#2f6df6"/><g fill="none"><path d="m-2759.258 3899.108h212.597v212.598h-212.597z"/><g stroke="#2f6df6" stroke-miterlimit="10"><path d="m-6312.756 3661.559c0 102.363-82.986 185.348-185.351 185.348-102.367 0-185.352-82.984-185.352-185.348 0-102.36 82.984-185.348 185.352-185.348 102.365 0 185.351 82.987 185.351 185.348z"/><path d="m-6327.123 3661.798c0 94.43-76.554 170.982-170.982 170.982-94.433 0-170.985-76.553-170.985-170.982 0-94.424 76.553-170.979 170.985-170.979 94.428-.001 170.982 76.555 170.982 170.979z"/><path d="m-6298.316 3661.747c0 110.341-89.45 199.79-199.789 199.79-110.343 0-199.793-89.449-199.793-199.79 0-110.333 89.45-199.786 199.793-199.786 110.338 0 199.789 89.453 199.789 199.786z"/><circle cx="-6498.107" cy="3476.211" r="14.25"/><circle cx="-6498.107" cy="3846.906" r="14.25"/><path d="m-6697.898 3461.961h399.582v399.582h-399.582z"/><circle cx="-2652.75" cy="4005.396" r="14.25"/><path d="m-2652.748 6032.55c-272.856 0-538.529-53.849-789.638-160.048-241.666-102.219-458.301-248.143-643.892-433.721-185.62-185.635-331.552-402.266-433.747-643.879-106.218-251.13-160.076-516.823-160.076-789.7 0-272.884 53.859-538.583 160.082-789.715 102.199-241.626 248.125-458.246 433.724-643.842 185.585-185.588 402.207-331.512 643.847-433.717 251.121-106.217 516.814-160.074 789.7-160.074 272.878 0 538.573 53.857 789.705 160.078 241.639 102.209 458.259 248.132 643.844 433.715 185.596 185.6 331.52 402.219 433.721 643.842 106.222 251.13 160.08 516.828 160.08 789.713 0 272.884-53.86 538.583-160.084 789.72-102.198 241.624-248.126 458.247-433.729 643.85-185.599 185.598-402.229 331.521-643.878 433.72-251.09 106.205-516.771 160.058-789.659 160.058z"/><path d="m-2652.748 6018.424c-537.69 0-1043.196-209.388-1423.4-589.592-380.199-380.19-589.585-885.693-589.585-1423.391 0-537.688 209.391-1043.195 589.601-1423.401 380.196-380.195 885.697-589.578 1423.384-589.578 537.685 0 1043.188 209.386 1423.389 589.586 380.205 380.204 589.594 885.709 589.594 1423.394 0 537.687-209.389 1043.191-589.595 1423.396-380.19 380.199-885.692 589.586-1423.388 589.586z"/><path d="m-2652.748 6047.181c-274.799 0-542.361-54.229-795.254-161.181-243.393-102.943-461.578-249.915-648.499-436.834-186.914-186.908-333.879-405.065-436.815-648.411-106.982-252.949-161.225-520.547-161.225-795.364 0-274.828 54.239-542.413 161.211-795.322 102.94-243.358 249.905-461.522 436.812-648.432 186.922-186.923 405.089-333.89 648.439-436.818 252.909-106.974 520.496-161.214 795.332-161.214 274.833 0 542.423 54.241 795.334 161.217 243.34 102.924 461.499 249.887 648.418 436.803 186.914 186.907 333.88 405.068 436.813 648.423 106.979 252.914 161.223 520.507 161.223 795.344 0 274.827-54.239 542.412-161.209 795.321-102.931 243.355-249.902 461.528-436.834 648.457-186.928 186.922-405.096 333.886-648.445 436.811-252.886 106.963-520.465 161.2-795.301 161.2z"/><path d="m-4694.541 1963.604h4083.582v4083.582h-4083.582z"/><path d="m-2652.748 5947.55c-261.418 0-515.952-51.589-756.529-153.335-231.534-97.933-439.088-237.74-616.899-415.54-177.84-177.854-317.654-385.402-415.563-616.885-101.763-240.597-153.361-495.149-153.361-756.588 0-261.446 51.6-516.004 153.367-756.602 97.914-231.495 237.723-439.034 415.542-616.851 177.808-177.81 385.348-317.616 616.855-415.535 240.587-101.763 495.14-153.36 756.588-153.36 261.44 0 515.995 51.599 756.593 153.363 231.506 97.923 439.045 237.729 616.853 415.534 177.817 177.821 317.624 385.358 415.539 616.851 101.766 240.596 153.365 495.152 153.365 756.6s-51.602 516.007-153.37 756.607c-97.914 231.496-237.726 439.037-415.549 616.858-177.818 177.818-385.367 317.625-616.882 415.537-240.557 101.752-495.099 153.346-756.549 153.346z"/><path d="m-2652.748 5933.424c-514.985 0-999.146-200.546-1363.295-564.696-364.146-364.136-564.69-848.294-564.69-1363.286 0-514.984 200.549-999.146 564.705-1363.297 364.142-364.142 848.298-564.683 1363.28-564.683 514.98 0 999.138 200.544 1363.285 564.69 364.15 364.149 564.697 848.309 564.697 1363.289 0 514.982-200.547 999.142-564.698 1363.291-364.136 364.147-848.294 564.692-1363.284 564.692z"/><path d="m-2652.748 5962.181c-263.362 0-519.785-51.97-762.146-154.467-233.259-98.658-442.362-239.513-621.503-418.652-179.136-179.13-319.985-388.207-418.635-621.421-102.525-242.413-154.509-498.869-154.509-762.25 0-263.39 51.98-519.834 154.497-762.21 98.654-233.227 239.501-442.309 418.63-621.44 179.143-179.143 388.228-319.992 621.447-418.637 242.375-102.518 498.822-154.499 762.219-154.499s519.845 51.982 762.221 154.502c233.207 98.638 442.286 239.483 621.427 418.622 179.137 179.131 319.985 388.21 418.633 621.431 102.524 242.383 154.508 498.834 154.508 762.231 0 263.39-51.979 519.834-154.495 762.21-98.645 233.225-239.499 442.314-418.651 621.464-179.149 179.144-388.236 319.99-621.453 418.63-242.354 102.509-498.792 154.486-762.19 154.486z"/><path d="m-4609.541 2048.604h3913.582v3913.582h-3913.582z"/><path d="m-2652.748 5845.55c-247.695 0-488.86-48.879-716.797-145.279-219.374-92.788-416.03-225.255-584.508-393.723-168.502-168.516-300.976-365.165-393.744-584.492-96.417-227.956-145.303-469.14-145.303-716.854 0-247.722 48.889-488.91 145.31-716.867 92.771-219.337 225.24-415.979 393.724-584.46 168.474-168.476 365.116-300.941 584.465-393.718 227.947-96.416 469.131-145.303 716.854-145.303 247.716 0 488.901 48.888 716.858 145.306 219.349 92.78 415.989 225.246 584.463 393.718 168.482 168.485 300.948 365.126 393.721 584.46 96.419 227.953 145.308 469.142 145.308 716.864s-48.89 488.911-145.312 716.871c-92.772 219.34-225.243 415.983-393.731 584.468-168.483 168.484-365.134 300.95-584.487 393.719-227.921 96.406-469.094 145.29-716.821 145.29z"/><path d="m-2652.748 5831.424c-487.741 0-946.287-189.937-1291.17-534.821-344.88-344.871-534.815-803.414-534.815-1291.161 0-487.738 189.939-946.285 534.83-1291.172 344.876-344.876 803.418-534.808 1291.156-534.808 487.735 0 946.278 189.935 1291.16 534.815 344.885 344.884 534.822 803.429 534.822 1291.164 0 487.737-189.938 946.283-534.822 1291.166-344.873 344.881-803.416 534.817-1291.161 534.817z"/><path d="m-2652.748 5860.181c-249.639 0-492.695-49.26-722.416-146.411-221.097-93.514-419.301-227.026-589.108-396.833-169.801-169.796-303.311-367.976-396.818-589.033-97.178-229.769-146.451-472.855-146.451-722.513 0-249.666 49.27-492.741 146.439-722.476 93.512-221.068 227.019-419.253 396.814-589.051 169.807-169.808 367.994-303.316 589.056-396.818 229.734-97.171 472.813-146.441 722.484-146.441 249.672 0 492.751 49.271 722.486 146.444 221.049 93.495 419.23 227 589.038 396.805 169.803 169.798 303.311 367.979 396.815 589.042 97.177 229.74 146.449 472.823 146.449 722.495 0 249.664-49.269 492.74-146.438 722.477-93.502 221.067-227.016 419.259-396.832 589.071-169.813 169.808-368.002 303.315-589.063 396.813-229.712 97.163-472.781 146.429-722.455 146.429z"/><path d="m-4507.541 2150.604h3709.582v3709.582h-3709.582z"/><path d="m-2652.748 5755.55c-235.585 0-464.956-46.487-681.74-138.171-208.646-88.25-395.686-214.24-555.928-374.473-160.265-160.277-286.26-347.312-374.491-555.91-91.698-216.801-138.193-446.189-138.193-681.794 0-235.61 46.497-465.004 138.2-681.807 88.234-208.609 214.226-395.636 374.473-555.881 160.239-160.24 347.266-286.229 555.886-374.467 216.793-91.698 446.182-138.193 681.794-138.193 235.604 0 464.995 46.496 681.799 138.196 208.619 88.242 395.646 214.231 555.884 374.468 160.243 160.246 286.233 347.271 374.47 555.88 91.701 216.8 138.197 446.191 138.197 681.804 0 235.611-46.498 465.006-138.201 681.811-88.235 208.612-214.229 395.64-374.48 555.888-160.245 160.246-347.279 286.236-555.905 374.468-216.771 91.69-446.151 138.181-681.765 138.181z"/><path d="m-2652.748 5741.424c-463.702 0-899.647-180.575-1227.53-508.461-327.882-327.873-508.455-763.815-508.455-1227.521 0-463.698 180.578-899.645 508.469-1227.532 327.878-327.877 763.818-508.447 1227.516-508.447 463.695 0 899.638 180.572 1227.521 508.455 327.887 327.886 508.462 763.828 508.462 1227.524 0 463.698-180.575 899.642-508.462 1227.526-327.874 327.882-763.816 508.456-1227.521 508.456z"/><path d="m-2652.748 5770.181c-237.529 0-468.791-46.868-687.36-139.303-210.366-88.975-398.953-216.011-560.525-377.581-161.566-161.562-288.599-350.127-377.568-560.456-92.46-218.612-139.34-449.903-139.34-687.45 0-237.556 46.877-468.836 139.33-687.415 88.974-210.342 216.004-398.911 377.563-560.472 161.571-161.571 350.142-288.604 560.475-377.567 218.581-92.454 449.864-139.332 687.425-139.332 237.56 0 468.844 46.879 687.426 139.334 210.324 88.96 398.89 215.988 560.46 377.556 161.566 161.562 288.598 350.128 377.564 560.462 92.458 218.585 139.339 449.872 139.339 687.435 0 237.554-46.877 468.834-139.329 687.417-88.964 210.338-216 398.914-377.58 560.49-161.577 161.572-350.15 288.603-560.482 377.563-218.561 92.445-449.836 139.319-687.398 139.319z"/><path d="m-4417.541 2240.604h3529.582v3529.582h-3529.582z"/><path d="m-2652.748 5664.55c-223.341 0-440.786-44.069-646.294-130.983-197.797-83.661-375.114-203.103-527.029-355.009-151.936-151.947-271.382-329.258-355.025-527.011-86.928-205.523-131.005-422.984-131.005-646.345 0-223.366 44.079-440.832 131.011-646.356 83.646-197.764 203.089-375.066 355.008-526.983 151.911-151.912 329.215-271.353 526.989-355.003 205.516-86.929 422.978-131.005 646.345-131.005 223.36 0 440.823 44.077 646.35 131.008 197.771 83.653 375.075 203.094 526.986 355.003 151.916 151.919 271.356 329.221 355.005 526.983 86.931 205.521 131.009 422.986 131.009 646.354 0 223.366-44.079 440.833-131.013 646.36-83.647 197.767-203.093 375.072-355.016 526.99-151.915 151.917-329.226 271.358-527.005 355.003-205.494 86.921-422.947 130.994-646.316 130.994z"/><path d="m-2652.748 5650.424c-439.395 0-852.488-171.109-1163.184-481.808-310.694-310.686-481.802-723.776-481.802-1163.175 0-439.391 171.112-852.484 481.816-1163.185 310.69-310.689 723.778-481.795 1163.169-481.795 439.388 0 852.479 171.107 1163.174 481.802 310.699 310.698 481.809 723.789 481.809 1163.178 0 439.391-171.109 852.482-481.809 1163.179-310.685 310.695-723.775 481.804-1163.173 481.804z"/><path d="m-2652.748 5679.181c-225.286 0-444.622-44.45-651.915-132.116-199.515-84.385-378.378-204.871-531.625-358.114-153.238-153.234-273.721-332.077-358.104-531.562-87.689-207.332-132.15-426.694-132.15-651.998 0-225.311 44.458-444.663 132.141-651.966 84.385-199.494 204.866-378.341 358.099-531.574 153.242-153.243 332.09-273.726 531.577-358.103 207.304-87.684 426.66-132.144 651.976-132.144 225.314 0 444.671 44.46 651.976 132.146 199.476 84.371 378.32 204.85 531.563 358.091 153.241 153.236 273.723 332.08 358.101 531.565 87.688 207.307 132.149 426.666 132.149 651.984 0 225.311-44.459 444.664-132.141 651.968-84.376 199.491-204.863 378.345-358.114 531.592-153.249 153.245-332.1 273.727-531.585 358.099-207.282 87.676-426.631 132.132-651.948 132.132z"/><path d="m-4326.541 2331.604h3347.582v3347.582h-3347.582z"/><path d="m-2652.748 5571.55c-210.829 0-416.085-41.598-610.069-123.638-186.711-78.973-354.092-191.723-497.495-335.118-143.422-143.433-256.175-310.807-335.13-497.476-82.054-193.998-123.659-399.271-123.659-610.116 0-210.852 41.606-416.128 123.664-610.127 78.958-186.678 191.707-354.045 335.116-497.452 143.401-143.401 310.769-256.149 497.456-335.11 193.992-82.054 399.265-123.658 610.117-123.658 210.847 0 416.121 41.605 610.122 123.661 186.684 78.964 354.051 191.711 497.453 335.111 143.406 143.408 256.153 310.774 335.112 497.45 82.056 193.995 123.662 399.271 123.662 610.125 0 210.852-41.607 416.13-123.666 610.131-78.959 186.682-191.711 354.052-335.122 497.458-143.403 143.405-310.776 256.153-497.471 335.11-193.971 82.047-399.237 123.649-610.09 123.649z"/><path d="m-2652.748 5557.424c-414.553 0-804.292-161.436-1097.422-454.568-293.129-293.121-454.563-682.857-454.563-1097.414 0-414.549 161.438-804.288 454.576-1097.423 293.125-293.125 682.858-454.557 1097.409-454.557 414.547 0 804.282 161.434 1097.413 454.563 293.134 293.133 454.569 682.87 454.569 1097.417 0 414.55-161.436 804.286-454.569 1097.417-293.121 293.13-682.856 454.565-1097.413 454.565z"/><path d="m-2652.748 5586.181c-212.771 0-419.92-41.979-615.69-124.771-188.428-79.695-357.354-193.489-502.089-338.221-144.727-144.723-258.518-313.63-338.211-502.03-82.814-195.805-124.803-402.978-124.803-615.768 0-212.796 41.987-419.96 124.794-615.737 79.696-188.408 193.484-357.319 338.207-502.043 144.731-144.73 313.643-258.521 502.045-338.209 195.779-82.809 402.946-124.797 615.747-124.797 212.8 0 419.967 41.988 615.746 124.798 188.392 79.683 357.3 193.47 502.033 338.2 144.729 144.725 258.519 313.633 338.207 502.033 82.813 195.782 124.803 402.952 124.803 615.755 0 212.798-41.987 419.963-124.794 615.739-79.688 188.406-193.481 357.323-338.221 502.059-144.737 144.733-313.651 258.522-502.052 338.206-195.759 82.801-402.919 124.786-615.722 124.786z"/><path d="m-4233.541 2424.604h3161.582v3161.582h-3161.582z"/><path d="m-2652.748 5480.55c-198.584 0-391.916-39.18-574.623-116.45-175.863-74.385-333.521-180.586-468.597-315.654-135.093-135.103-241.296-292.753-315.663-468.576-77.284-182.721-116.47-376.067-116.47-574.667 0-198.607 39.188-391.956 116.475-574.676 74.37-175.831 180.57-333.477 315.651-468.556 135.074-135.074 292.72-241.273 468.558-315.646 182.715-77.283 376.061-116.47 574.668-116.47 198.602 0 391.949 39.187 574.673 116.473 175.836 74.375 333.48 180.574 468.556 315.646 135.079 135.081 241.277 292.726 315.647 468.554 77.286 182.718 116.474 376.066 116.474 574.675 0 198.606-39.188 391.957-116.477 574.681-74.372 175.837-180.575 333.483-315.657 468.561-135.074 135.076-292.725 241.275-468.571 315.646-182.696 77.275-376.035 116.459-574.644 116.459z"/><path d="m-2652.748 5466.424c-390.246 0-757.132-151.97-1033.075-427.915-275.942-275.934-427.91-642.817-427.91-1033.067 0-390.242 151.973-757.129 427.922-1033.076 275.937-275.938 642.819-427.903 1033.063-427.903 390.24 0 757.123 151.968 1033.066 427.909 275.945 275.945 427.916 642.83 427.916 1033.07 0 390.243-151.971 757.128-427.916 1033.07-275.934 275.943-642.818 427.912-1033.066 427.912z"/><path d="m-2652.748 5495.181c-200.529 0-395.752-39.562-580.245-117.585-177.578-75.106-336.78-182.351-473.188-318.755-136.4-136.396-243.642-295.581-318.747-473.135-78.043-184.523-117.614-379.768-117.614-580.315 0-200.551 39.568-395.788 117.605-580.288 75.107-177.561 182.347-336.749 318.742-473.146 136.403-136.403 295.593-243.645 473.148-318.744 184.502-78.039 379.742-117.608 580.297-117.608s395.794 39.569 580.296 117.608c177.544 75.095 336.731 182.333 473.138 318.736 136.4 136.397 243.641 295.583 318.742 473.137 78.043 184.507 117.613 379.75 117.613 580.305 0 200.554-39.568 395.791-117.605 580.29-75.1 177.56-182.345 336.754-318.755 473.161-136.409 136.405-295.602 243.646-473.154 318.741-184.483 78.032-379.715 117.598-580.273 117.598z"/><path d="m-4142.541 2515.604h2979.582v2979.582h-2979.582z"/><path d="m-2652.748 5388.55c-186.206 0-367.48-36.734-538.787-109.184-164.897-69.747-312.725-169.328-439.38-295.977-126.671-126.681-226.253-274.501-295.982-439.359-72.461-171.319-109.203-352.606-109.203-538.828 0-186.226 36.742-367.517 109.207-538.836 69.732-164.867 169.313-312.684 295.973-439.342 126.653-126.653 274.47-226.232 439.344-295.968 171.312-72.461 352.601-109.202 538.83-109.202 186.223 0 367.513 36.742 538.834 109.205 164.868 69.736 312.685 169.314 439.342 295.969 126.659 126.662 226.236 274.477 295.968 439.338 72.464 171.317 109.206 352.608 109.206 538.836 0 186.229-36.743 367.521-109.208 538.841-69.733 164.869-169.315 312.688-295.979 439.345-126.654 126.656-274.475 226.235-439.354 295.968-171.301 72.456-352.583 109.194-538.811 109.194z"/><path d="m-2652.748 5374.424c-365.672 0-709.455-142.4-968.021-400.969-258.565-258.558-400.964-602.339-400.964-968.014 0-365.668 142.403-709.452 400.976-968.021 258.561-258.562 602.339-400.958 968.009-400.958 365.666 0 709.446 142.398 968.013 400.964 258.569 258.568 400.97 602.35 400.97 968.016 0 365.669-142.4 709.45-400.97 968.017-258.559 258.565-602.339 400.965-968.013 400.965z"/><path d="m-2652.748 5403.181c-188.152 0-371.318-37.117-544.41-110.319-166.611-70.468-315.983-171.091-443.969-299.075-127.981-127.978-228.603-277.335-299.068-443.922-73.22-173.119-110.345-356.306-110.345-544.474 0-188.171 37.123-371.35 110.338-544.448 70.469-166.597 171.089-315.955 299.064-443.932 127.983-127.983 277.344-228.604 443.933-299.065 173.1-73.217 356.282-110.341 544.458-110.341s371.356 37.124 544.456 110.341c166.579 70.457 315.938 171.075 443.925 299.059 127.981 127.979 228.601 277.336 299.063 443.922 73.219 173.104 110.345 356.287 110.345 544.465 0 188.174-37.123 371.354-110.338 544.451-70.461 166.592-171.084 315.957-299.075 443.945-127.99 127.986-277.354 228.605-443.939 299.063-173.085 73.209-356.261 110.33-544.438 110.33z"/><path d="m-4050.541 2607.604h2795.582v2795.582h-2795.582z"/><path d="m-2652.748 5298.55c-174.095 0-343.575-34.343-503.731-102.075-154.168-65.209-292.378-158.313-410.798-276.727-118.434-118.441-211.539-256.646-276.73-410.777-67.744-160.165-102.093-329.657-102.093-503.769 0-174.115 34.35-343.61 102.097-503.776 65.196-154.141 158.299-292.341 276.722-410.761 118.417-118.418 256.619-211.521 410.764-276.718 160.16-67.744 329.653-102.093 503.77-102.093 174.113 0 343.607 34.351 503.773 102.096 154.143 65.199 292.343 158.301 410.764 276.719 118.421 118.424 211.521 256.622 276.716 410.757 67.746 160.163 102.097 329.658 102.097 503.776s-34.351 343.614-102.098 503.78c-65.195 154.14-158.3 292.342-276.728 410.765-118.419 118.421-256.624 211.522-410.773 276.718-160.148 67.738-329.635 102.085-503.752 102.085z"/><path d="m-2652.748 5284.424c-341.632 0-662.814-133.038-904.381-374.607-241.567-241.561-374.604-562.741-374.604-904.375 0-341.628 133.041-662.811 374.615-904.382 241.562-241.563 562.741-374.598 904.37-374.598 341.625 0 662.805 133.037 904.374 374.604 241.57 241.57 374.608 562.75 374.608 904.376 0 341.628-133.038 662.809-374.608 904.376-241.562 241.568-562.741 374.606-904.374 374.606z"/><path d="m-2652.748 5313.181c-176.044 0-347.416-34.726-509.354-103.211-155.882-65.931-295.637-160.076-415.386-279.823-119.745-119.742-213.89-259.484-279.818-415.345-68.502-161.963-103.235-333.353-103.235-509.411 0-176.061 34.731-347.443 103.228-509.389 65.931-155.867 160.074-295.61 279.814-415.352 119.747-119.747 259.491-213.891 415.353-279.815 161.946-68.498 333.333-103.23 509.398-103.23 176.064 0 347.45 34.732 509.396 103.23 155.854 65.92 295.597 160.063 415.347 279.81 119.744 119.741 213.887 259.482 279.812 415.342 68.502 161.949 103.235 333.338 103.235 509.404 0 176.063-34.731 347.447-103.229 509.391-65.923 155.864-160.069 295.614-279.823 415.366-119.755 119.75-259.502 213.892-415.359 279.812-161.932 68.491-333.313 103.221-509.379 103.221z"/><path d="m-3960.541 2697.604h2615.582v2615.582h-2615.582z"/><path d="m-2652.748 5201.55c-161.045 0-317.813-31.766-465.948-94.414-142.604-60.318-270.451-146.441-379.993-255.979-109.555-109.562-195.678-237.401-255.98-379.973-62.66-148.144-94.431-304.922-94.431-465.982 0-161.063 31.772-317.844 94.434-465.988 60.306-142.578 146.427-270.415 255.973-379.959 109.541-109.542 237.379-195.663 379.962-255.971 148.138-62.658 304.917-94.43 465.983-94.43 161.061 0 317.842 31.772 465.986 94.433 142.582 60.31 270.419 146.431 379.962 255.972 109.543 109.546 195.663 237.38 255.968 379.954 62.661 148.142 94.434 304.923 94.434 465.989 0 161.065-31.772 317.849-94.435 465.992-60.305 142.577-146.428 270.415-255.979 379.962-109.544 109.545-237.385 195.666-379.97 255.971-148.125 62.653-304.9 94.423-465.966 94.423z"/><path d="m-2652.748 5187.424c-315.723 0-612.545-122.948-835.792-346.196-223.246-223.24-346.194-520.063-346.194-835.786 0-315.719 122.951-612.542 346.204-835.792 223.242-223.242 520.062-346.188 835.781-346.188 315.716 0 612.537 122.947 835.785 346.193 223.249 223.249 346.197 520.07 346.197 835.786 0 315.718-122.948 612.539-346.197 835.786-223.241 223.249-520.062 346.197-835.784 346.197z"/><path d="m-2652.748 5216.181c-162.993 0-321.652-32.147-471.572-95.55-144.318-61.04-273.708-148.205-384.58-259.074-110.869-110.866-198.033-240.245-259.07-384.544-63.417-149.94-95.571-308.616-95.571-471.622 0-163.007 32.152-321.677 95.565-471.603 61.04-144.303 148.201-273.683 259.066-384.549 110.871-110.871 240.252-198.033 384.55-259.066 149.925-63.415 308.598-95.568 471.611-95.568 163.011 0 321.684 32.153 471.608 95.568 144.294 61.03 273.673 148.191 384.545 259.062 110.866 110.864 198.028 240.242 259.063 384.54 63.417 149.928 95.572 308.603 95.572 471.616 0 163.009-32.152 321.68-95.565 471.604-61.033 144.303-148.198 273.688-259.075 384.563-110.876 110.871-240.259 198.033-384.556 259.063-149.909 63.408-308.576 95.56-471.591 95.56z"/><path d="m-3863.541 2794.604h2421.582v2421.582h-2421.582z"/><path d="m-2652.748 5108.55c-148.531 0-293.111-29.294-429.724-87.069-131.517-55.628-249.426-135.058-350.457-236.086-101.043-101.048-180.474-218.952-236.087-350.438-57.785-136.618-87.084-281.209-87.084-429.754 0-148.548 29.3-293.141 87.087-429.76 55.617-131.492 135.046-249.393 236.08-350.426 101.031-101.032 218.934-180.461 350.43-236.078 136.613-57.784 281.204-87.084 429.755-87.084 148.546 0 293.138 29.3 429.758 87.086 131.496 55.62 249.397 135.049 350.43 236.08 101.032 101.034 180.459 218.933 236.075 350.421 57.786 136.615 87.087 281.208 87.087 429.761 0 148.552-29.301 293.145-87.088 429.763-55.616 131.493-135.047 249.395-236.085 350.43-101.033 101.033-218.938 180.462-350.437 236.078-136.603 57.779-281.189 87.076-429.74 87.076z"/><path d="m-2652.748 5094.424c-290.881 0-564.35-113.274-770.03-318.957-205.681-205.676-318.955-479.144-318.955-770.025 0-290.878 113.277-564.347 318.964-770.03 205.677-205.677 479.142-318.949 770.021-318.949 290.876 0 564.342 113.274 770.024 318.955 205.684 205.684 318.958 479.15 318.958 770.024 0 290.876-113.274 564.343-318.958 770.025-205.677 205.682-479.144 318.957-770.024 318.957z"/><path d="m-2652.748 5123.181c-150.481 0-296.954-29.677-435.348-88.205-133.231-56.351-252.683-136.822-355.043-239.181-102.358-102.354-182.83-221.798-239.178-355.013-58.542-138.413-88.224-284.899-88.224-435.392s29.681-296.974 88.219-435.374c56.35-133.217 136.819-252.661 239.174-355.018 102.36-102.359 221.805-182.828 355.017-239.174 138.4-58.539 284.884-88.221 435.383-88.221 150.496 0 296.979 29.682 435.38 88.221 133.209 56.343 252.652 136.812 355.013 239.171 102.356 102.354 182.825 221.795 239.171 355.007 58.542 138.402 88.226 284.888 88.226 435.388 0 150.497-29.682 296.979-88.219 435.376-56.345 133.217-136.817 252.666-239.183 355.029-102.364 102.36-221.811 182.829-355.022 239.171-138.388 58.535-284.866 88.215-435.366 88.215z"/><path d="m-3770.541 2887.604h2235.582v2235.582h-2235.582z"/><path d="m-2652.748 5019.55c-136.559 0-269.475-26.93-395.058-80.04-120.905-51.14-229.305-124.165-322.191-217.049-92.897-92.901-165.922-201.296-217.05-322.175-53.12-125.589-80.054-258.515-80.054-395.084 0-136.571 26.935-269.498 80.056-395.089 51.13-120.884 124.154-229.275 217.043-322.163 92.886-92.888 201.279-165.911 322.167-217.042 125.584-53.119 258.51-80.054 395.086-80.054 136.57 0 269.497 26.935 395.088 80.056 120.887 51.132 229.279 124.156 322.167 217.043 92.887 92.889 165.909 201.278 217.039 322.159 53.121 125.587 80.056 258.515 80.056 395.09 0 136.573-26.935 269.502-80.057 395.092-51.13 120.886-124.155 229.278-217.048 322.167-92.888 92.888-201.283 165.912-322.174 217.042-125.572 53.114-258.494 80.047-395.07 80.047z"/><path d="m-2652.748 5005.424c-267.107 0-518.226-104.017-707.098-292.89-188.871-188.866-292.888-439.983-292.888-707.093 0-267.105 104.02-518.224 292.896-707.098 188.867-188.867 439.983-292.882 707.089-292.882 267.103 0 518.22 104.017 707.092 292.888 188.874 188.874 292.891 439.991 292.891 707.092 0 267.104-104.018 518.221-292.891 707.093-188.868 188.873-439.986 292.89-707.091 292.89z"/><path d="m-2652.748 5034.181c-138.507 0-273.316-27.312-400.681-81.176-122.621-51.863-232.563-125.93-326.777-220.143-94.213-94.21-168.28-204.146-220.142-326.752-53.876-127.382-81.193-262.202-81.193-400.72 0-138.519 27.316-273.334 81.188-400.704 51.863-122.609 125.928-232.544 220.138-326.755 94.216-94.216 204.152-168.279 326.754-220.137 127.371-53.874 262.19-81.19 400.712-81.19 138.521 0 273.339 27.316 400.709 81.19 122.601 51.855 232.536 125.919 326.752 220.134 94.21 94.208 168.274 204.142 220.134 326.746 53.876 127.37 81.194 262.19 81.194 400.716 0 138.521-27.315 273.337-81.188 400.706-51.858 122.609-125.926 232.549-220.145 326.766-94.22 94.216-204.156 168.279-326.76 220.135-127.356 53.869-262.171 81.184-400.695 81.184z"/><path d="m-3681.541 2976.604h2057.582v2057.582h-2057.582z"/><path d="m-2652.748 4922.55c-123.507 0-243.712-24.352-357.275-72.379-109.34-46.248-207.375-112.292-291.386-196.301-84.019-84.021-150.063-182.052-196.301-291.37-48.035-113.567-72.391-233.779-72.391-357.298s24.356-243.732 72.393-357.301c46.239-109.321 112.282-207.351 196.295-291.362 84.01-84.01 182.039-150.053 291.365-196.294 113.563-48.034 233.776-72.391 357.3-72.391 123.519 0 243.731 24.356 357.301 72.393 109.325 46.242 207.354 112.286 291.365 196.296 84.011 84.012 150.052 182.038 196.291 291.357 48.036 113.565 72.393 233.779 72.393 357.302s-24.357 243.737-72.394 357.305c-46.239 109.323-112.284 207.353-196.299 291.363-84.012 84.012-182.043 150.055-291.371 196.294-113.553 48.031-233.762 72.386-357.286 72.386z"/><path d="m-2652.748 4908.424c-241.197 0-467.957-93.927-638.508-264.479-170.55-170.546-264.477-397.305-264.477-638.504 0-241.195 93.93-467.955 264.485-638.508 170.546-170.547 397.304-264.472 638.5-264.472 241.193 0 467.951 93.927 638.503 264.478 170.553 170.554 264.479 397.311 264.479 638.502 0 241.193-93.928 467.952-264.479 638.504-170.55 170.552-397.309 264.479-638.503 264.479z"/><path d="m-2652.748 4937.181c-125.458 0-247.555-24.734-362.899-73.515-111.057-46.973-210.635-114.059-295.971-199.394-85.336-85.333-152.422-184.906-199.394-295.951-48.791-115.358-73.529-237.465-73.529-362.931s24.738-247.569 73.526-362.918c46.972-111.046 114.056-210.617 199.39-295.952 85.338-85.337 184.91-152.421 295.952-199.389 115.349-48.789 237.455-73.527 362.925-73.527 125.469 0 247.573 24.738 362.922 73.527 111.039 46.966 210.611 114.049 295.95 199.387 85.334 85.332 152.417 184.902 199.386 295.944 48.792 115.349 73.531 237.455 73.531 362.928 0 125.468-24.737 247.571-73.525 362.919-46.969 111.048-114.056 210.624-199.396 295.963-85.342 85.339-184.915 152.422-295.956 199.387-115.339 48.785-237.44 73.522-362.912 73.522z"/><path d="m-3584.541 3073.604h1863.582v1863.582h-1863.582z"/><path d="m-2652.748 4829.55c-110.995 0-219.012-21.881-321.05-65.034-98.252-41.558-186.35-100.909-261.85-176.407-75.507-75.51-134.858-163.604-176.408-261.837-43.16-102.041-65.044-210.064-65.044-321.069s21.885-219.029 65.046-321.072c41.551-98.236 100.901-186.329 176.402-261.83 75.499-75.499 163.592-134.849 261.833-176.401 102.039-43.16 210.063-65.044 321.071-65.044 111.005 0 219.028 21.885 321.072 65.046 98.239 41.554 186.333 100.904 261.833 176.404 75.5 75.501 134.849 163.591 176.398 261.824 43.161 102.04 65.046 210.064 65.046 321.073 0 111.008-21.885 219.033-65.047 321.075-41.551 98.238-100.902 186.331-176.405 261.83-75.502 75.502-163.598 134.853-261.838 176.402-102.029 43.157-210.049 65.04-321.059 65.04z"/><path d="m-2652.748 4815.424c-216.356 0-419.761-84.253-572.747-237.239-152.985-152.981-237.238-356.386-237.238-572.743 0-216.354 84.255-419.759 237.246-572.746 152.981-152.981 356.385-237.233 572.74-237.233 216.352 0 419.756 84.253 572.742 237.238 152.986 152.987 237.24 356.391 237.24 572.741 0 216.353-84.254 419.757-237.24 572.743s-356.39 237.239-572.743 237.239z"/><path d="m-2652.748 4844.181c-112.945 0-222.854-22.263-326.674-66.17-99.968-42.282-189.609-102.674-266.436-179.5-76.827-76.824-137.22-166.462-179.502-266.42-43.916-103.832-66.182-213.749-66.182-326.7s22.266-222.866 66.18-326.69c42.281-99.958 102.673-189.594 179.498-266.419 76.827-76.826 166.464-137.218 266.419-179.496 103.824-43.914 213.74-66.181 326.696-66.181 112.954 0 222.87 22.267 326.693 66.181 99.953 42.276 189.59 102.667 266.418 179.495 76.823 76.821 137.214 166.456 179.494 266.412 43.916 103.823 66.184 213.741 66.184 326.698 0 112.953-22.266 222.868-66.179 326.69-42.28 99.962-102.674 189.602-179.504 266.43-76.828 76.826-166.466 137.218-266.423 179.494-103.813 43.911-213.725 66.176-326.682 66.176z"/><path d="m-3491.541 3166.604h1677.582v1677.582h-1677.582z"/><path d="m-2652.748 4740.55c-99.021 0-195.374-19.516-286.384-58.005-87.642-37.07-166.229-90.017-233.585-157.37-67.362-67.364-120.308-145.949-157.37-233.573-38.495-91.011-58.014-187.369-58.014-286.399 0-99.029 19.52-195.389 58.016-286.401 37.064-87.628 90.009-166.212 157.366-233.568 67.354-67.354 145.939-120.3 233.57-157.364 91.009-38.495 187.369-58.014 286.401-58.014 99.028 0 195.388 19.52 286.401 58.016 87.633 37.066 166.217 90.013 233.571 157.367s120.299 145.937 157.361 233.563c38.496 91.01 58.016 187.37 58.016 286.402s-19.52 195.393-58.016 286.404c-37.063 87.629-90.01 166.213-157.367 233.567-67.358 67.357-145.944 120.303-233.576 157.366-91 38.491-187.358 58.009-286.39 58.009z"/><path d="m-2652.748 4726.424c-192.583 0-373.638-74.995-509.814-211.172-136.175-136.172-211.171-317.227-211.171-509.811 0-192.581 74.998-373.636 211.177-509.813 136.172-136.172 317.226-211.167 509.808-211.167 192.579 0 373.633 74.995 509.81 211.171 136.177 136.178 211.173 317.23 211.173 509.809s-74.996 373.634-211.173 509.811c-136.175 136.176-317.229 211.172-509.81 211.172z"/><path d="m-2652.748 4755.181c-100.97 0-199.215-19.897-292.007-59.141-89.356-37.794-169.488-91.78-238.17-160.462-68.683-68.681-122.671-148.809-160.465-238.159-39.25-92.8-59.15-191.052-59.15-292.028s19.901-199.227 59.149-292.021c37.793-89.349 91.78-169.477 160.46-238.157 68.682-68.681 148.81-122.667 238.158-160.459 92.793-39.248 191.045-59.149 292.025-59.149 100.979 0 199.229 19.901 292.022 59.15 89.348 37.79 169.475 91.776 238.157 160.458 68.679 68.678 122.664 148.803 160.457 238.151 39.25 92.792 59.152 191.044 59.152 292.026 0 100.978-19.9 199.228-59.148 292.021-37.793 89.354-91.781 169.483-160.466 238.166-68.683 68.682-148.812 122.668-238.16 160.458-92.784 39.245-191.032 59.146-292.014 59.146z"/><path d="m-3402.541 3255.604h1499.582v1499.582h-1499.582z"/><path d="m-2652.748 4647.55c-86.507 0-170.672-17.044-250.159-50.66-76.555-32.381-145.205-78.634-204.05-137.477-58.851-58.853-105.103-127.5-137.477-204.04-33.62-79.485-50.667-163.655-50.667-250.171 0-86.515 17.047-170.685 50.668-250.172 32.376-76.545 78.629-145.192 137.474-204.036 58.844-58.844 127.492-105.097 204.038-137.473 79.484-33.62 163.654-50.667 250.172-50.667 86.515 0 170.685 17.048 250.173 50.669 76.549 32.378 145.196 78.631 204.039 137.475 58.842 58.842 105.094 127.487 137.469 204.03 33.622 79.487 50.669 163.657 50.669 250.174 0 86.519-17.048 170.689-50.669 250.175-32.374 76.542-78.627 145.19-137.474 204.035-58.848 58.847-127.498 105.1-204.043 137.474-79.478 33.618-163.645 50.664-250.163 50.664z"/><path d="m-2652.748 4633.424c-167.742 0-325.443-65.322-444.053-183.933-118.61-118.607-183.932-276.308-183.932-444.05 0-167.739 65.324-325.439 183.938-444.05 118.607-118.608 276.307-183.93 444.048-183.93 167.738 0 325.438 65.322 444.049 183.933s183.934 276.311 183.934 444.047c0 167.738-65.322 325.438-183.934 444.05-118.611 118.611-276.311 183.933-444.05 183.933z"/><path d="m-2652.748 4662.181c-88.458 0-174.515-17.427-255.782-51.796-78.27-33.104-148.464-80.398-208.636-140.568-60.172-60.171-107.467-130.363-140.572-208.628-34.374-81.271-51.803-167.334-51.803-255.798s17.429-174.524 51.803-255.791c33.104-78.265 80.398-148.456 140.568-208.626s130.362-107.463 208.625-140.566c81.269-34.374 167.331-51.803 255.796-51.803 88.464 0 174.525 17.43 255.794 51.804 78.263 33.102 148.454 80.396 208.625 140.566 60.168 60.166 107.461 130.356 140.564 208.619 34.376 81.268 51.806 167.33 51.806 255.797 0 88.464-17.429 174.525-51.802 255.793-33.104 78.269-80.4 148.462-140.572 208.632-60.172 60.171-130.364 107.464-208.628 140.565-81.26 34.372-167.319 51.8-255.786 51.8z"/><path d="m-3309.541 3348.604h1313.582v1313.582h-1313.582z"/><path d="m-2652.748 4557.55c-74.399 0-146.771-14.653-215.104-43.552-65.825-27.843-124.859-67.619-175.467-118.226-50.611-50.613-90.388-109.646-118.224-175.459-28.903-68.333-43.558-140.707-43.558-215.111s14.655-146.778 43.559-215.111c27.839-65.817 67.615-124.85 118.223-175.457 50.607-50.607 109.64-90.383 175.458-118.222 68.332-28.902 140.707-43.558 215.113-43.558 74.404 0 146.779 14.655 215.113 43.559 65.82 27.841 124.853 67.617 175.458 118.224 50.606 50.606 90.382 109.637 118.22 175.452 28.903 68.333 43.559 140.708 43.559 215.113 0 74.407-14.655 146.782-43.559 215.113-27.838 65.816-67.614 124.849-118.223 175.456-50.612 50.611-109.646 90.387-175.462 118.223-68.327 28.902-140.7 43.556-215.106 43.556z"/><path d="m-2652.748 4543.424c-143.703 0-278.803-55.961-380.414-157.572-101.611-101.609-157.572-236.709-157.572-380.41 0-143.699 55.962-278.798 157.576-380.409 101.609-101.61 236.708-157.57 380.409-157.57 143.698 0 278.797 55.96 380.409 157.572s157.573 236.71 157.573 380.407c0 143.699-55.961 278.798-157.573 380.41-101.609 101.611-236.708 157.572-380.408 157.572z"/><path d="m-2652.748 4572.181c-76.349 0-150.612-15.035-220.725-44.688-67.542-28.567-128.12-69.385-180.054-121.317-51.936-51.936-92.754-112.513-121.321-180.049-29.656-70.116-44.693-144.382-44.693-220.736 0-76.353 15.037-150.617 44.693-220.731 28.567-67.536 69.384-128.112 121.318-180.046 51.934-51.933 112.51-92.75 180.046-121.315 70.115-29.656 144.381-44.693 220.736-44.693 76.354 0 150.62 15.037 220.734 44.693 67.536 28.565 128.111 69.383 180.045 121.316 51.932 51.931 92.748 112.505 121.314 180.04 29.658 70.115 44.695 144.382 44.695 220.736 0 76.355-15.037 150.62-44.692 220.733-28.567 67.54-69.386 128.118-121.32 180.051-51.935 51.934-112.512 92.751-180.048 121.315-70.108 29.655-144.373 44.691-220.728 44.691z"/><path d="m-3219.541 3438.604h1133.582v1133.582h-1133.582z"/><path d="m-2652.748 4464.55c-61.887 0-122.07-12.182-178.879-36.207-54.737-23.152-103.834-56.235-145.932-98.332-42.1-42.101-75.183-91.196-98.331-145.926-24.028-56.808-36.211-116.992-36.211-178.883 0-61.89 12.183-122.074 36.211-178.883 23.15-54.731 56.233-103.827 98.331-145.924 42.097-42.097 91.193-75.18 145.926-98.33 56.807-24.027 116.993-36.211 178.885-36.211 61.891 0 122.076 12.184 178.885 36.212 54.732 23.151 103.829 56.234 145.925 98.331 42.096 42.095 75.179 91.19 98.328 145.92 24.028 56.808 36.212 116.993 36.212 178.885s-12.183 122.077-36.211 178.884c-23.149 54.73-56.232 103.826-98.331 145.924-42.101 42.1-91.197 75.183-145.928 98.33-56.803 24.026-116.987 36.21-178.88 36.21z"/><path d="m-2652.748 4450.424c-118.861 0-230.606-46.286-314.652-130.333-84.046-84.045-130.333-195.79-130.333-314.649 0-118.857 46.288-230.602 130.336-314.647 84.044-84.045 195.79-130.332 314.649-130.332 118.856 0 230.602 46.287 314.648 130.333 84.047 84.047 130.334 195.79 130.334 314.646 0 118.858-46.287 230.603-130.334 314.649-84.046 84.047-195.79 130.333-314.648 130.333z"/><path d="m-2652.748 4479.181c-63.836 0-125.911-12.563-184.5-37.342-56.456-23.879-107.096-58.003-150.52-101.425-43.425-43.425-77.55-94.065-101.427-150.517-24.781-58.59-37.346-120.666-37.346-184.507 0-63.839 12.565-125.915 37.346-184.503 23.878-56.45 58.002-107.091 101.425-150.513 43.422-43.423 94.063-77.547 150.514-101.424 58.588-24.781 120.665-37.347 184.507-37.347 63.841 0 125.917 12.565 184.506 37.347 56.449 23.877 107.089 58 150.512 101.424 43.422 43.421 77.546 94.06 101.424 150.51 24.782 58.59 37.348 120.666 37.348 184.506s-12.564 125.916-37.346 184.505c-23.878 56.453-58.002 107.094-101.427 150.517-43.425 43.425-94.066 77.549-150.516 101.424-58.582 24.779-120.658 37.345-184.5 37.345z"/><path d="m-3126.541 3531.604h947.582v947.582h-947.582z"/><path d="m-2652.958 4370.55c-49.24 0-97.105-9.685-142.264-28.783-43.531-18.412-82.584-44.73-116.079-78.225-33.497-33.497-59.815-72.55-78.225-116.075-19.1-45.157-28.785-93.022-28.785-142.265s9.685-97.106 28.786-142.265c18.411-43.526 44.729-82.579 78.224-116.074 33.494-33.494 72.548-59.813 116.076-78.223 45.159-19.102 93.024-28.786 142.267-28.786s97.108 9.686 142.267 28.786c43.526 18.411 82.579 44.729 116.073 78.224s59.813 72.547 78.223 116.072c19.102 45.159 28.787 93.024 28.787 142.266s-9.686 97.107-28.785 142.266c-18.41 43.525-44.729 82.578-78.225 116.074-33.498 33.497-72.553 59.814-116.076 78.223-45.156 19.1-93.021 28.785-142.264 28.785z"/><path d="m-2652.958 4356.424c-93.752 0-181.893-36.509-248.184-102.801-66.292-66.291-102.801-154.431-102.801-248.182 0-93.749 36.509-181.887 102.803-248.179 66.292-66.292 154.432-102.801 248.183-102.801 93.75 0 181.887 36.509 248.18 102.802 66.293 66.292 102.803 154.43 102.803 248.178 0 93.75-36.51 181.889-102.803 248.182-66.291 66.292-154.43 102.801-248.181 102.801z"/><path d="m-2652.958 4385.181c-51.19 0-100.946-10.066-147.886-29.918-45.248-19.139-85.846-46.498-120.667-81.318-34.823-34.822-62.182-75.42-81.32-120.666-19.854-46.939-29.92-96.696-29.92-147.888 0-51.19 10.067-100.946 29.92-147.884 19.139-45.247 46.498-85.844 81.319-120.664 34.82-34.82 75.418-62.18 120.665-81.317 46.938-19.854 96.695-29.921 147.889-29.921 51.193 0 100.949 10.067 147.887 29.921 45.244 19.138 85.842 46.496 120.662 81.317 34.82 34.819 62.18 75.416 81.318 120.662 19.855 46.939 29.922 96.695 29.922 147.886s-10.066 100.947-29.92 147.887c-19.139 45.246-46.498 85.845-81.32 120.666-34.82 34.821-75.42 62.182-120.664 81.317-46.936 19.853-96.693 29.92-147.885 29.92z"/><path d="m-3032.75 3625.604h759.583v759.582h-759.583z"/><path d="m-2652.958 4280.55c-37.133 0-73.202-7.293-107.207-21.675-32.799-13.873-62.237-33.714-87.496-58.973s-45.101-54.695-58.974-87.495c-14.383-34.004-21.676-70.073-21.676-107.205s7.293-73.2 21.676-107.204c13.873-32.799 33.714-62.236 58.973-87.494 25.259-25.259 54.697-45.101 87.496-58.974 34.005-14.383 70.075-21.676 107.208-21.676 37.132 0 73.201 7.293 107.206 21.677 32.799 13.873 62.236 33.714 87.494 58.973 25.26 25.258 45.102 54.695 58.975 87.493 14.383 34.005 21.676 70.073 21.676 107.205s-7.293 73.201-21.676 107.206c-13.873 32.799-33.715 62.235-58.975 87.494-25.258 25.258-54.696 45.1-87.495 58.972-34.004 14.383-70.073 21.676-107.205 21.676z"/><path d="m-2652.958 4266.424c-69.712 0-135.251-27.146-184.544-76.44-49.294-49.293-76.441-114.831-76.441-184.542 0-69.708 27.147-135.245 76.441-184.538 49.294-49.294 114.833-76.441 184.544-76.441 69.709 0 135.248 27.147 184.542 76.441 49.293 49.294 76.441 114.83 76.441 184.538 0 69.71-27.148 135.248-76.441 184.542-49.294 49.292-114.832 76.44-184.542 76.44z"/><path d="m-2652.957 4295.181c-39.082 0-77.043-7.675-112.828-22.81-34.519-14.601-65.501-35.483-92.086-62.067-26.585-26.585-47.468-57.567-62.068-92.086-15.136-35.785-22.81-73.745-22.81-112.827 0-39.08 7.675-77.04 22.811-112.824 14.601-34.518 35.483-65.499 62.068-92.083 26.585-26.585 57.567-47.468 92.086-62.068 35.785-15.136 73.746-22.811 112.829-22.811 39.081 0 77.042 7.675 112.827 22.812 34.519 14.6 65.499 35.482 92.085 62.067 26.584 26.584 47.467 57.565 62.066 92.083 15.137 35.784 22.811 73.744 22.811 112.824 0 39.082-7.674 77.042-22.811 112.827-14.6 34.519-35.482 65.501-62.066 92.085-26.586 26.585-57.566 47.468-92.086 62.067-35.786 15.136-73.747 22.811-112.828 22.811z"/></g><path d="m-2942.75 3715.604h579.583v579.582h-579.583z"/><path d="m-2467.354 4005.195c.004 102.362-82.981 185.35-185.343 185.353-102.369.003-185.355-82.979-185.358-185.343-.003-102.36 82.979-185.35 185.348-185.354 102.361-.002 185.351 82.983 185.353 185.344z" stroke="#2f6df6" stroke-miterlimit="10"/></g><path d="m-2591.941 3815.075c-.164-.052-.329-.099-.493-.151-.037-.012-.071-.029-.109-.041-.063-.02-.126-.031-.188-.05-7.537-2.298-15.545 1.875-17.952 9.404-2.424 7.584 1.753 15.697 9.33 18.133.008.002.016.006.023.009.014.004.027.006.041.011.188.06.376.112.563.172 89.946 28.746 139.563 124.972 110.818 214.915-28.648 89.644-124.315 139.217-213.999 111.099-.481-.214-.976-.408-1.488-.572-.481-.153-.964-.28-1.448-.382-7.149-1.498-14.42 2.626-16.692 9.737-2.388 7.474 1.64 15.448 9.005 18.011.118.041.229.093.348.131.071.022.144.035.215.057.13.042.258.088.389.13 105.102 33.589 217.537-24.385 251.126-129.488 33.587-105.097-24.388-217.536-129.489-251.125z" fill="#2f6df6"/><path d="m-2852.555 3805.592h399.582v399.583h-399.582z" fill="none"/><circle cx="-2653.09" cy="3730.033" fill="none" r="14.429" stroke="#2f6df6" stroke-miterlimit="10"/><path d="m2026.831 757.291c.003 61.39-49.767 111.159-111.155 111.161-61.395.001-111.162-49.766-111.164-111.156-.002-61.388 49.764-111.159 111.158-111.161 61.389-.001 111.158 49.766 111.161 111.156z" fill="none" stroke="#2f6df6" stroke-miterlimit="10" stroke-width="1.5"/><path d="m1952.112 643.271c-.099-.032-.198-.06-.296-.09-.022-.008-.043-.018-.065-.024-.038-.013-.075-.019-.112-.03-4.521-1.379-9.323 1.124-10.768 5.64-1.454 4.548 1.052 9.414 5.596 10.875.004.002.01.005.014.006.009.002.017.003.025.006.111.036.226.067.338.104 53.942 17.24 83.699 74.948 66.461 128.89-17.182 53.761-74.557 83.492-128.342 66.628-.288-.128-.584-.245-.893-.343-.288-.091-.577-.167-.867-.229-4.289-.899-8.648 1.575-10.012 5.839-1.432 4.482.984 9.265 5.4 10.802.07.024.137.055.209.079.043.013.086.021.129.034.078.025.154.053.232.078 63.033 20.145 130.463-14.625 150.607-77.658 20.146-63.03-14.623-130.463-77.656-150.607z" fill="#2f6df6"/><path d="m3051.443 1890.236c-626.873 626.919-1643.319 626.926-2270.231.06-626.938-626.914-626.968-1643.348-.085-2270.255 626.848-626.895 1643.301-626.944 2270.256-.036 626.895 626.871 626.925 1643.33.06 2270.231z" fill="none" stroke="#2f6df6" stroke-miterlimit="10" stroke-width="11.5"/><path d="m773.632 1897.689c-117.493-117.501-216.081-252.701-293.024-401.843-.412-.837-1.12-2.278-2.039-4.037l-.25-.479c-.148-.311-.303-.633-.461-.96-1.986-4.146-.359-9.038 3.705-11.135 4.359-2.249 8.268-.104 9.89 1.519.374.375.722.803 1.028 1.273.15.23.309.496.473.796.093.208.268.621.535 1.308l2.366 6.122 3.042 5.82c75.529 144.522 171.787 275.76 286.104 390.067 493.154 493.118 1241.239 609.544 1861.514 289.714 782.678-403.576 1091.229-1368.744 687.81-2151.522-.897-1.753-1.7-3.247-2.23-4.236l-.284-.531-.4-.783c-1.84-4.108-.151-8.935 3.857-11 4.328-2.231 8.211-.102 9.82 1.508.568.568 1.055 1.238 1.486 2.044l.23.433.797 1.512c.459.87.923 1.737 1.392 2.604l.301.56c50.177 97.332 90.518 199.64 119.894 304.066 28.626 101.758 47.205 206.792 55.223 312.182 7.871 103.504 5.644 208.408-6.623 311.798-12.154 102.444-34.266 204.29-65.717 302.708-31.455 98.42-72.507 194.212-122.015 284.715-49.966 91.338-108.987 178.091-175.427 257.845-67.646 81.205-143.691 155.996-226.025 222.292-84.525 68.063-176.76 128.035-274.143 178.246-156.607 80.751-323.44 135.061-495.864 161.426-166.729 25.492-336.035 24.537-503.216-2.836-165.332-27.07-324.847-79.33-474.113-155.326-151.086-76.924-288.221-176.457-407.597-295.833z" fill="#2f6df6"/><path d="m2574.531 2128.994c-758.045 362.988-1666.855 42.688-2029.84-715.349-362.992-758.088-42.714-1666.895 715.336-2029.868 758.016-362.974 1666.844-42.71 2029.854 715.378 362.967 758.037 42.683 1666.866-715.35 2029.839z" fill="none" stroke="#2f6df6" stroke-miterlimit="10" stroke-width="10"/><path d="m536.441 1417.455c-67.977-141.986-113.488-293.824-135.273-451.31-.102-.858-.291-2.438-.563-4.339l-.061-.406c-.035-.339-.072-.685-.113-1.041-.428-3.808 2.213-7.204 6.008-7.729 5.09-.703 7.283 3.752 7.375 3.94.191.401.34.82.453 1.278.053.224.104.476.15.752.016.203.041.606.061 1.264l.189 6.267.891 6.209c22.004 153.115 66.74 300.881 132.971 439.193 285.717 596.678 918.293 936.728 1574.08 846.173 827.656-114.291 1408.025-880.635 1293.738-1708.309-.238-1.726-.469-3.216-.619-4.202l-.09-.571-.102-.764c-.309-3.749 2.359-7.078 6.1-7.594 5.045-.696 7.223 3.727 7.313 3.916.281.585.475 1.226.592 1.959l.078.508.238 1.622c.135.928.281 1.855.426 2.782l.09.574c14.184 102.778 18.01 206.89 11.371 309.448-6.469 99.943-22.945 199.646-48.971 296.337-25.563 94.964-60.59 188-104.109 276.52-43.125 87.71-94.955 171.751-154.055 249.789-59.104 78.037-125.951 150.704-198.691 215.982-73.41 65.88-153.471 124.81-237.953 175.15-86.016 51.255-177.521 94.133-271.969 127.445-96.965 34.198-198.268 58.737-301.094 72.937-165.371 22.834-331.549 18.824-493.916-11.92-157.008-29.73-307.988-83.901-448.752-161.008-139.209-76.258-265.285-173.19-374.729-288.105-110.775-116.315-201.968-248.439-271.04-392.702z" fill="#2f6df6"/><path d="m1924.753 2185.311c-789.242.029-1429.088-639.807-1429.117-1429.043-.016-789.284 639.8-1429.134 1429.044-1429.149 789.213-.03 1429.086 639.783 1429.117 1429.073.014 789.231-639.815 1429.096-1429.044 1429.119z" fill="none" stroke="#2f6df6" stroke-miterlimit="10" stroke-width="10"/><path d="m486.203 756.148c.004-147.909 23.049-295.063 68.486-437.37.287-.841.76-2.226 1.295-3.942l.113-.365c.109-.305.221-.618.332-.942l-.021.064c1.353-3.89 5.466-5.96 9.363-4.716 4.168 1.334 5.274 5.285 5.274 7.188 0 .473-.054.962-.155 1.451-.051.238-.119.51-.205.801-.068.175-.216.547-.486 1.158l-2.363 5.346-1.748 5.575c-43.432 138.52-65.451 281.725-65.445 425.639.023 620.843 397.643 1165.039 989.422 1354.164 746.787 238.658 1548.519-174.71 1787.326-921.424.537-1.66.969-3.09 1.253-4.041l.149-.491.24-.748c1.416-3.722 5.531-5.736 9.369-4.511 5.174 1.654 5.232 6.917 5.232 7.141 0 .698-.107 1.407-.334 2.162-.037.124-.074.246-.109.368l-.495 1.592c-.256.828-.505 1.658-.753 2.488l-.167.553c-29.687 92.859-68.69 182.647-115.931 266.867-46.036 82.075-100.459 159.888-161.754 231.275-60.199 70.11-127.637 134.743-200.441 192.105-72.139 56.836-150.168 107.028-231.922 149.183-81.752 42.154-167.893 76.613-256.03 102.419-88.952 26.045-180.715 43.5-272.74 51.883-93.7 8.534-188.651 7.744-282.211-2.35-96.054-10.364-191.867-30.675-284.775-60.368-149.415-47.751-288.622-118.582-413.755-210.526-121.002-88.905-226.977-196.082-314.984-318.552-87.037-121.114-154.551-254.425-200.672-396.226-46.685-143.529-70.357-292.511-70.357-442.799-.001-.018-.001-.032-.001-.051z" fill="#2f6df6"/><path d="m1251.978 1902.12c-632.425-371.135-844.23-1184.728-473.097-1817.149 371.164-632.45 1184.742-844.269 1817.162-473.122 632.4 371.121 844.24 1184.71 473.083 1817.173-371.14 632.407-1184.737 844.232-1817.148 473.098z" fill="none" stroke="#2f6df6" stroke-miterlimit="10" stroke-width="9.5"/><path d="m771.219 80.348c69.576-118.54 157.254-225.629 260.607-318.306.615-.532 1.637-1.413 2.862-2.525l.284-.257c.23-.194.467-.394.711-.602l-.049.042c2.988-2.545 7.371-2.263 9.975.642 2.785 3.107 1.785 6.889.869 8.454-.23.39-.51.767-.83 1.121-.158.174-.348.364-.557.563-.137.109-.436.341-.951.712l-4.397 3.165-4.014 3.637c-99.927 90.557-184.905 194.937-252.569 310.239-291.905 497.416-229.226 1120.376 155.967 1550.158 486.118 542.383 1322.854 588.186 1865.287 102.13 1.19-1.062 2.188-1.988 2.857-2.607l.344-.319.533-.473c2.958-2.387 7.32-2.059 9.887.805 2.76 3.077 1.838 6.727.857 8.397-.342.582-.777 1.116-1.333 1.633-.108.099-.216.199-.321.297l-1.057.966c-.599.543-1.188 1.092-1.779 1.641l-.387.359c-67.472 60.459-140.967 114.077-218.439 159.354-75.498 44.123-155.709 80.885-238.408 109.266-81.219 27.873-165.662 47.951-250.986 59.677-84.545 11.619-170.684 15.143-256.027 10.475-85.344-4.669-170.584-17.57-253.355-38.343-83.533-20.965-165.283-50.136-242.975-86.701-79.106-37.231-154.827-82.523-225.058-134.618-72.104-53.483-139.335-114.823-199.827-182.318-97.281-108.543-175.527-230.781-232.566-363.32-55.152-128.159-89.672-263.894-102.6-403.435-12.785-137.997-4.191-276.587 25.54-411.918 30.095-136.98 81.196-267.511 151.882-387.95.009-.016.013-.026.023-.041z" fill="#2f6df6"/><path d="m921.275 1465.879c-391.189-553.353-259.701-1319.089 293.647-1710.277 553.387-391.199 1319.117-259.731 1710.299 293.63 391.176 553.333 259.718 1319.079-293.668 1710.293-553.349 391.173-1319.098 259.701-1710.278-293.646z" fill="none" stroke="#2f6df6" stroke-miterlimit="10" stroke-width="9"/><path d="m1210.729-250.504c103.649-73.263 218.17-130.005 340.402-168.657.676-.2 1.915-.566 3.396-1.043l.31-.101c.271-.076.552-.156.841-.24 2.987-.841 6.087.82 7.026 3.79 1.265 4.006-2.023 6.387-2.164 6.487-.294.207-.619.389-.97.541-.171.074-.373.152-.591.227-.166.042-.487.117-.999.219l-4.952.999-4.809 1.547c-118.712 38.225-230.094 93.795-331.053 165.167-435.53 307.898-620.121 856.711-459.328 1365.654 202.913 642.262 890.536 999.752 1532.828 796.906 1.406-.441 2.559-.827 3.4-1.108l.436-.146.594-.185c2.979-.758 6.021.933 6.951 3.876 1.254 3.971-2.012 6.335-2.15 6.434-.455.321-.948.563-1.556.764l-1.616.529c-.703.229-1.407.465-2.111.702l-.448.151c-79.782 25.198-162.026 42.345-244.453 50.961-80.319 8.396-161.804 8.805-242.188 1.214-78.947-7.455-157.645-22.696-233.903-45.299-75.562-22.397-149.384-52.212-219.422-88.619-70.036-36.408-136.854-79.702-198.595-128.68-62.313-49.43-119.998-105.086-171.457-165.42-52.396-61.433-98.874-128.36-138.145-198.921-40.318-72.442-73.547-149.643-98.762-229.457-40.551-128.355-59.873-260.99-57.43-394.221 2.362-128.83 24.971-256.181 67.195-378.516 41.758-120.984 101.73-234.33 178.251-336.892 77.452-103.811 170.122-194.193 275.437-268.639z" fill="#2f6df6"/><path d="m825.48 480.659c156.297-606.05 774.342-970.645 1380.387-814.351 606.076 156.316 970.682 774.344 814.373 1380.392-156.291 606.027-774.324 970.649-1380.41 814.345-606.035-156.305-970.65-774.349-814.35-1380.386z" fill="none" stroke="#2f6df6" stroke-miterlimit="10" stroke-width="8.5"/><path d="m2207.93-341.32c113.633 29.313 222.111 76.174 322.432 139.287.58.379 1.535 1.005 2.723 1.742l.273.171c.207.14.418.281.639.428 2.9 1.939 3.727 5.754 1.879 8.691-1.98 3.146-5.463 3.215-7.027 2.812-.393-.101-.783-.247-1.166-.437-.188-.093-.396-.208-.621-.342-.121-.087-.387-.282-.828-.629l-3.615-2.855-3.912-2.434c-97.727-60.761-203.291-106.016-313.76-134.506-476.557-122.901-973 74.564-1235.336 491.365-331.066 526.005-172.504 1223.278 353.465 1554.401 1.145.724 2.137 1.325 2.799 1.727l.352.214.535.338c2.764 1.95 3.553 5.765 1.729 8.661-1.963 3.117-5.314 3.222-6.982 2.791-.584-.151-1.152-.396-1.729-.746-.107-.065-.213-.128-.314-.191l-1.057-.65c-.582-.359-1.168-.715-1.756-1.069l-.387-.233c-65.453-41.205-126.701-88.96-182.039-141.937-53.926-51.626-102.916-108.85-145.607-170.079-41.93-60.134-78.217-124.743-107.854-192.034-29.367-66.675-52.463-136.561-68.646-207.712-16.182-71.151-25.584-144.15-27.943-216.967-2.385-73.488 2.389-147.437 14.184-219.789 12.01-73.668 31.432-146.448 57.725-216.318 26.99-71.732 61.574-141.307 102.793-206.793 66.285-105.313 148.277-198.213 243.699-276.119 92.268-75.333 195.594-135.505 307.111-178.844 110.277-42.86 226.059-68.31 344.125-75.643 119.502-7.423 238.641 3.913 354.086 33.69.01.003.016.005.03.009z" fill="#2f6df6"/><path d="m1177.311 35.606c402.143-411.845 1062.043-419.688 1473.885-17.549 411.855 402.171 419.715 1062.063 17.564 1473.9-402.129 411.83-1062.033 419.702-1473.902 17.533-411.829-402.142-419.688-1062.05-17.547-1473.884z" fill="none" stroke="#2f6df6" stroke-miterlimit="10" stroke-width="8"/><path d="m2656.936 12.303c77.287 75.479 142.42 162.61 193.588 258.974.199.394.703 1.392 1.336 2.572l.158.292c.105.217.219.441.334.671 1.633 3.278.377 7.194-2.861 8.912-3.02 1.604-6.141.593-7.895-1.119-.307-.301-.59-.642-.84-1.015-.127-.19-.26-.409-.396-.651-.057-.123-.189-.419-.4-.946l-1.559-3.889-1.982-3.689c-50.09-93.133-113.52-177.491-188.525-250.732-323.578-315.957-809.564-385.689-1209.311-173.521-504.51 267.777-697.107 896.087-429.33 1400.61.451.851.914 1.696 1.379 2.541l.211.384.264.499c1.508 3.214.188 7.175-2.953 8.842-3.002 1.593-6.105.588-7.852-1.116-.457-.447-.863-.99-1.203-1.612l-.703-1.292c-.293-.539-.592-1.082-.895-1.625l-.223-.4c-33.352-62.848-60.365-129.039-80.271-196.707-19.391-65.924-32.279-134.053-38.303-202.493-5.916-67.218-5.279-135.424 1.896-202.719 7.107-66.682 20.693-133.051 40.377-197.268 19.686-64.213 45.627-126.794 77.111-186.004 31.771-59.757 69.465-116.601 112.035-168.955 43.344-53.307 92.197-102.509 145.199-146.236 54.418-44.895 113.908-84.587 176.816-117.976 101.17-53.697 209.189-90.287 321.064-108.755 108.178-17.857 218.234-18.545 327.111-2.044 107.674 16.318 211.764 49.055 309.371 97.3 98.801 48.834 188.707 112.471 267.225 189.145z" fill="#2f6df6"/><path d="m1678.459-174.212c518.014-132.42 1045.308 180.196 1177.727 698.204 132.416 518.039-180.184 1045.335-698.199 1177.745-517.992 132.415-1045.303-180.182-1177.73-698.224-132.408-518.004 180.199-1045.312 698.202-1177.725z" fill="none" stroke="#2f6df6" stroke-miterlimit="10" stroke-width="7.5"/><path d="m2864.945 521.836c24.879 97.363 34.467 198.102 28.492 299.415-.082 1.058-.14 1.914-.184 2.716l-.014.302c-.021.225-.041.455-.062.692-.356 4.208-3.927 7.312-8.13 7.063-4.468-.264-6.54-3.773-7.06-5.806-.124-.486-.198-.994-.221-1.514-.011-.269-.011-.561.001-.866.013-.123.052-.46.156-1.083l.631-3.762.203-3.807c5.256-97.937-4.291-195.355-28.369-289.552-103.882-406.37-455.188-696.056-874.181-720.845-528.751-31.28-984.415 373.454-1015.755 902.221-.055.902-.098 1.817-.136 2.734l-.017.368-.039.63c-.426 4.066-4.074 7.168-8.166 6.926-4.449-.265-6.51-3.759-7.027-5.781-.184-.719-.258-1.49-.22-2.294l.064-1.346c.028-.573.054-1.156.078-1.739l.017-.423c3.914-66.095 14.482-131.755 31.409-195.146 16.491-61.765 39.222-122.129 67.552-179.42 27.824-56.269 61.336-110.149 99.602-160.146 37.916-49.54 80.825-95.697 127.535-137.189 46.711-41.492 97.604-78.659 151.269-110.47 54.159-32.102 111.615-59.025 170.771-80.021 60.233-21.379 122.855-36.831 186.128-45.925 64.958-9.337 131.43-12.086 197.567-8.173 106.365 6.293 209.895 29.492 307.713 68.954 94.585 38.157 182.36 90.865 260.882 156.662 77.651 65.067 144.507 141.443 198.714 227.007 54.867 86.608 95.505 180.674 120.785 279.583z" fill="#2f6df6"/><path d="m2814.919 755.568c.018 496.346-402.367 898.736-898.709 898.756-496.37.009-898.766-402.362-898.773-898.709-.02-496.327 402.351-898.736 898.725-898.756 496.337-.008 898.741 402.372 898.757 898.709z" fill="none" stroke="#2f6df6" stroke-miterlimit="10" stroke-width="8.5"/><path d="m1916.136 1663.141c-93.333-.003-186.182-14.544-275.975-43.221-.815-.276-1.607-.54-2.406-.791l-.28-.086c-.206-.074-.421-.149-.642-.226-3.913-1.362-5.992-5.525-4.729-9.479 1.343-4.202 5.2-5.325 7.268-5.325.496 0 1.001.054 1.502.158.256.055.543.129.836.217.104.038.414.155.974.403l3.214 1.421 3.352 1.052c86.834 27.226 176.603 41.027 266.814 41.024 389.182-.015 730.314-249.266 848.87-620.229 149.622-468.185-109.554-970.816-577.746-1120.448-.786-.252-1.573-.492-2.36-.729l-.352-.106-.539-.174c-3.789-1.396-5.866-5.637-4.633-9.494 1.336-4.183 5.18-5.299 7.238-5.299.722 0 1.465.113 2.213.338l1.242.384c.498.154 1.002.306 1.506.457l.393.118c58.594 18.729 115.25 43.341 168.393 73.148 51.781 29.045 100.875 63.38 145.916 102.053 44.232 37.98 85.01 80.527 121.198 126.458 35.857 45.513 67.523 94.74 94.118 146.316 26.594 51.577 48.333 105.922 64.614 161.527 16.431 56.118 27.444 114.013 32.731 172.072 5.385 59.116 4.886 119.021-1.482 178.049-6.537 60.6-19.352 121.047-38.084 179.661-30.126 94.264-74.813 182.089-132.82 261.037-56.092 76.34-123.709 143.2-200.977 198.724-76.408 54.908-160.512 97.504-249.972 126.603-90.554 29.453-184.546 44.387-279.362 44.387z" fill="#2f6df6"/><path d="m2709.932 532.076c125.314 438.655-128.727 895.855-567.379 1021.167-438.678 125.312-895.877-128.717-1021.184-567.374-125.307-438.639 128.717-895.851 567.397-1021.172 438.648-125.301 895.861 128.732 1021.166 567.379z" fill="none" stroke="#2f6df6" stroke-miterlimit="10" stroke-width="7.5"/><path d="m2145.229 1562.854c-82.689 23.616-168.627 34.228-255.43 31.539-.742-.037-1.494-.07-2.251-.089l-.351-.008c-.168-.013-.39-.026-.619-.038-4.826-.274-8.488-4.276-8.34-9.111.139-4.491 3.335-7.396 6.437-8.282.563-.161 1.152-.265 1.751-.308.317-.022.669-.03 1.044-.022.003.001.354.022 1.097.126l3.097.432 3.124.079c83.424 2.137 166.057-8.302 245.6-31.025 343.159-98.032 581.18-403.729 592.287-760.688 14.01-450.466-341.082-828.388-791.563-842.45-.767-.025-1.532-.039-2.299-.051l-.379-.006-.601-.021c-4.745-.313-8.37-4.332-8.221-9.146.14-4.476 3.323-7.37 6.417-8.254.814-.232 1.685-.344 2.588-.331l1.211.025c.475.011.951.018 1.433.023l.405.006c56.613 1.762 113.027 9.228 167.653 22.188 53.218 12.626 105.391 30.618 155.069 53.479 48.79 22.45 95.674 49.819 139.35 81.349 43.273 31.238 83.777 66.83 120.383 105.788 36.607 38.958 69.612 81.594 98.102 126.725 28.752 45.553 53.152 94.047 72.526 144.135 19.726 51 34.442 104.189 43.735 158.089 9.541 55.332 13.484 112.115 11.721 168.771-2.834 91.114-20.195 180.213-51.604 264.82-30.371 81.813-73.348 158.143-127.739 226.871-53.788 67.967-117.505 126.974-189.384 175.382-72.758 48.999-152.234 86.008-236.223 109.997z" fill="#2f6df6"/><path d="m2658.23 675.751c43.834 410.166-253.164 778.212-663.324 822.045-410.186 43.827-778.236-253.158-822.062-663.324-43.831-410.149 253.153-778.211 663.343-822.047 410.159-43.823 778.215 253.168 822.043 663.326z" fill="none" stroke="#2f6df6" stroke-miterlimit="10" stroke-width="7"/><path d="m1995.895 1507.625c-77.397 8.265-155.677 4.433-232.675-11.395l-.026-.006c-.662-.149-1.325-.294-1.992-.428l-.303-.06c-.184-.044-.377-.091-.578-.137-4.696-1.092-7.637-5.668-6.661-10.411.905-4.402 4.552-6.722 7.763-7.063.584-.063 1.184-.064 1.783-.005.307.032.638.081.986.148.119.028.461.113 1.095.316l2.638.844 2.719.544c73.906 14.782 149.049 18.252 223.34 10.313 320.496-34.25 579.504-269.526 644.502-585.456 82.023-398.704-175.575-789.805-574.268-871.873-.688-.143-1.372-.275-2.063-.404l-.317-.061-.552-.115c-4.615-1.133-7.557-5.744-6.59-10.437.903-4.386 4.538-6.696 7.74-7.039.852-.091 1.732-.051 2.621.118.098.019 1.031.2 1.031.2.439.087.881.17 1.319.252l.328.062c99.949 20.567 192.864 60.079 276.157 117.437 40.043 27.574 77.623 59.241 111.699 94.121 33.761 34.561 64.377 72.572 90.996 112.982 26.62 40.409 49.459 83.545 67.885 128.208 18.594 45.076 32.854 92.104 42.382 139.777 19.822 99.181 19.445 200.151-1.12 300.109-16.63 80.828-45.904 157.609-87.01 228.209-39.748 68.268-89.891 129.696-149.04 182.58-58.493 52.296-124.456 95.063-196.053 127.114-72.476 32.442-149.091 53.151-227.714 61.551-.009.003-.013.004-.022.005z" fill="#2f6df6"/><path d="m2580.194 869.721c-63.078 367.027-411.771 613.426-778.796 550.348-367.043-63.089-613.447-411.772-550.361-778.799 63.076-367.013 411.762-613.428 778.81-550.346 367.018 63.085 613.428 411.778 550.347 778.797z" fill="none" stroke="#2f6df6" stroke-miterlimit="10" stroke-width="6.5"/><path d="m2032.023 1428.906c-6.072 1.051-12.241 2.031-18.341 2.917-70.956 10.306-142.61 9.397-212.976-2.699-69.285-11.912-136.352-34.554-199.328-67.292l-.018-.009c-.546-.297-1.078-.583-1.619-.859l-.246-.125c-.158-.089-.322-.182-.493-.275-3.869-2.139-5.301-6.903-3.253-10.844 1.538-2.959 4.021-3.953 5.832-4.266.93-.162 1.92-.169 2.781-.02.534.091 1.063.24 1.578.444.264.104.547.233.844.384.08.043.354.199.857.536l2.084 1.385 2.226 1.143c60.53 31.057 124.921 52.596 191.387 64.02 75.745 13.018 152.224 13.036 227.312.055 205.926-35.601 379.661-162.991 476.662-349.509 169.518-325.962 42.242-729.101-283.719-898.665-.543-.283-1.097-.563-1.652-.84l-.307-.154-.413-.217c-3.711-2.087-5.175-7.043-3.194-10.851 1.533-2.948 4.008-3.939 5.813-4.252.93-.16 1.917-.167 2.777-.02.776.134 1.547.391 2.291.764l.857.435c.352.179.702.355 1.057.53l.313.157c81.731 42.51 152.677 99.738 210.881 170.105 27.978 33.826 52.812 70.602 73.81 109.306 20.804 38.348 38.021 78.918 51.177 120.583 13.155 41.671 22.356 84.772 27.343 128.108 5.033 43.743 5.822 88.11 2.34 131.871-7.245 91.038-32.477 178.652-74.994 260.407-34.379 66.106-78.745 125.581-131.865 176.769-51.363 49.496-110.072 90.487-174.493 121.835-58.066 28.255-119.742 48.153-183.311 59.143z" fill="#2f6df6"/><path d="m2172.615 1304.979c-303.379 140.421-663.162 8.3-803.583-295.075-140.423-303.396-8.31-663.178 295.07-803.594 303.366-140.415 663.159-8.308 803.587 295.088 140.413 303.374 8.298 663.165-295.074 803.581z" fill="none" stroke="#2f6df6" stroke-miterlimit="10" stroke-width="6"/><path d="m1824.455 1362.799c-9.644-1.476-19.383-3.209-28.953-5.151-62.893-12.764-123.236-35.311-179.355-67.014-55.498-31.352-105.611-70.935-148.955-117.653-43.872-47.293-79.798-100.83-106.777-159.122-26.564-57.407-44.047-118.642-51.963-182.013l-.002-.017c-.059-.544-.119-1.085-.189-1.625l-.033-.26c-.016-.164-.033-.334-.049-.511-.467-4.698 2.847-8.842 7.543-9.429.848-.106 1.679-.099 2.471.022 3.338.512 5.543 2.888 6.494 4.942.242.524.435 1.081.565 1.655.071.302.131.638.178.993.001.01.032.311.046 1.033l.038 2.158.278 2.146c7.877 60.422 24.734 118.85 50.104 173.663 84.301 182.129 252.548 308.922 450.06 339.169 54.578 8.358 110.27 9.1 165.524 2.206 326.524-40.743 559.056-339.552 518.347-666.095-.065-.541-.141-1.088-.219-1.634l-.045-.331-.051-.398c-.457-4.624 2.936-8.849 7.578-9.428.844-.105 1.672-.097 2.461.024 3.331.509 5.531 2.88 6.479 4.929.349.757.589 1.579.712 2.439l.121.892c.044.336.094.687.145 1.039l.043.313c10.26 82.255 4.109 164.041-18.281 243.087-10.764 38.003-25.32 75.178-43.262 110.493-17.776 34.993-39.029 68.466-63.17 99.49-24.144 31.027-51.367 59.854-80.916 85.68-29.826 26.069-62.285 49.312-96.476 69.083-71.129 41.133-148.907 67.192-231.173 77.457-56.58 7.061-113.547 6.31-169.318-2.232z" fill="#2f6df6"/><path d="m1754.572 1262.742c-281.039-94.953-431.887-399.773-336.938-680.809 94.963-281.05 399.777-431.906 680.814-336.948 281.027 94.948 431.891 399.765 336.934 680.819-94.956 281.032-399.778 431.892-680.81 336.938z" fill="none" stroke="#2f6df6" stroke-miterlimit="10" stroke-width="5.5"/><path d="m1924.129 1303.422c-42.713 0-85.561-5.074-127.352-15.081-71.387-17.094-137.813-48.043-197.436-91.988-48.207-35.534-89.904-78.172-123.934-126.729-32.902-46.952-58.137-98.675-75.006-153.736-16.678-54.447-24.805-110.917-24.154-167.844.654-57.561 10.279-114.279 28.609-168.589l.07-.21c18.088-53.521 44.42-103.951 78.266-149.882l.033-.044c.283-.369.559-.734.83-1.105.002-.005.076-.108.152-.214.104-.13.213-.269.326-.413 1.811-2.33 4.525-3.668 7.449-3.668 2.029 0 3.984.649 5.65 1.876 3.867 2.851 4.482 7.431 3.377 10.705-.203.601-.473 1.19-.803 1.753-.17.284-.365.585-.586.886-.064.087-.289.372-.729.85l-1.236 1.349-1.076 1.478c-31.846 43.706-56.691 91.617-73.852 142.402-74.023 219.094 1.402 458.552 187.688 595.861 91.521 67.458 199.965 103.115 313.605 103.115 168.078 0 327.729-80.458 427.063-215.223.27-.365.551-.755.828-1.146l.166-.231.234-.316c1.809-2.329 4.551-3.664 7.525-3.664 2.041 0 3.988.64 5.629 1.849 3.857 2.845 4.471 7.416 3.369 10.683-.297.874-.727 1.712-1.285 2.494l.023-.031c-.107.145-.486.669-.486.669-.174.241-.355.495-.535.75l-.188.263c-43.918 59.583-98.215 108.809-161.35 146.264-60.994 36.186-127.645 59.942-198.109 70.607-27.453 4.152-55.304 6.26-82.775 6.26z" fill="#2f6df6"/><path d="m1517.963 984.395c-126.209-224.459-46.547-508.742 177.91-634.95 224.474-126.209 508.754-46.555 634.959 177.906 126.203 224.452 46.553 508.74-177.922 634.955-224.456 126.201-508.744 46.546-634.947-177.911z" fill="none" stroke="#2f6df6" stroke-miterlimit="10" stroke-width="5"/><path d="m1923.771 1230.477c-30.851 0-61.929-3.085-92.376-9.172-60.21-12.037-116.865-35.351-168.39-69.295s-95.306-76.798-130.127-127.372c-36.043-52.342-60.869-110.73-73.788-173.543-10.446-50.792-12.589-102.381-6.366-153.334 6.02-49.276 19.732-97.181 40.767-142.379 20.797-44.698 48.27-85.748 81.657-122.01 33.787-36.694 72.863-67.641 116.151-91.986l.084-.046c42.626-23.963 88.786-41.169 137.173-51.128l.033-.006c.406-.076.801-.152 1.193-.235l.222-.047c.136-.022.269-.046.405-.071.518-.092 1.047-.139 1.57-.139 4.113 0 7.573 2.834 8.408 6.895.88 4.28-1.489 7.75-4.229 9.29-.507.285-1.049.521-1.609.696-.291.092-.608.174-.941.245-.133.025-.456.078-1.002.13l-1.547.149-1.521.321c-45.723 9.667-89.383 26.081-129.766 48.786-174.211 97.954-264.186 295.385-223.893 491.284 43.572 211.841 232.094 365.595 448.264 365.595 30.836 0 61.909-3.175 92.352-9.437.385-.079.788-.167 1.188-.256l.26-.057.314-.065c.51-.092 1.025-.139 1.539-.139 4.088 0 7.654 2.907 8.477 6.912.877 4.271-1.488 7.734-4.223 9.272-.734.413-1.541.717-2.396.905l1.415 5.581-1.422-5.58-1.688.372c-31.804 6.543-64.18 9.864-96.188 9.864z" fill="#2f6df6"/><path d="m1528.639 737.713c15.273-218.956 205.167-384.075 424.121-368.803 218.965 15.277 384.088 205.166 368.811 424.122-15.273 218.948-205.161 384.076-424.129 368.801-218.953-15.276-384.079-205.169-368.803-424.12z" fill="none" stroke="#2f6df6" stroke-miterlimit="10" stroke-width="4.5"/><path d="m1779.029 1144.877c-.211 0-.423-.007-.637-.022-.877-.062-1.749-.256-2.593-.579l-1.401-.538c-51.122-20.359-96.738-50.125-135.56-88.463-37.501-37.036-67.132-80.482-88.065-129.131-20.936-48.645-32.116-100.03-33.232-152.728-1.152-54.544 8.589-108.129 28.954-159.265 16.468-41.35 39.269-79.355 67.771-112.964 27.561-32.498 59.995-60.382 96.401-82.876 36.003-22.243 75.069-38.72 116.117-48.974 32.28-8.063 65.429-12.151 98.522-12.151 9.355 0 18.837.33 28.183.981l.065.007h.049c41.875 2.931 83.08 12.369 122.465 28.051l.039.016c.314.131.606.252.902.369l.228.088c.117.051.231.102.349.152 4.506 1.928 6.612 7.006 4.8 11.561-1.372 3.444-4.645 5.67-8.339 5.67-.209 0-.423-.008-.637-.022-.604-.042-1.209-.149-1.797-.316-.312-.088-.633-.198-.96-.326-.071-.029-.36-.149-.915-.442l-1.098-.579-1.15-.453c-37.059-14.522-75.801-23.277-115.156-26.022-9.153-.639-18.434-.962-27.579-.962-160.237 0-302.185 96.442-361.63 245.698-79.52 199.669 18.223 426.81 217.87 506.369.331.133.661.26.993.385l.234.089.359.145c4.399 1.88 6.563 7.08 4.771 11.573-1.368 3.438-4.635 5.659-8.323 5.659z" fill="#2f6df6"/><circle cx="1916.496" cy="756.488" fill="none" r="61.982" stroke="#2f6df6" stroke-miterlimit="10"/><path d="m1886.294 818.55c-6.396-3.114-12.269-7.207-17.458-12.164l-.063-.061c-.024-.021-.05-.043-.073-.065-.074-.072-.119-.12-.162-.167-2.688-2.736-2.721-7.015-.084-9.776 2.119-2.218 5.395-2.807 8.15-1.464.432.21.844.467 1.226.762.187.146.368.301.545.469.153.146.296.297.442.464 4.063 3.822 8.64 6.985 13.605 9.404 21.583 10.508 47.23 5.896 63.824-11.475 20.94-21.923 20.141-56.796-1.783-77.738l-.029-.027-.222-.159-.104-.156c-2.6-2.69-2.633-6.996-.027-9.726 2.118-2.216 5.393-2.804 8.146-1.463.607.296 1.168.678 1.668 1.136.051.044.101.089.147.136l.117.11c13.327 12.729 20.9 29.889 21.322 48.316.423 18.427-6.355 35.915-19.085 49.243-10.309 10.792-23.51 17.826-38.176 20.344-14.377 2.467-28.875.413-41.926-5.941.001-.001.001-.001 0-.002z" fill="#2f6df6"/><path d="m1660.883 558.004c114.07-145.493 324.498-170.961 469.988-56.893 145.496 114.077 170.969 324.5 56.895 469.991-114.063 145.486-324.49 170.963-469.99 56.888-145.487-114.071-170.96-324.498-56.893-469.986z" fill="none" stroke="#2f6df6" stroke-miterlimit="10" stroke-width="4"/><path d="m1648.295 962.237c-1.99 0-3.877-.654-5.455-1.892-.682-.533-1.285-1.172-1.795-1.897-.041-.062-.721-1.032-.721-1.032-26.068-38.391-43.84-80.732-52.811-125.836-8.668-43.574-8.814-87.9-.432-131.748 8.383-43.844 24.867-84.991 48.994-122.298 24.979-38.614 57.104-71.407 95.484-97.468 31.035-21.073 64.914-36.822 100.691-46.808 29.91-8.347 60.855-12.579 91.977-12.579 4.803 0 9.672.102 14.477.304 35.637 1.492 70.689 8.458 104.186 20.702 33.883 12.388 65.4 29.905 93.68 52.067l.064.053c27.861 21.846 52.17 47.919 72.258 77.495l.027.045c.15.228.301.455.453.679l.115.162c.057.093.113.187.174.278 2.615 4.072 1.533 9.394-2.471 12.112-1.484 1.009-3.211 1.542-4.988 1.542-1.996 0-3.885-.655-5.465-1.895-.473-.37-.91-.792-1.297-1.255-.203-.241-.406-.508-.602-.792-.123-.182-.305-.497-.496-.853l-.455-.855-.549-.797c-18.848-27.432-41.568-51.662-67.531-72.018-57.283-44.912-128.652-69.647-200.959-69.647-65.391 0-128.777 19.571-183.305 56.597-148.711 100.979-187.543 304.122-86.561 452.838.127.192.299.436.469.678l.125.178.182.269c2.586 3.995 1.477 9.445-2.479 12.132-1.482 1.007-3.207 1.539-4.984 1.539z" fill="#2f6df6"/><path d="m1895.401 493.813c149.456-11.452 279.9 100.433 291.353 249.886 11.449 149.464-100.43 279.909-249.887 291.357-149.45 11.452-279.899-100.426-291.352-249.89-11.449-149.454 100.433-279.902 249.886-291.353z" fill="none" stroke="#2f6df6" stroke-miterlimit="10" stroke-width="3.5"/><path d="m2195.936 743.02c2.205 28.797-.09 57.788-6.82 86.164l-.016.064c-.051.193-.101.388-.146.582 0 0-.038.171-.044.203-.027.093-.051.185-.076.277-1.234 4.669-5.885 7.458-10.584 6.344-3.764-.893-6.492-4.082-6.787-7.934-.045-.6-.029-1.207.05-1.806.04-.309.099-.629.173-.949.059-.242.155-.563.292-.945l.229-.652.156-.673c6.046-26.128 8.081-52.812 6.051-79.311-8.761-114.337-89.666-208.952-201.32-235.436-140.914-33.423-282.752 54.03-316.179 194.949-.044.181-.091.398-.14.618l-.041.183-.066.28c-1.203 4.644-5.925 7.504-10.611 6.392-3.76-.891-6.483-4.077-6.778-7.925-.065-.863-.003-1.738.19-2.603.006-.032.225-1.013.225-1.013 8.738-36.836 24.416-70.839 46.607-101.081 21.438-29.213 48.021-53.716 79.014-72.823 30.989-19.108 64.82-31.856 100.549-37.889 36.986-6.245 74.407-4.983 111.226 3.75 58.983 13.99 110.726 45.825 149.635 92.062 18.729 22.26 33.847 47.179 44.929 74.071 11.219 27.224 18.044 55.853 20.283 85.09-.001.004-.001.006-.001.011z" fill="#2f6df6"/><path d="m2060.373 600.748c90.353 80.008 98.732 218.121 18.725 308.472-80.016 90.355-218.125 98.739-308.476 18.728-90.349-80.006-98.736-218.118-18.72-308.476 80.008-90.35 218.121-98.734 308.471-18.724z" fill="none" stroke="#2f6df6" stroke-miterlimit="10" stroke-width="3"/><path d="m2085.908 915.275c-15.535 17.541-33.719 32.567-54.051 44.662l-.501.293c-.04.024-.08.049-.12.075-.078.041-.155.083-.232.125-4.193 2.354-9.419.958-11.884-3.182-1.972-3.316-1.581-7.483.975-10.368.397-.45.845-.859 1.331-1.22.246-.184.513-.361.787-.527.227-.134.52-.285.873-.447l.42-.192.393-.238c18.35-11.052 34.786-24.714 48.859-40.605 60.717-68.564 70.025-167.552 23.169-246.317-59.14-99.405-188.126-132.165-287.536-73.025-.123.073-.564.345-.564.345l-.16.096c-4.17 2.415-9.541 1.025-12.012-3.126-1.97-3.312-1.577-7.475.977-10.357.574-.649 1.247-1.212 1.999-1.673.033-.02.733-.449.733-.449 26.386-15.698 55.048-25.755 85.193-29.896 29.121-4 58.402-2.343 87.027 4.928s55.148 19.785 78.83 37.197c24.516 18.024 44.903 40.539 60.597 66.919 25.142 42.261 35.802 90.377 30.825 139.146-2.396 23.477-8.383 46.35-17.795 67.984-9.527 21.903-22.356 42.04-38.127 59.848-.002 0-.004.002-.006.004z" fill="#2f6df6"/><path d="m2079.367 767.917c-4.729 90.253-81.729 159.585-171.983 154.857-90.256-4.729-159.59-81.73-154.859-171.982 4.728-90.249 81.729-159.586 171.985-154.857 90.252 4.729 159.587 81.731 154.857 171.982z" fill="none" stroke="#2f6df6" stroke-miterlimit="10" stroke-width="2"/><path d="m1949.693 927.994c-17.361 3.478-35.168 4.232-52.932 2.243l-.366-.044c-.067-.007-.128-.013-.184-.017-.077-.014-.149-.025-.22-.035-4.399-.607-7.464-4.543-6.969-8.961.396-3.536 3.002-6.381 6.49-7.08.545-.109 1.102-.162 1.66-.158.279.003.568.021.858.052.257.029.554.08.894.156l.252.056.256.027c15.795 1.681 31.629.966 47.062-2.127 66.591-13.347 116.413-67.693 123.979-135.234 9.549-85.241-52.032-162.357-137.275-171.907-.099-.012-.602-.062-.602-.062-4.437-.521-7.637-4.549-7.14-8.993.396-3.532 3.002-6.375 6.485-7.073.787-.157 1.595-.196 2.402-.117.029.003.67.067.67.067 45.598 5.107 86.48 27.668 115.115 63.528 28.634 35.859 41.592 80.72 36.482 126.319-4.137 36.926-19.667 70.771-44.914 97.875-12.152 13.047-26.191 24.093-41.73 32.83-15.732 8.846-32.645 15.123-50.27 18.655.003-.001-.003-.001-.003 0z" fill="#2f6df6"/><path d="m3616.15 754.347c.035 939.216-761.383 1700.643-1700.588 1700.678-939.261.017-1700.697-761.372-1700.712-1700.587-.037-939.181 761.353-1700.643 1700.623-1700.679 939.197-.018 1700.65 761.39 1700.677 1700.588z" fill="none" stroke="#2f6df6" stroke-miterlimit="10" stroke-width="12"/><path d="m1915.424 2466.241c-176.035-.006-351.166-27.432-520.527-81.517-.934-.318-2.545-.867-4.551-1.496l-.547-.171c-.344-.123-.701-.248-1.064-.375-4.594-1.617-7.041-6.5-5.566-11.116 1.582-4.951 6.115-6.271 8.545-6.271.563 0 1.143.062 1.725.184.285.06.604.14.951.242.225.087.666.264 1.381.58l6.359 2.813 6.637 2.081c164.842 51.684 335.26 77.887 506.521 77.88 738.818-.028 1386.424-473.204 1611.486-1177.438 283.986-888.624-207.885-1842.769-1096.467-2126.948-1.986-.64-3.707-1.158-4.846-1.502l-.611-.185-.885-.287c-4.457-1.699-6.807-6.58-5.352-11.13 1.572-4.914 6.074-6.227 8.488-6.227.85 0 1.715.138 2.643.419l.496.151 1.73.536c.994.307 1.994.609 2.992.907l.646.193c110.498 35.324 217.357 81.744 317.588 137.964 97.672 54.784 190.27 119.547 275.223 192.489 83.432 71.638 160.346 151.889 228.607 238.529 67.637 85.845 127.365 178.702 177.529 275.988 50.166 97.29 91.17 199.799 121.881 304.683 30.992 105.851 51.764 215.05 61.738 324.563 10.158 111.504 9.217 224.496-2.795 335.835-12.334 114.304-36.502 228.322-71.836 338.886-56.824 177.804-141.115 343.463-250.531 492.375-105.801 143.994-233.342 270.106-379.082 374.835-144.127 103.573-302.77 183.918-471.514 238.804-170.803 55.555-348.092 83.724-526.938 83.724h-.054z" fill="#2f6df6"/><path d="m462.764-274.48c574.246-807.01 1694.037-995.678 2501.039-421.436 807.038 574.29 995.729 1694.061 421.467 2501.062-574.225 806.98-1694.014 995.694-2501.07 421.415-806.986-574.252-995.68-1694.052-421.436-2501.041z" fill="none" stroke="#2f6df6" stroke-miterlimit="10" stroke-width="12.5"/><path d="m2970.781-705.468c151.247 107.64 284.954 238.287 397.4 388.313.609.844 1.658 2.301 2.997 4.068l.364.481c.221.316.451.642.686.973 2.959 4.199 2.074 9.889-2.016 12.954-4.385 3.286-9.088 1.65-11.176.163-.482-.344-.945-.751-1.371-1.212-.207-.226-.43-.49-.666-.79-.143-.211-.412-.634-.834-1.342l-3.742-6.305-4.432-5.847c-110.033-145.198-240.438-271.912-387.592-376.624-634.82-451.72-1480.574-441.135-2104.552 26.34-787.347 589.88-948.126 1710.447-358.402 2497.936 1.314 1.764 2.477 3.262 3.245 4.252l.409.532.588.789c2.789 4.184 1.826 9.815-2.208 12.835-4.354 3.262-9.025 1.636-11.099.161-.73-.521-1.391-1.168-2.017-1.976l-.334-.435-1.157-1.518c-.668-.873-1.341-1.741-2.018-2.61l-.436-.56c-73.344-97.915-136.775-203.138-188.52-312.729-50.424-106.791-90.388-219.056-118.781-333.672-27.883-112.567-44.899-228.55-50.576-344.729-5.624-115.115-.168-231.42 16.215-345.684 16.385-114.265 43.832-227.415 81.574-336.31 38.094-109.898 87.014-216.425 145.404-316.62 59.452-102.017 129.348-198.526 207.748-286.845 80.486-90.671 170.968-173.86 268.934-247.252 157.539-118.027 331.256-208.825 516.316-269.874 178.949-59.03 365.646-89.403 554.904-90.277 187.166-.864 372.6 27.102 551.146 83.121 180.725 56.702 350.278 140.901 503.947 250.257z" fill="#2f6df6"/><path d="m65.531 1156.867c-215.922-1026.833 441.514-2034.314 1468.338-2250.235 1026.887-215.914 2034.371 441.491 2250.274 1468.328 215.916 1026.794-441.484 2034.309-1468.376 2250.246-1026.818 215.898-2034.328-441.523-2250.236-1468.339z" fill="none" stroke="#2f6df6" stroke-miterlimit="10" stroke-width="13"/><path d="m1531.443-1105.663c192.459-40.456 390.232-50.727 587.825-30.524 1.097.134 2.983.363 5.321.59l.637.062c.403.055.824.109 1.25.165 5.396.713 9.19 5.49 8.642 10.874-.593 5.776-5.245 8.263-7.903 8.822-.615.128-1.262.194-1.926.194-.326.001-.693-.014-1.096-.046-.266-.042-.789-.135-1.643-.315l-7.598-1.615-7.737-.75c-192.101-18.615-384.44-8.091-571.679 31.281-807.739 169.852-1407.003 836.03-1491.191 1657.698-106.228 1036.806 650.851 1966.91 1687.657 2073.355 2.318.244 4.317.416 5.641.529l.711.062 1.034.11c5.262.832 8.953 5.628 8.409 10.938-.59 5.735-5.21 8.204-7.85 8.759-.93.195-1.906.243-2.984.149l-.579-.052-2.015-.188c-1.158-.106-2.318-.208-3.48-.304l-.749-.063c-128.929-13.221-256.426-39.409-378.931-77.837-119.377-37.444-235.5-86.965-345.146-147.186-107.683-59.144-210.218-129.205-304.763-208.236-93.679-78.307-180.322-166.099-257.531-260.93-77.207-94.837-145.6-197.484-203.283-305.093-58.214-108.603-106.024-223.216-142.102-340.653-36.734-119.573-61.678-243.321-74.137-367.81-12.791-127.803-12.574-258.015.643-387.015 21.256-207.454 75.334-407.943 160.729-595.899 82.574-181.747 193.028-348.941 328.292-496.94 133.768-146.364 288.741-270.67 460.614-369.463 173.969-99.999 361.322-171.546 556.855-212.655z" fill="#2f6df6"/><path d="m405.062 2056.58c-718.636-839.967-620.234-2103.519 219.725-2822.149 840.02-718.653 2103.561-620.281 2822.179 219.697 718.608 839.932 620.257 2103.499-219.757 2822.175-839.963 718.607-2103.533 620.232-2822.147-219.723z" fill="none" stroke="#2f6df6" stroke-miterlimit="10" stroke-width="13"/><path d="m616.33-775.706c157.442-134.681 335.054-244.146 527.904-325.355 1.08-.431 2.94-1.173 5.215-2.145l.621-.265c.4-.153.815-.314 1.238-.479 5.346-2.068 11.27.429 13.483 5.684 2.372 5.638-.671 10.289-2.846 12.148-.504.43-1.067.817-1.682 1.153-.3.166-.647.338-1.035.511-.268.096-.798.274-1.679.538l-7.838 2.35-7.53 3.218c-186.971 79.9-359.433 186.854-512.596 317.893-660.743 565.3-877.901 1483.978-540.372 2286.011 425.91 1012.028 1595.844 1489.036 2607.981 1063.328 2.267-.946 4.201-1.799 5.483-2.363l.688-.303 1.012-.42c5.283-1.89 11.119.677 13.301 5.86 2.354 5.598-.67 10.217-2.827 12.063-.761.649-1.64 1.188-2.684 1.646l-.562.246-1.956.845c-1.126.486-2.249.979-3.372 1.477l-.725.32c-125.852 52.953-256.938 93.195-389.595 119.602-129.27 25.734-261.636 38.661-393.423 38.422-129.43-.233-259.619-13.161-386.957-38.418-126.174-25.027-250.635-62.375-369.936-111.004-119.304-48.628-234.407-108.936-342.119-179.242-108.706-70.955-210.834-152.725-303.545-243.037-94.396-91.953-180.006-193.727-254.449-302.495-76.427-111.664-142.047-232.13-195.039-358.046-85.219-202.497-136.58-415.147-152.658-632.043-15.548-209.731 2.03-420.104 52.244-625.276 49.656-202.904 130.066-396.139 238.99-574.334 110.252-180.369 247.258-341.207 407.212-478.045z" fill="#2f6df6"/></svg>