<?xml version="1.0" encoding="utf-8"?>
<!-- Generator: Adobe Illustrator 16.0.0, SVG Export Plug-In . SVG Version: 6.00 Build 0)  -->
<!DOCTYPE svg PUBLIC "-//W3C//DTD SVG 1.1//EN" "http://www.w3.org/Graphics/SVG/1.1/DTD/svg11.dtd">
<svg version="1.1" xmlns="http://www.w3.org/2000/svg" xmlns:xlink="http://www.w3.org/1999/xlink" x="0px" y="0px" width="3840px"
	 height="1520px" viewBox="0 0 3840 1520" enable-background="new 0 0 3840 1520" xml:space="preserve">
<g id="Layer_1">
	<image overflow="visible" width="3840" height="1520" xlink:href="8175AF77.jpg"  transform="matrix(1 0 0 1 -4554.5 3126.3955)">
	</image>
	<circle fill="none" stroke="#2F6DF6" stroke-miterlimit="10" cx="-5099.063" cy="3545.379" r="106.543"/>
	<circle fill="none" stroke="#2F6DF6" stroke-miterlimit="10" cx="-5024.586" cy="3490.759" r="13.896"/>
	<circle fill="none" stroke="#2F6DF6" stroke-miterlimit="10" cx="-5900.245" cy="3730.269" r="78.349"/>
	<circle fill="none" stroke="#2F6DF6" stroke-miterlimit="10" cx="-5900.245" cy="3730.269" r="106.543"/>
	<circle fill="none" stroke="#2F6DF6" stroke-miterlimit="10" cx="-5642.655" cy="3689.545" r="13.896"/>
	<circle fill="none" stroke="#2F6DF6" stroke-miterlimit="10" cx="-5975.462" cy="3783.913" r="13.896"/>
	<g>
		<circle fill="none" stroke="#2F6DF6" stroke-width="3" stroke-miterlimit="10" cx="-2652.96" cy="4005.407" r="92.833"/>
		<path fill="#2F6DF6" d="M-2590.017,3959.419c0.006,0.008,0.01,0.016,0.015,0.023c0.005,0.006,0.011,0.012,0.016,0.018
			c25.254,34.889,17.456,83.643-17.425,108.908c-34.878,25.266-83.634,17.477-108.91-17.393c-0.006-0.006-0.01-0.014-0.015-0.021
			c-0.006-0.006-0.011-0.014-0.017-0.02c-4.622-6.355-13.517-7.771-19.885-3.16c-6.373,4.617-7.798,13.527-3.182,19.9
			c34.506,47.635,101.095,58.277,148.728,23.773c47.632-34.504,58.276-101.092,23.771-148.729
			c-4.617-6.371-13.526-7.797-19.901-3.18C-2593.187,3944.153-2594.614,3953.048-2590.017,3959.419z"/>
		<rect x="-2759.258" y="3899.108" fill="none" width="212.597" height="212.598"/>
	</g>
	<g>
		<path fill="none" stroke="#2F6DF6" stroke-miterlimit="10" d="M-6312.756,3661.559c0,102.363-82.986,185.348-185.351,185.348
			c-102.367,0-185.352-82.984-185.352-185.348c0-102.36,82.984-185.348,185.352-185.348
			C-6395.742,3476.211-6312.756,3559.198-6312.756,3661.559z"/>
		<path fill="none" stroke="#2F6DF6" stroke-miterlimit="10" d="M-6327.123,3661.798c0,94.43-76.554,170.982-170.982,170.982
			c-94.433,0-170.985-76.553-170.985-170.982c0-94.424,76.553-170.979,170.985-170.979
			C-6403.677,3490.818-6327.123,3567.374-6327.123,3661.798z"/>
		<path fill="none" stroke="#2F6DF6" stroke-miterlimit="10" d="M-6298.316,3661.747c0,110.341-89.45,199.79-199.789,199.79
			c-110.343,0-199.793-89.449-199.793-199.79c0-110.333,89.45-199.786,199.793-199.786
			C-6387.767,3461.961-6298.316,3551.414-6298.316,3661.747z"/>
		<circle fill="none" stroke="#2F6DF6" stroke-miterlimit="10" cx="-6498.107" cy="3476.211" r="14.25"/>
		<circle fill="none" stroke="#2F6DF6" stroke-miterlimit="10" cx="-6498.107" cy="3846.906" r="14.25"/>
		<rect x="-6697.898" y="3461.961" fill="none" stroke="#2F6DF6" stroke-miterlimit="10" width="399.582" height="399.582"/>
	</g>
	<circle fill="none" stroke="#2F6DF6" stroke-miterlimit="10" cx="-2652.75" cy="4005.396" r="14.25"/>
	<g>
		<path fill="none" stroke="#2F6DF6" stroke-miterlimit="10" d="M-2652.748,6032.55c-272.856,0-538.529-53.849-789.638-160.048
			c-241.666-102.219-458.301-248.143-643.892-433.721c-185.62-185.635-331.552-402.266-433.747-643.879
			c-106.218-251.13-160.076-516.823-160.076-789.7c0-272.884,53.859-538.583,160.082-789.715
			c102.199-241.626,248.125-458.246,433.724-643.842c185.585-185.588,402.207-331.512,643.847-433.717
			c251.121-106.217,516.814-160.074,789.7-160.074c272.878,0,538.573,53.857,789.705,160.078
			c241.639,102.209,458.259,248.132,643.844,433.715c185.596,185.6,331.52,402.219,433.721,643.842
			c106.222,251.13,160.08,516.828,160.08,789.713c0,272.884-53.86,538.583-160.084,789.72
			c-102.198,241.624-248.126,458.247-433.729,643.85c-185.599,185.598-402.229,331.521-643.878,433.72
			C-2114.179,5978.697-2379.86,6032.55-2652.748,6032.55z"/>
		<path fill="none" stroke="#2F6DF6" stroke-miterlimit="10" d="M-2652.748,6018.424c-537.69,0-1043.196-209.388-1423.4-589.592
			c-380.199-380.19-589.585-885.693-589.585-1423.391c0-537.688,209.391-1043.195,589.601-1423.401
			c380.196-380.195,885.697-589.578,1423.384-589.578c537.685,0,1043.188,209.386,1423.389,589.586
			c380.205,380.204,589.594,885.709,589.594,1423.394c0,537.687-209.389,1043.191-589.595,1423.396
			C-1609.55,5809.037-2115.052,6018.424-2652.748,6018.424z"/>
		<path fill="none" stroke="#2F6DF6" stroke-miterlimit="10" d="M-2652.748,6047.181c-274.799,0-542.361-54.229-795.254-161.181
			c-243.393-102.943-461.578-249.915-648.499-436.834c-186.914-186.908-333.879-405.065-436.815-648.411
			c-106.982-252.949-161.225-520.547-161.225-795.364c0-274.828,54.239-542.413,161.211-795.322
			c102.94-243.358,249.905-461.522,436.812-648.432c186.922-186.923,405.089-333.89,648.439-436.818
			c252.909-106.974,520.496-161.214,795.332-161.214c274.833,0,542.423,54.241,795.334,161.217
			c243.34,102.924,461.499,249.887,648.418,436.803c186.914,186.907,333.88,405.068,436.813,648.423
			c106.979,252.914,161.223,520.507,161.223,795.344c0,274.827-54.239,542.412-161.209,795.321
			c-102.931,243.355-249.902,461.528-436.834,648.457c-186.928,186.922-405.096,333.886-648.445,436.811
			C-2110.333,5992.944-2377.912,6047.181-2652.748,6047.181z"/>
		<rect x="-4694.541" y="1963.604" fill="none" stroke="#2F6DF6" stroke-miterlimit="10" width="4083.582" height="4083.582"/>
	</g>
	<g>
		<path fill="none" stroke="#2F6DF6" stroke-miterlimit="10" d="M-2652.748,5947.55c-261.418,0-515.952-51.589-756.529-153.335
			c-231.534-97.933-439.088-237.74-616.899-415.54c-177.84-177.854-317.654-385.402-415.563-616.885
			c-101.763-240.597-153.361-495.149-153.361-756.588c0-261.446,51.6-516.004,153.367-756.602
			c97.914-231.495,237.723-439.034,415.542-616.851c177.808-177.81,385.348-317.616,616.855-415.535
			c240.587-101.763,495.14-153.36,756.588-153.36c261.44,0,515.995,51.599,756.593,153.363
			c231.506,97.923,439.045,237.729,616.853,415.534c177.817,177.821,317.624,385.358,415.539,616.851
			c101.766,240.596,153.365,495.152,153.365,756.6S-762,4521.209-863.768,4761.809c-97.914,231.496-237.726,439.037-415.549,616.858
			c-177.818,177.818-385.367,317.625-616.882,415.537C-2136.756,5895.956-2391.298,5947.55-2652.748,5947.55z"/>
		<path fill="none" stroke="#2F6DF6" stroke-miterlimit="10" d="M-2652.748,5933.424c-514.985,0-999.146-200.546-1363.295-564.696
			c-364.146-364.136-564.69-848.294-564.69-1363.286c0-514.984,200.549-999.146,564.705-1363.297
			c364.142-364.142,848.298-564.683,1363.28-564.683c514.98,0,999.138,200.544,1363.285,564.69
			c364.15,364.149,564.697,848.309,564.697,1363.289c0,514.982-200.547,999.142-564.698,1363.291
			C-1653.6,5732.879-2137.758,5933.424-2652.748,5933.424z"/>
		<path fill="none" stroke="#2F6DF6" stroke-miterlimit="10" d="M-2652.748,5962.181c-263.362,0-519.785-51.97-762.146-154.467
			c-233.259-98.658-442.362-239.513-621.503-418.652c-179.136-179.13-319.985-388.207-418.635-621.421
			c-102.525-242.413-154.509-498.869-154.509-762.25c0-263.39,51.98-519.834,154.497-762.21
			c98.654-233.227,239.501-442.309,418.63-621.44c179.143-179.143,388.228-319.992,621.447-418.637
			c242.375-102.518,498.822-154.499,762.219-154.499s519.845,51.982,762.221,154.502
			c233.207,98.638,442.286,239.483,621.427,418.622c179.137,179.131,319.985,388.21,418.633,621.431
			c102.524,242.383,154.508,498.834,154.508,762.231c0,263.39-51.979,519.834-154.495,762.21
			c-98.645,233.225-239.499,442.314-418.651,621.464c-179.149,179.144-388.236,319.99-621.453,418.63
			C-2132.912,5910.204-2389.35,5962.181-2652.748,5962.181z"/>
		<rect x="-4609.541" y="2048.604" fill="none" stroke="#2F6DF6" stroke-miterlimit="10" width="3913.582" height="3913.582"/>
	</g>
	<g>
		<path fill="none" stroke="#2F6DF6" stroke-miterlimit="10" d="M-2652.748,5845.55c-247.695,0-488.86-48.879-716.797-145.279
			c-219.374-92.788-416.03-225.255-584.508-393.723c-168.502-168.516-300.976-365.165-393.744-584.492
			c-96.417-227.956-145.303-469.14-145.303-716.854c0-247.722,48.889-488.91,145.31-716.867
			c92.771-219.337,225.24-415.979,393.724-584.46c168.474-168.476,365.116-300.941,584.465-393.718
			c227.947-96.416,469.131-145.303,716.854-145.303c247.716,0,488.901,48.888,716.858,145.306
			c219.349,92.78,415.989,225.246,584.463,393.718c168.482,168.485,300.948,365.126,393.721,584.46
			c96.419,227.953,145.308,469.142,145.308,716.864c0,247.722-48.89,488.911-145.312,716.871
			c-92.772,219.34-225.243,415.983-393.731,584.468c-168.483,168.484-365.134,300.95-584.487,393.719
			C-2163.848,5796.666-2405.021,5845.55-2652.748,5845.55z"/>
		<path fill="none" stroke="#2F6DF6" stroke-miterlimit="10" d="M-2652.748,5831.424c-487.741,0-946.287-189.937-1291.17-534.821
			c-344.88-344.871-534.815-803.414-534.815-1291.161c0-487.738,189.939-946.285,534.83-1291.172
			c344.876-344.876,803.418-534.808,1291.156-534.808c487.735,0,946.278,189.935,1291.16,534.815
			c344.885,344.884,534.822,803.429,534.822,1291.164c0,487.737-189.938,946.283-534.822,1291.166
			C-1706.46,5641.488-2165.003,5831.424-2652.748,5831.424z"/>
		<path fill="none" stroke="#2F6DF6" stroke-miterlimit="10" d="M-2652.748,5860.181c-249.639,0-492.695-49.26-722.416-146.411
			c-221.097-93.514-419.301-227.026-589.108-396.833c-169.801-169.796-303.311-367.976-396.818-589.033
			c-97.178-229.769-146.451-472.855-146.451-722.513c0-249.666,49.27-492.741,146.439-722.476
			c93.512-221.068,227.019-419.253,396.814-589.051c169.807-169.808,367.994-303.316,589.056-396.818
			c229.734-97.171,472.813-146.441,722.484-146.441c249.672,0,492.751,49.271,722.486,146.444
			c221.049,93.495,419.23,227,589.038,396.805c169.803,169.798,303.311,367.979,396.815,589.042
			c97.177,229.74,146.449,472.823,146.449,722.495c0,249.664-49.269,492.74-146.438,722.477
			c-93.502,221.067-227.016,419.259-396.832,589.071c-169.813,169.808-368.002,303.315-589.063,396.813
			C-2160.005,5810.915-2403.074,5860.181-2652.748,5860.181z"/>
		<rect x="-4507.541" y="2150.604" fill="none" stroke="#2F6DF6" stroke-miterlimit="10" width="3709.582" height="3709.582"/>
	</g>
	<g>
		<path fill="none" stroke="#2F6DF6" stroke-miterlimit="10" d="M-2652.748,5755.55c-235.585,0-464.956-46.487-681.74-138.171
			c-208.646-88.25-395.686-214.24-555.928-374.473c-160.265-160.277-286.26-347.312-374.491-555.91
			c-91.698-216.801-138.193-446.189-138.193-681.794c0-235.61,46.497-465.004,138.2-681.807
			c88.234-208.609,214.226-395.636,374.473-555.881c160.239-160.24,347.266-286.229,555.886-374.467
			c216.793-91.698,446.182-138.193,681.794-138.193c235.604,0,464.995,46.496,681.799,138.196
			c208.619,88.242,395.646,214.231,555.884,374.468c160.243,160.246,286.233,347.271,374.47,555.88
			c91.701,216.8,138.197,446.191,138.197,681.804c0,235.611-46.498,465.006-138.201,681.811
			c-88.235,208.612-214.229,395.64-374.48,555.888c-160.245,160.246-347.279,286.236-555.905,374.468
			C-2187.754,5709.059-2417.134,5755.55-2652.748,5755.55z"/>
		<path fill="none" stroke="#2F6DF6" stroke-miterlimit="10" d="M-2652.748,5741.424c-463.702,0-899.647-180.575-1227.53-508.461
			c-327.882-327.873-508.455-763.815-508.455-1227.521c0-463.698,180.578-899.645,508.469-1227.532
			c327.878-327.877,763.818-508.447,1227.516-508.447c463.695,0,899.638,180.572,1227.521,508.455
			c327.887,327.886,508.462,763.828,508.462,1227.524c0,463.698-180.575,899.642-508.462,1227.526
			C-1753.101,5560.85-2189.043,5741.424-2652.748,5741.424z"/>
		<path fill="none" stroke="#2F6DF6" stroke-miterlimit="10" d="M-2652.748,5770.181c-237.529,0-468.791-46.868-687.36-139.303
			c-210.366-88.975-398.953-216.011-560.525-377.581c-161.566-161.562-288.599-350.127-377.568-560.456
			c-92.46-218.612-139.34-449.903-139.34-687.45c0-237.556,46.877-468.836,139.33-687.415
			c88.974-210.342,216.004-398.911,377.563-560.472c161.571-161.571,350.142-288.604,560.475-377.567
			c218.581-92.454,449.864-139.332,687.425-139.332c237.56,0,468.844,46.879,687.426,139.334
			c210.324,88.96,398.89,215.988,560.46,377.556c161.566,161.562,288.598,350.128,377.564,560.462
			c92.458,218.585,139.339,449.872,139.339,687.435c0,237.554-46.877,468.834-139.329,687.417
			c-88.964,210.338-216,398.914-377.58,560.49c-161.577,161.572-350.15,288.603-560.482,377.563
			C-2183.911,5723.307-2415.186,5770.181-2652.748,5770.181z"/>
		<rect x="-4417.541" y="2240.604" fill="none" stroke="#2F6DF6" stroke-miterlimit="10" width="3529.582" height="3529.582"/>
	</g>
	<g>
		<path fill="none" stroke="#2F6DF6" stroke-miterlimit="10" d="M-2652.748,5664.55c-223.341,0-440.786-44.069-646.294-130.983
			c-197.797-83.661-375.114-203.103-527.029-355.009c-151.936-151.947-271.382-329.258-355.025-527.011
			c-86.928-205.523-131.005-422.984-131.005-646.345c0-223.366,44.079-440.832,131.011-646.356
			c83.646-197.764,203.089-375.066,355.008-526.983c151.911-151.912,329.215-271.353,526.989-355.003
			c205.516-86.929,422.978-131.005,646.345-131.005c223.36,0,440.823,44.077,646.35,131.008
			c197.771,83.653,375.075,203.094,526.986,355.003c151.916,151.919,271.356,329.221,355.005,526.983
			c86.931,205.521,131.009,422.986,131.009,646.354c0,223.366-44.079,440.833-131.013,646.36
			c-83.647,197.767-203.093,375.072-355.016,526.99c-151.915,151.917-329.226,271.358-527.005,355.003
			C-2211.926,5620.477-2429.379,5664.55-2652.748,5664.55z"/>
		<path fill="none" stroke="#2F6DF6" stroke-miterlimit="10" d="M-2652.748,5650.424c-439.395,0-852.488-171.109-1163.184-481.808
			c-310.694-310.686-481.802-723.776-481.802-1163.175c0-439.391,171.112-852.484,481.816-1163.185
			c310.69-310.689,723.778-481.795,1163.169-481.795c439.388,0,852.479,171.107,1163.174,481.802
			c310.699,310.698,481.809,723.789,481.809,1163.178c0,439.391-171.109,852.482-481.809,1163.179
			C-1800.26,5479.315-2213.35,5650.424-2652.748,5650.424z"/>
		<path fill="none" stroke="#2F6DF6" stroke-miterlimit="10" d="M-2652.748,5679.181c-225.286,0-444.622-44.45-651.915-132.116
			c-199.515-84.385-378.378-204.871-531.625-358.114c-153.238-153.234-273.721-332.077-358.104-531.562
			c-87.689-207.332-132.15-426.694-132.15-651.998c0-225.311,44.458-444.663,132.141-651.966
			c84.385-199.494,204.866-378.341,358.099-531.574c153.242-153.243,332.09-273.726,531.577-358.103
			c207.304-87.684,426.66-132.144,651.976-132.144c225.314,0,444.671,44.46,651.976,132.146
			c199.476,84.371,378.32,204.85,531.563,358.091c153.241,153.236,273.723,332.08,358.101,531.565
			c87.688,207.307,132.149,426.666,132.149,651.984c0,225.311-44.459,444.664-132.141,651.968
			c-84.376,199.491-204.863,378.345-358.114,531.592c-153.249,153.245-332.1,273.727-531.585,358.099
			C-2208.082,5634.725-2427.431,5679.181-2652.748,5679.181z"/>
		<rect x="-4326.541" y="2331.604" fill="none" stroke="#2F6DF6" stroke-miterlimit="10" width="3347.582" height="3347.582"/>
	</g>
	<g>
		<path fill="none" stroke="#2F6DF6" stroke-miterlimit="10" d="M-2652.748,5571.55c-210.829,0-416.085-41.598-610.069-123.638
			c-186.711-78.973-354.092-191.723-497.495-335.118c-143.422-143.433-256.175-310.807-335.13-497.476
			c-82.054-193.998-123.659-399.271-123.659-610.116c0-210.852,41.606-416.128,123.664-610.127
			c78.958-186.678,191.707-354.045,335.116-497.452c143.401-143.401,310.769-256.149,497.456-335.11
			c193.992-82.054,399.265-123.658,610.117-123.658c210.847,0,416.121,41.605,610.122,123.661
			c186.684,78.964,354.051,191.711,497.453,335.111c143.406,143.408,256.153,310.774,335.112,497.45
			c82.056,193.995,123.662,399.271,123.662,610.125c0,210.852-41.607,416.13-123.666,610.131
			c-78.959,186.682-191.711,354.052-335.122,497.458c-143.403,143.405-310.776,256.153-497.471,335.11
			C-2236.629,5529.948-2441.895,5571.55-2652.748,5571.55z"/>
		<path fill="none" stroke="#2F6DF6" stroke-miterlimit="10" d="M-2652.748,5557.424c-414.553,0-804.292-161.436-1097.422-454.568
			c-293.129-293.121-454.563-682.857-454.563-1097.414c0-414.549,161.438-804.288,454.576-1097.423
			c293.125-293.125,682.858-454.557,1097.409-454.557c414.547,0,804.282,161.434,1097.413,454.563
			c293.134,293.133,454.569,682.87,454.569,1097.417c0,414.55-161.436,804.286-454.569,1097.417
			C-1848.456,5395.989-2238.191,5557.424-2652.748,5557.424z"/>
		<path fill="none" stroke="#2F6DF6" stroke-miterlimit="10" d="M-2652.748,5586.181c-212.771,0-419.92-41.979-615.69-124.771
			c-188.428-79.695-357.354-193.489-502.089-338.221c-144.727-144.723-258.518-313.63-338.211-502.03
			c-82.814-195.805-124.803-402.978-124.803-615.768c0-212.796,41.987-419.96,124.794-615.737
			c79.696-188.408,193.484-357.319,338.207-502.043c144.731-144.73,313.643-258.521,502.045-338.209
			c195.779-82.809,402.946-124.797,615.747-124.797c212.8,0,419.967,41.988,615.746,124.798
			c188.392,79.683,357.3,193.47,502.033,338.2c144.729,144.725,258.519,313.633,338.207,502.033
			c82.813,195.782,124.803,402.952,124.803,615.755c0,212.798-41.987,419.963-124.794,615.739
			c-79.688,188.406-193.481,357.323-338.221,502.059c-144.737,144.733-313.651,258.522-502.052,338.206
			C-2232.785,5544.196-2439.945,5586.181-2652.748,5586.181z"/>
		<rect x="-4233.541" y="2424.604" fill="none" stroke="#2F6DF6" stroke-miterlimit="10" width="3161.582" height="3161.582"/>
	</g>
	<g>
		<path fill="none" stroke="#2F6DF6" stroke-miterlimit="10" d="M-2652.748,5480.55c-198.584,0-391.916-39.18-574.623-116.45
			c-175.863-74.385-333.521-180.586-468.597-315.654c-135.093-135.103-241.296-292.753-315.663-468.576
			c-77.284-182.721-116.47-376.067-116.47-574.667c0-198.607,39.188-391.956,116.475-574.676
			c74.37-175.831,180.57-333.477,315.651-468.556c135.074-135.074,292.72-241.273,468.558-315.646
			c182.715-77.283,376.061-116.47,574.668-116.47c198.602,0,391.949,39.187,574.673,116.473
			c175.836,74.375,333.48,180.574,468.556,315.646c135.079,135.081,241.277,292.726,315.647,468.554
			c77.286,182.718,116.474,376.066,116.474,574.675c0,198.606-39.188,391.957-116.477,574.681
			c-74.372,175.837-180.575,333.483-315.657,468.561c-135.074,135.076-292.725,241.275-468.571,315.646
			C-2260.8,5441.366-2454.139,5480.55-2652.748,5480.55z"/>
		<path fill="none" stroke="#2F6DF6" stroke-miterlimit="10" d="M-2652.748,5466.424c-390.246,0-757.132-151.97-1033.075-427.915
			c-275.942-275.934-427.91-642.817-427.91-1033.067c0-390.242,151.973-757.129,427.922-1033.076
			c275.937-275.938,642.819-427.903,1033.063-427.903c390.24,0,757.123,151.968,1033.066,427.909
			c275.945,275.945,427.916,642.83,427.916,1033.07c0,390.243-151.971,757.128-427.916,1033.07
			C-1895.616,5314.455-2262.5,5466.424-2652.748,5466.424z"/>
		<path fill="none" stroke="#2F6DF6" stroke-miterlimit="10" d="M-2652.748,5495.181c-200.529,0-395.752-39.562-580.245-117.585
			c-177.578-75.106-336.78-182.351-473.188-318.755c-136.4-136.396-243.642-295.581-318.747-473.135
			c-78.043-184.523-117.614-379.768-117.614-580.315c0-200.551,39.568-395.788,117.605-580.288
			c75.107-177.561,182.347-336.749,318.742-473.146c136.403-136.403,295.593-243.645,473.148-318.744
			c184.502-78.039,379.742-117.608,580.297-117.608c200.555,0,395.794,39.569,580.296,117.608
			c177.544,75.095,336.731,182.333,473.138,318.736c136.4,136.397,243.641,295.583,318.742,473.137
			c78.043,184.507,117.613,379.75,117.613,580.305c0,200.554-39.568,395.791-117.605,580.29
			c-75.1,177.56-182.345,336.754-318.755,473.161c-136.409,136.405-295.602,243.646-473.154,318.741
			C-2256.958,5455.615-2452.19,5495.181-2652.748,5495.181z"/>
		<rect x="-4142.541" y="2515.604" fill="none" stroke="#2F6DF6" stroke-miterlimit="10" width="2979.582" height="2979.582"/>
	</g>
	<g>
		<path fill="none" stroke="#2F6DF6" stroke-miterlimit="10" d="M-2652.748,5388.55c-186.206,0-367.48-36.734-538.787-109.184
			c-164.897-69.747-312.725-169.328-439.38-295.977c-126.671-126.681-226.253-274.501-295.982-439.359
			c-72.461-171.319-109.203-352.606-109.203-538.828c0-186.226,36.742-367.517,109.207-538.836
			c69.732-164.867,169.313-312.684,295.973-439.342c126.653-126.653,274.47-226.232,439.344-295.968
			c171.312-72.461,352.601-109.202,538.83-109.202c186.223,0,367.513,36.742,538.834,109.205
			c164.868,69.736,312.685,169.314,439.342,295.969c126.659,126.662,226.236,274.477,295.968,439.338
			c72.464,171.317,109.206,352.608,109.206,538.836c0,186.229-36.743,367.521-109.208,538.841
			c-69.733,164.869-169.315,312.688-295.979,439.345c-126.654,126.656-274.475,226.235-439.354,295.968
			C-2285.238,5351.812-2466.52,5388.55-2652.748,5388.55z"/>
		<path fill="none" stroke="#2F6DF6" stroke-miterlimit="10" d="M-2652.748,5374.424c-365.672,0-709.455-142.4-968.021-400.969
			c-258.565-258.558-400.964-602.339-400.964-968.014c0-365.668,142.403-709.452,400.976-968.021
			c258.561-258.562,602.339-400.958,968.009-400.958c365.666,0,709.446,142.398,968.013,400.964
			c258.569,258.568,400.97,602.35,400.97,968.016c0,365.669-142.4,709.45-400.97,968.017
			C-1943.294,5232.024-2287.074,5374.424-2652.748,5374.424z"/>
		<path fill="none" stroke="#2F6DF6" stroke-miterlimit="10" d="M-2652.748,5403.181c-188.152,0-371.318-37.117-544.41-110.319
			c-166.611-70.468-315.983-171.091-443.969-299.075c-127.981-127.978-228.603-277.335-299.068-443.922
			c-73.22-173.119-110.345-356.306-110.345-544.474c0-188.171,37.123-371.35,110.338-544.448
			c70.469-166.597,171.089-315.955,299.064-443.932c127.983-127.983,277.344-228.604,443.933-299.065
			c173.1-73.217,356.282-110.341,544.458-110.341c188.176,0,371.356,37.124,544.456,110.341
			c166.579,70.457,315.938,171.075,443.925,299.059c127.981,127.979,228.601,277.336,299.063,443.922
			c73.219,173.104,110.345,356.287,110.345,544.465c0,188.174-37.123,371.354-110.338,544.451
			c-70.461,166.592-171.084,315.957-299.075,443.945c-127.99,127.986-277.354,228.605-443.939,299.063
			C-2281.395,5366.06-2464.571,5403.181-2652.748,5403.181z"/>
		<rect x="-4050.541" y="2607.604" fill="none" stroke="#2F6DF6" stroke-miterlimit="10" width="2795.582" height="2795.582"/>
	</g>
	<g>
		<path fill="none" stroke="#2F6DF6" stroke-miterlimit="10" d="M-2652.748,5298.55c-174.095,0-343.575-34.343-503.731-102.075
			c-154.168-65.209-292.378-158.313-410.798-276.727c-118.434-118.441-211.539-256.646-276.73-410.777
			c-67.744-160.165-102.093-329.657-102.093-503.769c0-174.115,34.35-343.61,102.097-503.776
			c65.196-154.141,158.299-292.341,276.722-410.761c118.417-118.418,256.619-211.521,410.764-276.718
			c160.16-67.744,329.653-102.093,503.77-102.093c174.113,0,343.607,34.351,503.773,102.096
			c154.143,65.199,292.343,158.301,410.764,276.719c118.421,118.424,211.521,256.622,276.716,410.757
			c67.746,160.163,102.097,329.658,102.097,503.776s-34.351,343.614-102.098,503.78c-65.195,154.14-158.3,292.342-276.728,410.765
			c-118.419,118.421-256.624,211.522-410.773,276.718C-2309.144,5264.203-2478.631,5298.55-2652.748,5298.55z"/>
		<path fill="none" stroke="#2F6DF6" stroke-miterlimit="10" d="M-2652.748,5284.424c-341.632,0-662.814-133.038-904.381-374.607
			c-241.567-241.561-374.604-562.741-374.604-904.375c0-341.628,133.041-662.811,374.615-904.382
			c241.562-241.563,562.741-374.598,904.37-374.598c341.625,0,662.805,133.037,904.374,374.604
			c241.57,241.57,374.608,562.75,374.608,904.376c0,341.628-133.038,662.809-374.608,904.376
			C-1989.936,5151.386-2311.115,5284.424-2652.748,5284.424z"/>
		<path fill="none" stroke="#2F6DF6" stroke-miterlimit="10" d="M-2652.748,5313.181c-176.044,0-347.416-34.726-509.354-103.211
			c-155.882-65.931-295.637-160.076-415.386-279.823c-119.745-119.742-213.89-259.484-279.818-415.345
			c-68.502-161.963-103.235-333.353-103.235-509.411c0-176.061,34.731-347.443,103.228-509.389
			c65.931-155.867,160.074-295.61,279.814-415.352c119.747-119.747,259.491-213.891,415.353-279.815
			c161.946-68.498,333.333-103.23,509.398-103.23c176.064,0,347.45,34.732,509.396,103.23
			c155.854,65.92,295.597,160.063,415.347,279.81c119.744,119.741,213.887,259.482,279.812,415.342
			c68.502,161.949,103.235,333.338,103.235,509.404c0,176.063-34.731,347.447-103.229,509.391
			c-65.923,155.864-160.069,295.614-279.823,415.366c-119.755,119.75-259.502,213.892-415.359,279.812
			C-2305.301,5278.451-2476.682,5313.181-2652.748,5313.181z"/>
		<rect x="-3960.541" y="2697.604" fill="none" stroke="#2F6DF6" stroke-miterlimit="10" width="2615.582" height="2615.582"/>
	</g>
	<g>
		<path fill="none" stroke="#2F6DF6" stroke-miterlimit="10" d="M-2652.748,5201.55c-161.045,0-317.813-31.766-465.948-94.414
			c-142.604-60.318-270.451-146.441-379.993-255.979c-109.555-109.562-195.678-237.401-255.98-379.973
			c-62.66-148.144-94.431-304.922-94.431-465.982c0-161.063,31.772-317.844,94.434-465.988
			c60.306-142.578,146.427-270.415,255.973-379.959c109.541-109.542,237.379-195.663,379.962-255.971
			c148.138-62.658,304.917-94.43,465.983-94.43c161.061,0,317.842,31.772,465.986,94.433
			c142.582,60.31,270.419,146.431,379.962,255.972c109.543,109.546,195.663,237.38,255.968,379.954
			c62.661,148.142,94.434,304.923,94.434,465.989c0,161.065-31.772,317.849-94.435,465.992
			c-60.305,142.577-146.428,270.415-255.979,379.962c-109.544,109.545-237.385,195.666-379.97,255.971
			C-2334.907,5169.78-2491.682,5201.55-2652.748,5201.55z"/>
		<path fill="none" stroke="#2F6DF6" stroke-miterlimit="10" d="M-2652.748,5187.424c-315.723,0-612.545-122.948-835.792-346.196
			c-223.246-223.24-346.194-520.063-346.194-835.786c0-315.719,122.951-612.542,346.204-835.792
			c223.242-223.242,520.062-346.188,835.781-346.188c315.716,0,612.537,122.947,835.785,346.193
			c223.249,223.249,346.197,520.07,346.197,835.786c0,315.718-122.948,612.539-346.197,835.786
			C-2040.205,5064.476-2337.026,5187.424-2652.748,5187.424z"/>
		<path fill="none" stroke="#2F6DF6" stroke-miterlimit="10" d="M-2652.748,5216.181c-162.993,0-321.652-32.147-471.572-95.55
			c-144.318-61.04-273.708-148.205-384.58-259.074c-110.869-110.866-198.033-240.245-259.07-384.544
			c-63.417-149.94-95.571-308.616-95.571-471.622c0-163.007,32.152-321.677,95.565-471.603
			c61.04-144.303,148.201-273.683,259.066-384.549c110.871-110.871,240.252-198.033,384.55-259.066
			c149.925-63.415,308.598-95.568,471.611-95.568c163.011,0,321.684,32.153,471.608,95.568
			c144.294,61.03,273.673,148.191,384.545,259.062c110.866,110.864,198.028,240.242,259.063,384.54
			c63.417,149.928,95.572,308.603,95.572,471.616c0,163.009-32.152,321.68-95.565,471.604
			c-61.033,144.303-148.198,273.688-259.075,384.563c-110.876,110.871-240.259,198.033-384.556,259.063
			C-2331.066,5184.029-2489.733,5216.181-2652.748,5216.181z"/>
		<rect x="-3863.541" y="2794.604" fill="none" stroke="#2F6DF6" stroke-miterlimit="10" width="2421.582" height="2421.582"/>
	</g>
	<g>
		<path fill="none" stroke="#2F6DF6" stroke-miterlimit="10" d="M-2652.748,5108.55c-148.531,0-293.111-29.294-429.724-87.069
			c-131.517-55.628-249.426-135.058-350.457-236.086c-101.043-101.048-180.474-218.952-236.087-350.438
			c-57.785-136.618-87.084-281.209-87.084-429.754c0-148.548,29.3-293.141,87.087-429.76
			c55.617-131.492,135.046-249.393,236.08-350.426c101.031-101.032,218.934-180.461,350.43-236.078
			c136.613-57.784,281.204-87.084,429.755-87.084c148.546,0,293.138,29.3,429.758,87.086
			c131.496,55.62,249.397,135.049,350.43,236.08c101.032,101.034,180.459,218.933,236.075,350.421
			c57.786,136.615,87.087,281.208,87.087,429.761c0,148.552-29.301,293.145-87.088,429.763
			c-55.616,131.493-135.047,249.395-236.085,350.43c-101.033,101.033-218.938,180.462-350.437,236.078
			C-2359.611,5079.253-2504.197,5108.55-2652.748,5108.55z"/>
		<path fill="none" stroke="#2F6DF6" stroke-miterlimit="10" d="M-2652.748,5094.424c-290.881,0-564.35-113.274-770.03-318.957
			c-205.681-205.676-318.955-479.144-318.955-770.025c0-290.878,113.277-564.347,318.964-770.03
			c205.677-205.677,479.142-318.949,770.021-318.949c290.876,0,564.342,113.274,770.024,318.955
			c205.684,205.684,318.958,479.15,318.958,770.024c0,290.876-113.274,564.343-318.958,770.025
			C-2088.401,4981.149-2361.868,5094.424-2652.748,5094.424z"/>
		<path fill="none" stroke="#2F6DF6" stroke-miterlimit="10" d="M-2652.748,5123.181c-150.481,0-296.954-29.677-435.348-88.205
			c-133.231-56.351-252.683-136.822-355.043-239.181c-102.358-102.354-182.83-221.798-239.178-355.013
			c-58.542-138.413-88.224-284.899-88.224-435.392c0-150.493,29.681-296.974,88.219-435.374
			c56.35-133.217,136.819-252.661,239.174-355.018c102.36-102.359,221.805-182.828,355.017-239.174
			c138.4-58.539,284.884-88.221,435.383-88.221c150.496,0,296.979,29.682,435.38,88.221
			c133.209,56.343,252.652,136.812,355.013,239.171c102.356,102.354,182.825,221.795,239.171,355.007
			c58.542,138.402,88.226,284.888,88.226,435.388c0,150.497-29.682,296.979-88.219,435.376
			c-56.345,133.217-136.817,252.666-239.183,355.029c-102.364,102.36-221.811,182.829-355.022,239.171
			C-2355.77,5093.501-2502.248,5123.181-2652.748,5123.181z"/>
		<rect x="-3770.541" y="2887.604" fill="none" stroke="#2F6DF6" stroke-miterlimit="10" width="2235.582" height="2235.582"/>
	</g>
	<g>
		<path fill="none" stroke="#2F6DF6" stroke-miterlimit="10" d="M-2652.748,5019.55c-136.559,0-269.475-26.93-395.058-80.04
			c-120.905-51.14-229.305-124.165-322.191-217.049c-92.897-92.901-165.922-201.296-217.05-322.175
			c-53.12-125.589-80.054-258.515-80.054-395.084c0-136.571,26.935-269.498,80.056-395.089
			c51.13-120.884,124.154-229.275,217.043-322.163c92.886-92.888,201.279-165.911,322.167-217.042
			c125.584-53.119,258.51-80.054,395.086-80.054c136.57,0,269.497,26.935,395.088,80.056
			c120.887,51.132,229.279,124.156,322.167,217.043c92.887,92.889,165.909,201.278,217.039,322.159
			c53.121,125.587,80.056,258.515,80.056,395.09c0,136.573-26.935,269.502-80.057,395.092
			c-51.13,120.886-124.155,229.278-217.048,322.167c-92.888,92.888-201.283,165.912-322.174,217.042
			C-2383.25,4992.617-2516.172,5019.55-2652.748,5019.55z"/>
		<path fill="none" stroke="#2F6DF6" stroke-miterlimit="10" d="M-2652.748,5005.424c-267.107,0-518.226-104.017-707.098-292.89
			c-188.871-188.866-292.888-439.983-292.888-707.093c0-267.105,104.02-518.224,292.896-707.098
			c188.867-188.867,439.983-292.882,707.089-292.882c267.103,0,518.22,104.017,707.092,292.888
			c188.874,188.874,292.891,439.991,292.891,707.092c0,267.104-104.018,518.221-292.891,707.093
			C-2134.525,4901.407-2385.643,5005.424-2652.748,5005.424z"/>
		<path fill="none" stroke="#2F6DF6" stroke-miterlimit="10" d="M-2652.748,5034.181c-138.507,0-273.316-27.312-400.681-81.176
			c-122.621-51.863-232.563-125.93-326.777-220.143c-94.213-94.21-168.28-204.146-220.142-326.752
			c-53.876-127.382-81.193-262.202-81.193-400.72c0-138.519,27.316-273.334,81.188-400.704
			c51.863-122.609,125.928-232.544,220.138-326.755c94.216-94.216,204.152-168.279,326.754-220.137
			c127.371-53.874,262.19-81.19,400.712-81.19c138.521,0,273.339,27.316,400.709,81.19
			c122.601,51.855,232.536,125.919,326.752,220.134c94.21,94.208,168.274,204.142,220.134,326.746
			c53.876,127.37,81.194,262.19,81.194,400.716c0,138.521-27.315,273.337-81.188,400.706
			c-51.858,122.609-125.926,232.549-220.145,326.766c-94.22,94.216-204.156,168.279-326.76,220.135
			C-2379.409,5006.866-2514.224,5034.181-2652.748,5034.181z"/>
		<rect x="-3681.541" y="2976.604" fill="none" stroke="#2F6DF6" stroke-miterlimit="10" width="2057.582" height="2057.582"/>
	</g>
	<g>
		<path fill="none" stroke="#2F6DF6" stroke-miterlimit="10" d="M-2652.748,4922.55c-123.507,0-243.712-24.352-357.275-72.379
			c-109.34-46.248-207.375-112.292-291.386-196.301c-84.019-84.021-150.063-182.052-196.301-291.37
			c-48.035-113.567-72.391-233.779-72.391-357.298s24.356-243.732,72.393-357.301c46.239-109.321,112.282-207.351,196.295-291.362
			c84.01-84.01,182.039-150.053,291.365-196.294c113.563-48.034,233.776-72.391,357.3-72.391
			c123.519,0,243.731,24.356,357.301,72.393c109.325,46.242,207.354,112.286,291.365,196.296
			c84.011,84.012,150.052,182.038,196.291,291.357c48.036,113.565,72.393,233.779,72.393,357.302s-24.357,243.737-72.394,357.305
			c-46.239,109.323-112.284,207.353-196.299,291.363c-84.012,84.012-182.043,150.055-291.371,196.294
			C-2409.015,4898.195-2529.224,4922.55-2652.748,4922.55z"/>
		<path fill="none" stroke="#2F6DF6" stroke-miterlimit="10" d="M-2652.748,4908.424c-241.197,0-467.957-93.927-638.508-264.479
			c-170.55-170.546-264.477-397.305-264.477-638.504c0-241.195,93.93-467.955,264.485-638.508
			c170.546-170.547,397.304-264.472,638.5-264.472c241.193,0,467.951,93.927,638.503,264.478
			c170.553,170.554,264.479,397.311,264.479,638.502c0,241.193-93.928,467.952-264.479,638.504
			C-2184.795,4814.497-2411.554,4908.424-2652.748,4908.424z"/>
		<path fill="none" stroke="#2F6DF6" stroke-miterlimit="10" d="M-2652.748,4937.181c-125.458,0-247.555-24.734-362.899-73.515
			c-111.057-46.973-210.635-114.059-295.971-199.394c-85.336-85.333-152.422-184.906-199.394-295.951
			c-48.791-115.358-73.529-237.465-73.529-362.931s24.738-247.569,73.526-362.918c46.972-111.046,114.056-210.617,199.39-295.952
			c85.338-85.337,184.91-152.421,295.952-199.389c115.349-48.789,237.455-73.527,362.925-73.527
			c125.469,0,247.573,24.738,362.922,73.527c111.039,46.966,210.611,114.049,295.95,199.387
			c85.334,85.332,152.417,184.902,199.386,295.944c48.792,115.349,73.531,237.455,73.531,362.928
			c0,125.468-24.737,247.571-73.525,362.919c-46.969,111.048-114.056,210.624-199.396,295.963
			c-85.342,85.339-184.915,152.422-295.956,199.387C-2405.175,4912.444-2527.276,4937.181-2652.748,4937.181z"/>
		<rect x="-3584.541" y="3073.604" fill="none" stroke="#2F6DF6" stroke-miterlimit="10" width="1863.582" height="1863.582"/>
	</g>
	<g>
		<path fill="none" stroke="#2F6DF6" stroke-miterlimit="10" d="M-2652.748,4829.55c-110.995,0-219.012-21.881-321.05-65.034
			c-98.252-41.558-186.35-100.909-261.85-176.407c-75.507-75.51-134.858-163.604-176.408-261.837
			c-43.16-102.041-65.044-210.064-65.044-321.069s21.885-219.029,65.046-321.072c41.551-98.236,100.901-186.329,176.402-261.83
			c75.499-75.499,163.592-134.849,261.833-176.401c102.039-43.16,210.063-65.044,321.071-65.044
			c111.005,0,219.028,21.885,321.072,65.046c98.239,41.554,186.333,100.904,261.833,176.404
			c75.5,75.501,134.849,163.591,176.398,261.824c43.161,102.04,65.046,210.064,65.046,321.073
			c0,111.008-21.885,219.033-65.047,321.075c-41.551,98.238-100.902,186.331-176.405,261.83
			c-75.502,75.502-163.598,134.853-261.838,176.402C-2433.718,4807.667-2541.738,4829.55-2652.748,4829.55z"/>
		<path fill="none" stroke="#2F6DF6" stroke-miterlimit="10" d="M-2652.748,4815.424c-216.356,0-419.761-84.253-572.747-237.239
			c-152.985-152.981-237.238-356.386-237.238-572.743c0-216.354,84.255-419.759,237.246-572.746
			c152.981-152.981,356.385-237.233,572.74-237.233c216.352,0,419.756,84.253,572.742,237.238
			c152.986,152.987,237.24,356.391,237.24,572.741c0,216.353-84.254,419.757-237.24,572.743
			C-2232.991,4731.171-2436.395,4815.424-2652.748,4815.424z"/>
		<path fill="none" stroke="#2F6DF6" stroke-miterlimit="10" d="M-2652.748,4844.181c-112.945,0-222.854-22.263-326.674-66.17
			c-99.968-42.282-189.609-102.674-266.436-179.5c-76.827-76.824-137.22-166.462-179.502-266.42
			c-43.916-103.832-66.182-213.749-66.182-326.7s22.266-222.866,66.18-326.69c42.281-99.958,102.673-189.594,179.498-266.419
			c76.827-76.826,166.464-137.218,266.419-179.496c103.824-43.914,213.74-66.181,326.696-66.181
			c112.954,0,222.87,22.267,326.693,66.181c99.953,42.276,189.59,102.667,266.418,179.495
			c76.823,76.821,137.214,166.456,179.494,266.412c43.916,103.823,66.184,213.741,66.184,326.698
			c0,112.953-22.266,222.868-66.179,326.69c-42.28,99.962-102.674,189.602-179.504,266.43
			c-76.828,76.826-166.466,137.218-266.423,179.494C-2429.879,4821.916-2539.791,4844.181-2652.748,4844.181z"/>
		<rect x="-3491.541" y="3166.604" fill="none" stroke="#2F6DF6" stroke-miterlimit="10" width="1677.582" height="1677.582"/>
	</g>
	<g>
		<path fill="none" stroke="#2F6DF6" stroke-miterlimit="10" d="M-2652.748,4740.55c-99.021,0-195.374-19.516-286.384-58.005
			c-87.642-37.07-166.229-90.017-233.585-157.37c-67.362-67.364-120.308-145.949-157.37-233.573
			c-38.495-91.011-58.014-187.369-58.014-286.399c0-99.029,19.52-195.389,58.016-286.401
			c37.064-87.628,90.009-166.212,157.366-233.568c67.354-67.354,145.939-120.3,233.57-157.364
			c91.009-38.495,187.369-58.014,286.401-58.014c99.028,0,195.388,19.52,286.401,58.016
			c87.633,37.066,166.217,90.013,233.571,157.367s120.299,145.937,157.361,233.563c38.496,91.01,58.016,187.37,58.016,286.402
			s-19.52,195.393-58.016,286.404c-37.063,87.629-90.01,166.213-157.367,233.567c-67.358,67.357-145.944,120.303-233.576,157.366
			C-2457.358,4721.032-2553.716,4740.55-2652.748,4740.55z"/>
		<path fill="none" stroke="#2F6DF6" stroke-miterlimit="10" d="M-2652.748,4726.424c-192.583,0-373.638-74.995-509.814-211.172
			c-136.175-136.172-211.171-317.227-211.171-509.811c0-192.581,74.998-373.636,211.177-509.813
			c136.172-136.172,317.226-211.167,509.808-211.167c192.579,0,373.633,74.995,509.81,211.171
			c136.177,136.178,211.173,317.23,211.173,509.809c0,192.579-74.996,373.634-211.173,509.811
			C-2279.113,4651.428-2460.167,4726.424-2652.748,4726.424z"/>
		<path fill="none" stroke="#2F6DF6" stroke-miterlimit="10" d="M-2652.748,4755.181c-100.97,0-199.215-19.897-292.007-59.141
			c-89.356-37.794-169.488-91.78-238.17-160.462c-68.683-68.681-122.671-148.809-160.465-238.159
			c-39.25-92.8-59.15-191.052-59.15-292.028s19.901-199.227,59.149-292.021c37.793-89.349,91.78-169.477,160.46-238.157
			c68.682-68.681,148.81-122.667,238.158-160.459c92.793-39.248,191.045-59.149,292.025-59.149
			c100.979,0,199.229,19.901,292.022,59.15c89.348,37.79,169.475,91.776,238.157,160.458
			c68.679,68.678,122.664,148.803,160.457,238.151c39.25,92.792,59.152,191.044,59.152,292.026
			c0,100.978-19.9,199.228-59.148,292.021c-37.793,89.354-91.781,169.483-160.466,238.166
			c-68.683,68.682-148.812,122.668-238.16,160.458C-2453.518,4735.28-2551.766,4755.181-2652.748,4755.181z"/>
		<rect x="-3402.541" y="3255.604" fill="none" stroke="#2F6DF6" stroke-miterlimit="10" width="1499.582" height="1499.582"/>
	</g>
	<g>
		<path fill="none" stroke="#2F6DF6" stroke-miterlimit="10" d="M-2652.748,4647.55c-86.507,0-170.672-17.044-250.159-50.66
			c-76.555-32.381-145.205-78.634-204.05-137.477c-58.851-58.853-105.103-127.5-137.477-204.04
			c-33.62-79.485-50.667-163.655-50.667-250.171c0-86.515,17.047-170.685,50.668-250.172
			c32.376-76.545,78.629-145.192,137.474-204.036c58.844-58.844,127.492-105.097,204.038-137.473
			c79.484-33.62,163.654-50.667,250.172-50.667c86.515,0,170.685,17.048,250.173,50.669
			c76.549,32.378,145.196,78.631,204.039,137.475c58.842,58.842,105.094,127.487,137.469,204.03
			c33.622,79.487,50.669,163.657,50.669,250.174c0,86.519-17.048,170.689-50.669,250.175
			c-32.374,76.542-78.627,145.19-137.474,204.035c-58.848,58.847-127.498,105.1-204.043,137.474
			C-2482.063,4630.504-2566.23,4647.55-2652.748,4647.55z"/>
		<path fill="none" stroke="#2F6DF6" stroke-miterlimit="10" d="M-2652.748,4633.424c-167.742,0-325.443-65.322-444.053-183.933
			c-118.61-118.607-183.932-276.308-183.932-444.05c0-167.739,65.324-325.439,183.938-444.05
			c118.607-118.608,276.307-183.93,444.048-183.93c167.738,0,325.438,65.322,444.049,183.933
			c118.611,118.611,183.934,276.311,183.934,444.047c0,167.738-65.322,325.438-183.934,444.05
			C-2327.309,4568.102-2485.009,4633.424-2652.748,4633.424z"/>
		<path fill="none" stroke="#2F6DF6" stroke-miterlimit="10" d="M-2652.748,4662.181c-88.458,0-174.515-17.427-255.782-51.796
			c-78.27-33.104-148.464-80.398-208.636-140.568c-60.172-60.171-107.467-130.363-140.572-208.628
			c-34.374-81.271-51.803-167.334-51.803-255.798s17.429-174.524,51.803-255.791c33.104-78.265,80.398-148.456,140.568-208.626
			c60.17-60.17,130.362-107.463,208.625-140.566c81.269-34.374,167.331-51.803,255.796-51.803
			c88.464,0,174.525,17.43,255.794,51.804c78.263,33.102,148.454,80.396,208.625,140.566
			c60.168,60.166,107.461,130.356,140.564,208.619c34.376,81.268,51.806,167.33,51.806,255.797
			c0,88.464-17.429,174.525-51.802,255.793c-33.104,78.269-80.4,148.462-140.572,208.632
			c-60.172,60.171-130.364,107.464-208.628,140.565C-2478.222,4644.753-2564.281,4662.181-2652.748,4662.181z"/>
		<rect x="-3309.541" y="3348.604" fill="none" stroke="#2F6DF6" stroke-miterlimit="10" width="1313.582" height="1313.582"/>
	</g>
	<g>
		<path fill="none" stroke="#2F6DF6" stroke-miterlimit="10" d="M-2652.748,4557.55c-74.399,0-146.771-14.653-215.104-43.552
			c-65.825-27.843-124.859-67.619-175.467-118.226c-50.611-50.613-90.388-109.646-118.224-175.459
			c-28.903-68.333-43.558-140.707-43.558-215.111s14.655-146.778,43.559-215.111c27.839-65.817,67.615-124.85,118.223-175.457
			c50.607-50.607,109.64-90.383,175.458-118.222c68.332-28.902,140.707-43.558,215.113-43.558
			c74.404,0,146.779,14.655,215.113,43.559c65.82,27.841,124.853,67.617,175.458,118.224
			c50.606,50.606,90.382,109.637,118.22,175.452c28.903,68.333,43.559,140.708,43.559,215.113
			c0,74.407-14.655,146.782-43.559,215.113c-27.838,65.816-67.614,124.849-118.223,175.456
			c-50.612,50.611-109.646,90.387-175.462,118.223C-2505.969,4542.896-2578.342,4557.55-2652.748,4557.55z"/>
		<path fill="none" stroke="#2F6DF6" stroke-miterlimit="10" d="M-2652.748,4543.424c-143.703,0-278.803-55.961-380.414-157.572
			c-101.611-101.609-157.572-236.709-157.572-380.41c0-143.699,55.962-278.798,157.576-380.409
			c101.609-101.61,236.708-157.57,380.409-157.57c143.698,0,278.797,55.96,380.409,157.572s157.573,236.71,157.573,380.407
			c0,143.699-55.961,278.798-157.573,380.41C-2373.949,4487.463-2509.048,4543.424-2652.748,4543.424z"/>
		<path fill="none" stroke="#2F6DF6" stroke-miterlimit="10" d="M-2652.748,4572.181c-76.349,0-150.612-15.035-220.725-44.688
			c-67.542-28.567-128.12-69.385-180.054-121.317c-51.936-51.936-92.754-112.513-121.321-180.049
			c-29.656-70.116-44.693-144.382-44.693-220.736c0-76.353,15.037-150.617,44.693-220.731
			c28.567-67.536,69.384-128.112,121.318-180.046c51.934-51.933,112.51-92.75,180.046-121.315
			c70.115-29.656,144.381-44.693,220.736-44.693c76.354,0,150.62,15.037,220.734,44.693
			c67.536,28.565,128.111,69.383,180.045,121.316c51.932,51.931,92.748,112.505,121.314,180.04
			c29.658,70.115,44.695,144.382,44.695,220.736c0,76.355-15.037,150.62-44.692,220.733
			c-28.567,67.54-69.386,128.118-121.32,180.051c-51.935,51.934-112.512,92.751-180.048,121.315
			C-2502.128,4557.145-2576.393,4572.181-2652.748,4572.181z"/>
		<rect x="-3219.541" y="3438.604" fill="none" stroke="#2F6DF6" stroke-miterlimit="10" width="1133.582" height="1133.582"/>
	</g>
	<g>
		<path fill="none" stroke="#2F6DF6" stroke-miterlimit="10" d="M-2652.748,4464.55c-61.887,0-122.07-12.182-178.879-36.207
			c-54.737-23.152-103.834-56.235-145.932-98.332c-42.1-42.101-75.183-91.196-98.331-145.926
			c-24.028-56.808-36.211-116.992-36.211-178.883c0-61.89,12.183-122.074,36.211-178.883
			c23.15-54.731,56.233-103.827,98.331-145.924c42.097-42.097,91.193-75.18,145.926-98.33
			c56.807-24.027,116.993-36.211,178.885-36.211c61.891,0,122.076,12.184,178.885,36.212
			c54.732,23.151,103.829,56.234,145.925,98.331c42.096,42.095,75.179,91.19,98.328,145.92
			c24.028,56.808,36.212,116.993,36.212,178.885s-12.183,122.077-36.211,178.884c-23.149,54.73-56.232,103.826-98.331,145.924
			c-42.101,42.1-91.197,75.183-145.928,98.33C-2530.671,4452.366-2590.855,4464.55-2652.748,4464.55z"/>
		<path fill="none" stroke="#2F6DF6" stroke-miterlimit="10" d="M-2652.748,4450.424c-118.861,0-230.606-46.286-314.652-130.333
			c-84.046-84.045-130.333-195.79-130.333-314.649c0-118.857,46.288-230.602,130.336-314.647
			c84.044-84.045,195.79-130.332,314.649-130.332c118.856,0,230.602,46.287,314.648,130.333
			c84.047,84.047,130.334,195.79,130.334,314.646c0,118.858-46.287,230.603-130.334,314.649
			C-2422.146,4404.138-2533.89,4450.424-2652.748,4450.424z"/>
		<path fill="none" stroke="#2F6DF6" stroke-miterlimit="10" d="M-2652.748,4479.181c-63.836,0-125.911-12.563-184.5-37.342
			c-56.456-23.879-107.096-58.003-150.52-101.425c-43.425-43.425-77.55-94.065-101.427-150.517
			c-24.781-58.59-37.346-120.666-37.346-184.507c0-63.839,12.565-125.915,37.346-184.503
			c23.878-56.45,58.002-107.091,101.425-150.513c43.422-43.423,94.063-77.547,150.514-101.424
			c58.588-24.781,120.665-37.347,184.507-37.347c63.841,0,125.917,12.565,184.506,37.347c56.449,23.877,107.089,58,150.512,101.424
			c43.422,43.421,77.546,94.06,101.424,150.51c24.782,58.59,37.348,120.666,37.348,184.506s-12.564,125.916-37.346,184.505
			c-23.878,56.453-58.002,107.094-101.427,150.517c-43.425,43.425-94.066,77.549-150.516,101.424
			C-2526.83,4466.615-2588.906,4479.181-2652.748,4479.181z"/>
		<rect x="-3126.541" y="3531.604" fill="none" stroke="#2F6DF6" stroke-miterlimit="10" width="947.582" height="947.582"/>
	</g>
	<g>
		<path fill="none" stroke="#2F6DF6" stroke-miterlimit="10" d="M-2652.958,4370.55c-49.24,0-97.105-9.685-142.264-28.783
			c-43.531-18.412-82.584-44.73-116.079-78.225c-33.497-33.497-59.815-72.55-78.225-116.075
			c-19.1-45.157-28.785-93.022-28.785-142.265s9.685-97.106,28.786-142.265c18.411-43.526,44.729-82.579,78.224-116.074
			c33.494-33.494,72.548-59.813,116.076-78.223c45.159-19.102,93.024-28.786,142.267-28.786s97.108,9.686,142.267,28.786
			c43.526,18.411,82.579,44.729,116.073,78.224s59.813,72.547,78.223,116.072c19.102,45.159,28.787,93.024,28.787,142.266
			c0,49.242-9.686,97.107-28.785,142.266c-18.41,43.525-44.729,82.578-78.225,116.074c-33.498,33.497-72.553,59.814-116.076,78.223
			C-2555.85,4360.865-2603.715,4370.55-2652.958,4370.55z"/>
		<path fill="none" stroke="#2F6DF6" stroke-miterlimit="10" d="M-2652.958,4356.424c-93.752,0-181.893-36.509-248.184-102.801
			c-66.292-66.291-102.801-154.431-102.801-248.182c0-93.749,36.509-181.887,102.803-248.179
			c66.292-66.292,154.432-102.801,248.183-102.801c93.75,0,181.887,36.509,248.18,102.802
			c66.293,66.292,102.803,154.43,102.803,248.178c0,93.75-36.51,181.889-102.803,248.182
			C-2471.068,4319.915-2559.207,4356.424-2652.958,4356.424z"/>
		<path fill="none" stroke="#2F6DF6" stroke-miterlimit="10" d="M-2652.958,4385.181c-51.19,0-100.946-10.066-147.886-29.918
			c-45.248-19.139-85.846-46.498-120.667-81.318c-34.823-34.822-62.182-75.42-81.32-120.666
			c-19.854-46.939-29.92-96.696-29.92-147.888c0-51.19,10.067-100.946,29.92-147.884c19.139-45.247,46.498-85.844,81.319-120.664
			c34.82-34.82,75.418-62.18,120.665-81.317c46.938-19.854,96.695-29.921,147.889-29.921c51.193,0,100.949,10.067,147.887,29.921
			c45.244,19.138,85.842,46.496,120.662,81.317c34.82,34.819,62.18,75.416,81.318,120.662
			c19.855,46.939,29.922,96.695,29.922,147.886c0,51.191-10.066,100.947-29.92,147.887c-19.139,45.246-46.498,85.845-81.32,120.666
			c-34.82,34.821-75.42,62.182-120.664,81.317C-2552.009,4375.114-2601.766,4385.181-2652.958,4385.181z"/>
		<rect x="-3032.75" y="3625.604" fill="none" stroke="#2F6DF6" stroke-miterlimit="10" width="759.583" height="759.582"/>
	</g>
	<path fill="none" stroke="#2F6DF6" stroke-miterlimit="10" d="M-2652.958,4280.55c-37.133,0-73.202-7.293-107.207-21.675
		c-32.799-13.873-62.237-33.714-87.496-58.973s-45.101-54.695-58.974-87.495c-14.383-34.004-21.676-70.073-21.676-107.205
		s7.293-73.2,21.676-107.204c13.873-32.799,33.714-62.236,58.973-87.494c25.259-25.259,54.697-45.101,87.496-58.974
		c34.005-14.383,70.075-21.676,107.208-21.676c37.132,0,73.201,7.293,107.206,21.677c32.799,13.873,62.236,33.714,87.494,58.973
		c25.26,25.258,45.102,54.695,58.975,87.493c14.383,34.005,21.676,70.073,21.676,107.205s-7.293,73.201-21.676,107.206
		c-13.873,32.799-33.715,62.235-58.975,87.494c-25.258,25.258-54.696,45.1-87.495,58.972
		C-2579.757,4273.257-2615.826,4280.55-2652.958,4280.55z"/>
	<path fill="none" stroke="#2F6DF6" stroke-miterlimit="10" d="M-2652.958,4266.424c-69.712,0-135.251-27.146-184.544-76.44
		c-49.294-49.293-76.441-114.831-76.441-184.542c0-69.708,27.147-135.245,76.441-184.538
		c49.294-49.294,114.833-76.441,184.544-76.441c69.709,0,135.248,27.147,184.542,76.441c49.293,49.294,76.441,114.83,76.441,184.538
		c0,69.71-27.148,135.248-76.441,184.542C-2517.71,4239.276-2583.248,4266.424-2652.958,4266.424z"/>
	<path fill="none" stroke="#2F6DF6" stroke-miterlimit="10" d="M-2652.957,4295.181c-39.082,0-77.043-7.675-112.828-22.81
		c-34.519-14.601-65.501-35.483-92.086-62.067c-26.585-26.585-47.468-57.567-62.068-92.086
		c-15.136-35.785-22.81-73.745-22.81-112.827c0-39.08,7.675-77.04,22.811-112.824c14.601-34.518,35.483-65.499,62.068-92.083
		c26.585-26.585,57.567-47.468,92.086-62.068c35.785-15.136,73.746-22.811,112.829-22.811c39.081,0,77.042,7.675,112.827,22.812
		c34.519,14.6,65.499,35.482,92.085,62.067c26.584,26.584,47.467,57.565,62.066,92.083c15.137,35.784,22.811,73.744,22.811,112.824
		c0,39.082-7.674,77.042-22.811,112.827c-14.6,34.519-35.482,65.501-62.066,92.085c-26.586,26.585-57.566,47.468-92.086,62.067
		C-2575.915,4287.506-2613.876,4295.181-2652.957,4295.181z"/>
	<rect x="-2942.75" y="3715.604" fill="none" width="579.583" height="579.582"/>
	<g>
		<path fill="none" stroke="#2F6DF6" stroke-miterlimit="10" d="M-2467.354,4005.195c0.004,102.362-82.981,185.35-185.343,185.353
			c-102.369,0.003-185.355-82.979-185.358-185.343c-0.003-102.36,82.979-185.35,185.348-185.354
			C-2550.346,3819.849-2467.356,3902.834-2467.354,4005.195z"/>
		<path fill="#2F6DF6" d="M-2591.941,3815.075c-0.164-0.052-0.329-0.099-0.493-0.151c-0.037-0.012-0.071-0.029-0.109-0.041
			c-0.063-0.02-0.126-0.031-0.188-0.05c-7.537-2.298-15.545,1.875-17.952,9.404c-2.424,7.584,1.753,15.697,9.33,18.133
			c0.008,0.002,0.016,0.006,0.023,0.009c0.014,0.004,0.027,0.006,0.041,0.011c0.188,0.06,0.376,0.112,0.563,0.172
			c89.946,28.746,139.563,124.972,110.818,214.915c-28.648,89.644-124.315,139.217-213.999,111.099
			c-0.481-0.214-0.976-0.408-1.488-0.572c-0.481-0.153-0.964-0.28-1.448-0.382c-7.149-1.498-14.42,2.626-16.692,9.737
			c-2.388,7.474,1.64,15.448,9.005,18.011c0.118,0.041,0.229,0.093,0.348,0.131c0.071,0.022,0.144,0.035,0.215,0.057
			c0.13,0.042,0.258,0.088,0.389,0.13c105.102,33.589,217.537-24.385,251.126-129.488
			C-2428.865,3961.103-2486.84,3848.664-2591.941,3815.075z"/>
		<rect x="-2852.555" y="3805.592" fill="none" width="399.582" height="399.583"/>
	</g>
	<circle fill="none" stroke="#2F6DF6" stroke-miterlimit="10" cx="-2653.09" cy="3730.033" r="14.429"/>
</g>
<g id="Layer_2">
	<g>
		<path fill="none" stroke="#2F6DF6" stroke-width="1.5" stroke-miterlimit="10" d="M2026.831,757.291
			c0.003,61.39-49.767,111.159-111.155,111.161c-61.395,0.001-111.162-49.766-111.164-111.156
			c-0.002-61.388,49.764-111.159,111.158-111.161C1977.059,646.134,2026.828,695.901,2026.831,757.291z"/>
		<path fill="#2F6DF6" d="M1952.112,643.271c-0.099-0.032-0.198-0.06-0.296-0.09c-0.022-0.008-0.043-0.018-0.065-0.024
			c-0.038-0.013-0.075-0.019-0.112-0.03c-4.521-1.379-9.323,1.124-10.768,5.64c-1.454,4.548,1.052,9.414,5.596,10.875
			c0.004,0.002,0.01,0.005,0.014,0.006c0.009,0.002,0.017,0.003,0.025,0.006c0.111,0.036,0.226,0.067,0.338,0.104
			c53.942,17.24,83.699,74.948,66.461,128.89c-17.182,53.761-74.557,83.492-128.342,66.628c-0.288-0.128-0.584-0.245-0.893-0.343
			c-0.288-0.091-0.577-0.167-0.867-0.229c-4.289-0.899-8.648,1.575-10.012,5.839c-1.432,4.482,0.984,9.265,5.4,10.802
			c0.07,0.024,0.137,0.055,0.209,0.079c0.043,0.013,0.086,0.021,0.129,0.034c0.078,0.025,0.154,0.053,0.232,0.078
			c63.033,20.145,130.463-14.625,150.607-77.658C2049.914,730.848,2015.145,663.415,1952.112,643.271z"/>
	</g>
	<g>
		<path fill="none" stroke="#2F6DF6" stroke-width="11.5" stroke-miterlimit="10" d="M3051.443,1890.236
			c-626.873,626.919-1643.319,626.926-2270.231,0.06c-626.938-626.914-626.968-1643.348-0.085-2270.255
			c626.848-626.895,1643.301-626.944,2270.256-0.036C3678.278,246.876,3678.308,1263.335,3051.443,1890.236z"/>
		<path fill="#2F6DF6" d="M773.632,1897.689c-117.493-117.501-216.081-252.701-293.024-401.843c-0.412-0.837-1.12-2.278-2.039-4.037
			l-0.25-0.479c-0.148-0.311-0.303-0.633-0.461-0.96c-1.986-4.146-0.359-9.038,3.705-11.135c4.359-2.249,8.268-0.104,9.89,1.519
			c0.374,0.375,0.722,0.803,1.028,1.273c0.15,0.23,0.309,0.496,0.473,0.796c0.093,0.208,0.268,0.621,0.535,1.308l2.366,6.122
			l3.042,5.82c75.529,144.522,171.787,275.76,286.104,390.067c493.154,493.118,1241.239,609.544,1861.514,289.714
			c782.678-403.576,1091.229-1368.744,687.81-2151.522c-0.897-1.753-1.7-3.247-2.23-4.236l-0.284-0.531l-0.4-0.783
			c-1.84-4.108-0.151-8.935,3.857-11c4.328-2.231,8.211-0.102,9.82,1.508c0.568,0.568,1.055,1.238,1.486,2.044l0.23,0.433
			l0.797,1.512c0.459,0.87,0.923,1.737,1.392,2.604l0.301,0.56c50.177,97.332,90.518,199.64,119.894,304.066
			c28.626,101.758,47.205,206.792,55.223,312.182c7.871,103.504,5.644,208.408-6.623,311.798
			c-12.154,102.444-34.266,204.29-65.717,302.708c-31.455,98.42-72.507,194.212-122.015,284.715
			c-49.966,91.338-108.987,178.091-175.427,257.845c-67.646,81.205-143.691,155.996-226.025,222.292
			c-84.525,68.063-176.76,128.035-274.143,178.246c-156.607,80.751-323.44,135.061-495.864,161.426
			c-166.729,25.492-336.035,24.537-503.216-2.836c-165.332-27.07-324.847-79.33-474.113-155.326
			c-151.086-76.924-288.221-176.457-407.597-295.833L773.632,1897.689z"/>
	</g>
	<g>
		<path fill="none" stroke="#2F6DF6" stroke-width="10" stroke-miterlimit="10" d="M2574.531,2128.994
			c-758.045,362.988-1666.855,42.688-2029.84-715.349C181.699,655.557,501.977-253.25,1260.027-616.223
			c758.016-362.974,1666.844-42.71,2029.854,715.378C3652.848,857.192,3332.564,1766.021,2574.531,2128.994z"/>
		<path fill="#2F6DF6" d="M536.441,1417.455c-67.977-141.986-113.488-293.824-135.273-451.31c-0.102-0.858-0.291-2.438-0.563-4.339
			l-0.061-0.406c-0.035-0.339-0.072-0.685-0.113-1.041c-0.428-3.808,2.213-7.204,6.008-7.729c5.09-0.703,7.283,3.752,7.375,3.94
			c0.191,0.401,0.34,0.82,0.453,1.278c0.053,0.224,0.104,0.476,0.15,0.752c0.016,0.203,0.041,0.606,0.061,1.264l0.189,6.267
			l0.891,6.209c22.004,153.115,66.74,300.881,132.971,439.193c285.717,596.678,918.293,936.728,1574.08,846.173
			c827.656-114.291,1408.025-880.635,1293.738-1708.309c-0.238-1.726-0.469-3.216-0.619-4.202l-0.09-0.571l-0.102-0.764
			c-0.309-3.749,2.359-7.078,6.1-7.594c5.045-0.696,7.223,3.727,7.313,3.916c0.281,0.585,0.475,1.226,0.592,1.959l0.078,0.508
			l0.238,1.622c0.135,0.928,0.281,1.855,0.426,2.782l0.09,0.574c14.184,102.778,18.01,206.89,11.371,309.448
			c-6.469,99.943-22.945,199.646-48.971,296.337c-25.563,94.964-60.59,188-104.109,276.52
			c-43.125,87.71-94.955,171.751-154.055,249.789c-59.104,78.037-125.951,150.704-198.691,215.982
			c-73.41,65.88-153.471,124.81-237.953,175.15c-86.016,51.255-177.521,94.133-271.969,127.445
			c-96.965,34.198-198.268,58.737-301.094,72.937c-165.371,22.834-331.549,18.824-493.916-11.92
			c-157.008-29.73-307.988-83.901-448.752-161.008c-139.209-76.258-265.285-173.19-374.729-288.105
			C696.73,1693.887,605.537,1561.763,536.465,1417.5L536.441,1417.455z"/>
	</g>
	<g>
		<path fill="none" stroke="#2F6DF6" stroke-width="10" stroke-miterlimit="10" d="M1924.753,2185.311
			c-789.242,0.029-1429.088-639.807-1429.117-1429.043C495.62-33.016,1135.436-672.866,1924.68-672.881
			c789.213-0.03,1429.086,639.783,1429.117,1429.073C3353.811,1545.423,2713.982,2185.288,1924.753,2185.311z"/>
		<path fill="#2F6DF6" d="M486.203,756.148c0.004-147.909,23.049-295.063,68.486-437.37c0.287-0.841,0.76-2.226,1.295-3.942
			l0.113-0.365c0.109-0.305,0.221-0.618,0.332-0.942l-0.021,0.064c1.353-3.89,5.466-5.96,9.363-4.716
			c4.168,1.334,5.274,5.285,5.274,7.188c0,0.473-0.054,0.962-0.155,1.451c-0.051,0.238-0.119,0.51-0.205,0.801
			c-0.068,0.175-0.216,0.547-0.486,1.158l-2.363,5.346l-1.748,5.575c-43.432,138.52-65.451,281.725-65.445,425.639
			c0.023,620.843,397.643,1165.039,989.422,1354.164c746.787,238.658,1548.519-174.71,1787.326-921.424
			c0.537-1.66,0.969-3.09,1.253-4.041l0.149-0.491l0.24-0.748c1.416-3.722,5.531-5.736,9.369-4.511
			c5.174,1.654,5.232,6.917,5.232,7.141c0,0.698-0.107,1.407-0.334,2.162c-0.037,0.124-0.074,0.246-0.109,0.368l-0.495,1.592
			c-0.256,0.828-0.505,1.658-0.753,2.488l-0.167,0.553c-29.687,92.859-68.69,182.647-115.931,266.867
			c-46.036,82.075-100.459,159.888-161.754,231.275c-60.199,70.11-127.637,134.743-200.441,192.105
			c-72.139,56.836-150.168,107.028-231.922,149.183c-81.752,42.154-167.893,76.613-256.03,102.419
			c-88.952,26.045-180.715,43.5-272.74,51.883c-93.7,8.534-188.651,7.744-282.211-2.35
			c-96.054-10.364-191.867-30.675-284.775-60.368c-149.415-47.751-288.622-118.582-413.755-210.526
			c-121.002-88.905-226.977-196.082-314.984-318.552c-87.037-121.114-154.551-254.425-200.672-396.226
			c-46.685-143.529-70.357-292.511-70.357-442.799C486.203,756.181,486.203,756.167,486.203,756.148z"/>
	</g>
	<g>
		<path fill="none" stroke="#2F6DF6" stroke-width="9.5" stroke-miterlimit="10" d="M1251.978,1902.12
			C619.553,1530.985,407.748,717.392,778.881,84.971c371.164-632.45,1184.742-844.269,1817.162-473.122
			c632.4,371.121,844.24,1184.71,473.083,1817.173C2697.986,2061.429,1884.389,2273.254,1251.978,1902.12z"/>
		<path fill="#2F6DF6" d="M771.219,80.348c69.576-118.54,157.254-225.629,260.607-318.306c0.615-0.532,1.637-1.413,2.862-2.525
			l0.284-0.257c0.23-0.194,0.467-0.394,0.711-0.602l-0.049,0.042c2.988-2.545,7.371-2.263,9.975,0.642
			c2.785,3.107,1.785,6.889,0.869,8.454c-0.23,0.39-0.51,0.767-0.83,1.121c-0.158,0.174-0.348,0.364-0.557,0.563
			c-0.137,0.109-0.436,0.341-0.951,0.712l-4.397,3.165l-4.014,3.637C935.802-132.449,850.824-28.069,783.16,87.233
			C491.255,584.649,553.934,1207.609,939.127,1637.391c486.118,542.383,1322.854,588.186,1865.287,102.13
			c1.19-1.062,2.188-1.988,2.857-2.607l0.344-0.319l0.533-0.473c2.958-2.387,7.32-2.059,9.887,0.805
			c2.76,3.077,1.838,6.727,0.857,8.397c-0.342,0.582-0.777,1.116-1.333,1.633c-0.108,0.099-0.216,0.199-0.321,0.297l-1.057,0.966
			c-0.599,0.543-1.188,1.092-1.779,1.641l-0.387,0.359c-67.472,60.459-140.967,114.077-218.439,159.354
			c-75.498,44.123-155.709,80.885-238.408,109.266c-81.219,27.873-165.662,47.951-250.986,59.677
			c-84.545,11.619-170.684,15.143-256.027,10.475c-85.344-4.669-170.584-17.57-253.355-38.343
			c-83.533-20.965-165.283-50.136-242.975-86.701c-79.106-37.231-154.827-82.523-225.058-134.618
			c-72.104-53.483-139.335-114.823-199.827-182.318c-97.281-108.543-175.527-230.781-232.566-363.32
			c-55.152-128.159-89.672-263.894-102.6-403.435c-12.785-137.997-4.191-276.587,25.54-411.918
			c30.095-136.98,81.196-267.511,151.882-387.95C771.205,80.373,771.209,80.363,771.219,80.348z"/>
	</g>
	<g>
		<path fill="none" stroke="#2F6DF6" stroke-width="9" stroke-miterlimit="10" d="M921.275,1465.879
			C530.086,912.526,661.574,146.79,1214.922-244.398c553.387-391.199,1319.117-259.731,1710.299,293.63
			c391.176,553.333,259.718,1319.079-293.668,1710.293C2078.204,2150.698,1312.455,2019.226,921.275,1465.879z"/>
		<path fill="#2F6DF6" d="M1210.729-250.504c103.649-73.263,218.17-130.005,340.402-168.657c0.676-0.2,1.915-0.566,3.396-1.043
			l0.31-0.101c0.271-0.076,0.552-0.156,0.841-0.24c2.987-0.841,6.087,0.82,7.026,3.79c1.265,4.006-2.023,6.387-2.164,6.487
			c-0.294,0.207-0.619,0.389-0.97,0.541c-0.171,0.074-0.373,0.152-0.591,0.227c-0.166,0.042-0.487,0.117-0.999,0.219l-4.952,0.999
			l-4.809,1.547c-118.712,38.225-230.094,93.795-331.053,165.167C781.636,66.33,597.045,615.143,757.838,1124.086
			c202.913,642.262,890.536,999.752,1532.828,796.906c1.406-0.441,2.559-0.827,3.4-1.108l0.436-0.146l0.594-0.185
			c2.979-0.758,6.021,0.933,6.951,3.876c1.254,3.971-2.012,6.335-2.15,6.434c-0.455,0.321-0.948,0.563-1.556,0.764l-1.616,0.529
			c-0.703,0.229-1.407,0.465-2.111,0.702l-0.448,0.151c-79.782,25.198-162.026,42.345-244.453,50.961
			c-80.319,8.396-161.804,8.805-242.188,1.214c-78.947-7.455-157.645-22.696-233.903-45.299
			c-75.562-22.397-149.384-52.212-219.422-88.619c-70.036-36.408-136.854-79.702-198.595-128.68
			c-62.313-49.43-119.998-105.086-171.457-165.42c-52.396-61.433-98.874-128.36-138.145-198.921
			c-40.318-72.442-73.547-149.643-98.762-229.457c-40.551-128.355-59.873-260.99-57.43-394.221
			c2.362-128.83,24.971-256.181,67.195-378.516c41.758-120.984,101.73-234.33,178.251-336.892
			c77.452-103.811,170.122-194.193,275.437-268.639L1210.729-250.504z"/>
	</g>
	<g>
		<path fill="none" stroke="#2F6DF6" stroke-width="8.5" stroke-miterlimit="10" d="M825.48,480.659
			c156.297-606.05,774.342-970.645,1380.387-814.351c606.076,156.316,970.682,774.344,814.373,1380.392
			c-156.291,606.027-774.324,970.649-1380.41,814.345C1033.795,1704.74,669.18,1086.696,825.48,480.659z"/>
		<path fill="#2F6DF6" d="M2207.93-341.32c113.633,29.313,222.111,76.174,322.432,139.287c0.58,0.379,1.535,1.005,2.723,1.742
			l0.273,0.171c0.207,0.14,0.418,0.281,0.639,0.428c2.9,1.939,3.727,5.754,1.879,8.691c-1.98,3.146-5.463,3.215-7.027,2.812
			c-0.393-0.101-0.783-0.247-1.166-0.437c-0.188-0.093-0.396-0.208-0.621-0.342c-0.121-0.087-0.387-0.282-0.828-0.629l-3.615-2.855
			l-3.912-2.434c-97.727-60.761-203.291-106.016-313.76-134.506c-476.557-122.901-973,74.564-1235.336,491.365
			c-331.066,526.005-172.504,1223.278,353.465,1554.401c1.145,0.724,2.137,1.325,2.799,1.727l0.352,0.214l0.535,0.338
			c2.764,1.95,3.553,5.765,1.729,8.661c-1.963,3.117-5.314,3.222-6.982,2.791c-0.584-0.151-1.152-0.396-1.729-0.746
			c-0.107-0.065-0.213-0.128-0.314-0.191l-1.057-0.65c-0.582-0.359-1.168-0.715-1.756-1.069l-0.387-0.233
			c-65.453-41.205-126.701-88.96-182.039-141.937c-53.926-51.626-102.916-108.85-145.607-170.079
			c-41.93-60.134-78.217-124.743-107.854-192.034c-29.367-66.675-52.463-136.561-68.646-207.712
			c-16.182-71.151-25.584-144.15-27.943-216.967c-2.385-73.488,2.389-147.437,14.184-219.789
			c12.01-73.668,31.432-146.448,57.725-216.318c26.99-71.732,61.574-141.307,102.793-206.793
			c66.285-105.313,148.277-198.213,243.699-276.119c92.268-75.333,195.594-135.505,307.111-178.844
			c110.277-42.86,226.059-68.31,344.125-75.643c119.502-7.423,238.641,3.913,354.086,33.69
			C2207.91-341.326,2207.916-341.324,2207.93-341.32z"/>
	</g>
	<g>
		<path fill="none" stroke="#2F6DF6" stroke-width="8" stroke-miterlimit="10" d="M1177.311,35.606
			c402.143-411.845,1062.043-419.688,1473.885-17.549c411.855,402.171,419.715,1062.063,17.564,1473.9
			c-402.129,411.83-1062.033,419.702-1473.902,17.533C783.029,1107.348,775.17,447.44,1177.311,35.606z"/>
		<path fill="#2F6DF6" d="M2656.936,12.303c77.287,75.479,142.42,162.61,193.588,258.974c0.199,0.394,0.703,1.392,1.336,2.572
			l0.158,0.292c0.105,0.217,0.219,0.441,0.334,0.671c1.633,3.278,0.377,7.194-2.861,8.912c-3.02,1.604-6.141,0.593-7.895-1.119
			c-0.307-0.301-0.59-0.642-0.84-1.015c-0.127-0.19-0.26-0.409-0.396-0.651c-0.057-0.123-0.189-0.419-0.4-0.946l-1.559-3.889
			l-1.982-3.689c-50.09-93.133-113.52-177.491-188.525-250.732c-323.578-315.957-809.564-385.689-1209.311-173.521
			c-504.51,267.777-697.107,896.087-429.33,1400.61c0.451,0.851,0.914,1.696,1.379,2.541l0.211,0.384l0.264,0.499
			c1.508,3.214,0.188,7.175-2.953,8.842c-3.002,1.593-6.105,0.588-7.852-1.116c-0.457-0.447-0.863-0.99-1.203-1.612l-0.703-1.292
			c-0.293-0.539-0.592-1.082-0.895-1.625l-0.223-0.4c-33.352-62.848-60.365-129.039-80.271-196.707
			c-19.391-65.924-32.279-134.053-38.303-202.493c-5.916-67.218-5.279-135.424,1.896-202.719
			c7.107-66.682,20.693-133.051,40.377-197.268c19.686-64.213,45.627-126.794,77.111-186.004
			c31.771-59.757,69.465-116.601,112.035-168.955c43.344-53.307,92.197-102.509,145.199-146.236
			c54.418-44.895,113.908-84.587,176.816-117.976c101.17-53.697,209.189-90.287,321.064-108.755
			c108.178-17.857,218.234-18.545,327.111-2.044c107.674,16.318,211.764,49.055,309.371,97.3
			c98.801,48.834,188.707,112.471,267.225,189.145L2656.936,12.303z"/>
	</g>
	<g>
		<path fill="none" stroke="#2F6DF6" stroke-width="7.5" stroke-miterlimit="10" d="M1678.459-174.212
			c518.014-132.42,1045.308,180.196,1177.727,698.204c132.416,518.039-180.184,1045.335-698.199,1177.745
			c-517.992,132.415-1045.303-180.182-1177.73-698.224C847.849,485.509,1160.456-41.799,1678.459-174.212z"/>
		<path fill="#2F6DF6" d="M2864.945,521.836c24.879,97.363,34.467,198.102,28.492,299.415c-0.082,1.058-0.14,1.914-0.184,2.716
			l-0.014,0.302c-0.021,0.225-0.041,0.455-0.062,0.692c-0.356,4.208-3.927,7.312-8.13,7.063c-4.468-0.264-6.54-3.773-7.06-5.806
			c-0.124-0.486-0.198-0.994-0.221-1.514c-0.011-0.269-0.011-0.561,0.001-0.866c0.013-0.123,0.052-0.46,0.156-1.083l0.631-3.762
			l0.203-3.807c5.256-97.937-4.291-195.355-28.369-289.552c-103.882-406.37-455.188-696.056-874.181-720.845
			c-528.751-31.28-984.415,373.454-1015.755,902.221c-0.055,0.902-0.098,1.817-0.136,2.734l-0.017,0.368l-0.039,0.63
			c-0.426,4.066-4.074,7.168-8.166,6.926c-4.449-0.265-6.51-3.759-7.027-5.781c-0.184-0.719-0.258-1.49-0.22-2.294l0.064-1.346
			c0.028-0.573,0.054-1.156,0.078-1.739l0.017-0.423c3.914-66.095,14.482-131.755,31.409-195.146
			c16.491-61.765,39.222-122.129,67.552-179.42c27.824-56.269,61.336-110.149,99.602-160.146
			c37.916-49.54,80.825-95.697,127.535-137.189c46.711-41.492,97.604-78.659,151.269-110.47
			c54.159-32.102,111.615-59.025,170.771-80.021c60.233-21.379,122.855-36.831,186.128-45.925
			c64.958-9.337,131.43-12.086,197.567-8.173c106.365,6.293,209.895,29.492,307.713,68.954
			c94.585,38.157,182.36,90.865,260.882,156.662c77.651,65.067,144.507,141.443,198.714,227.007
			c54.867,86.608,95.505,180.674,120.785,279.583L2864.945,521.836z"/>
	</g>
	<g>
		<path fill="none" stroke="#2F6DF6" stroke-width="8.5" stroke-miterlimit="10" d="M2814.919,755.568
			c0.018,496.346-402.367,898.736-898.709,898.756c-496.37,0.009-898.766-402.362-898.773-898.709
			c-0.02-496.327,402.351-898.736,898.725-898.756C2412.499-143.149,2814.903,259.231,2814.919,755.568z"/>
		<path fill="#2F6DF6" d="M1916.136,1663.141c-93.333-0.003-186.182-14.544-275.975-43.221c-0.815-0.276-1.607-0.54-2.406-0.791
			l-0.28-0.086c-0.206-0.074-0.421-0.149-0.642-0.226c-3.913-1.362-5.992-5.525-4.729-9.479c1.343-4.202,5.2-5.325,7.268-5.325
			c0.496,0,1.001,0.054,1.502,0.158c0.256,0.055,0.543,0.129,0.836,0.217c0.104,0.038,0.414,0.155,0.974,0.403l3.214,1.421
			l3.352,1.052c86.834,27.226,176.603,41.027,266.814,41.024c389.182-0.015,730.314-249.266,848.87-620.229
			C2914.556,559.874,2655.38,57.243,2187.188-92.389c-0.786-0.252-1.573-0.492-2.36-0.729l-0.352-0.106l-0.539-0.174
			c-3.789-1.396-5.866-5.637-4.633-9.494c1.336-4.183,5.18-5.299,7.238-5.299c0.722,0,1.465,0.113,2.213,0.338l1.242,0.384
			c0.498,0.154,1.002,0.306,1.506,0.457l0.393,0.118c58.594,18.729,115.25,43.341,168.393,73.148
			c51.781,29.045,100.875,63.38,145.916,102.053c44.232,37.98,85.01,80.527,121.198,126.458
			c35.857,45.513,67.523,94.74,94.118,146.316c26.594,51.577,48.333,105.922,64.614,161.527
			c16.431,56.118,27.444,114.013,32.731,172.072c5.385,59.116,4.886,119.021-1.482,178.049
			c-6.537,60.6-19.352,121.047-38.084,179.661c-30.126,94.264-74.813,182.089-132.82,261.037
			c-56.092,76.34-123.709,143.2-200.977,198.724c-76.408,54.908-160.512,97.504-249.972,126.603
			c-90.554,29.453-184.546,44.387-279.362,44.387H1916.136z"/>
	</g>
	<g>
		<path fill="none" stroke="#2F6DF6" stroke-width="7.5" stroke-miterlimit="10" d="M2709.932,532.076
			c125.314,438.655-128.727,895.855-567.379,1021.167c-438.678,125.312-895.877-128.717-1021.184-567.374
			C996.062,547.23,1250.086,90.018,1688.766-35.303C2127.414-160.604,2584.627,93.429,2709.932,532.076z"/>
		<path fill="#2F6DF6" d="M2145.229,1562.854c-82.689,23.616-168.627,34.228-255.43,31.539c-0.742-0.037-1.494-0.07-2.251-0.089
			l-0.351-0.008c-0.168-0.013-0.39-0.026-0.619-0.038c-4.826-0.274-8.488-4.276-8.34-9.111c0.139-4.491,3.335-7.396,6.437-8.282
			c0.563-0.161,1.152-0.265,1.751-0.308c0.317-0.022,0.669-0.03,1.044-0.022c0.003,0.001,0.354,0.022,1.097,0.126l3.097,0.432
			l3.124,0.079c83.424,2.137,166.057-8.302,245.6-31.025c343.159-98.032,581.18-403.729,592.287-760.688
			c14.01-450.466-341.082-828.388-791.563-842.45c-0.767-0.025-1.532-0.039-2.299-0.051l-0.379-0.006l-0.601-0.021
			c-4.745-0.313-8.37-4.332-8.221-9.146c0.14-4.476,3.323-7.37,6.417-8.254c0.814-0.232,1.685-0.344,2.588-0.331l1.211,0.025
			c0.475,0.011,0.951,0.018,1.433,0.023l0.405,0.006c56.613,1.762,113.027,9.228,167.653,22.188
			c53.218,12.626,105.391,30.618,155.069,53.479c48.79,22.45,95.674,49.819,139.35,81.349
			c43.273,31.238,83.777,66.83,120.383,105.788c36.607,38.958,69.612,81.594,98.102,126.725
			c28.752,45.553,53.152,94.047,72.526,144.135c19.726,51,34.442,104.189,43.735,158.089
			c9.541,55.332,13.484,112.115,11.721,168.771c-2.834,91.114-20.195,180.213-51.604,264.82
			c-30.371,81.813-73.348,158.143-127.739,226.871c-53.788,67.967-117.505,126.974-189.384,175.382
			c-72.758,48.999-152.234,86.008-236.223,109.997L2145.229,1562.854z"/>
	</g>
	<g>
		<path fill="none" stroke="#2F6DF6" stroke-width="7" stroke-miterlimit="10" d="M2658.23,675.751
			c43.834,410.166-253.164,778.212-663.324,822.045c-410.186,43.827-778.236-253.158-822.062-663.324
			c-43.831-410.149,253.153-778.211,663.343-822.047C2246.346-31.398,2614.402,265.593,2658.23,675.751z"/>
		<path fill="#2F6DF6" d="M1995.895,1507.625c-77.397,8.265-155.677,4.433-232.675-11.395l-0.026-0.006
			c-0.662-0.149-1.325-0.294-1.992-0.428l-0.303-0.06c-0.184-0.044-0.377-0.091-0.578-0.137c-4.696-1.092-7.637-5.668-6.661-10.411
			c0.905-4.402,4.552-6.722,7.763-7.063c0.584-0.063,1.184-0.064,1.783-0.005c0.307,0.032,0.638,0.081,0.986,0.148
			c0.119,0.028,0.461,0.113,1.095,0.316l2.638,0.844l2.719,0.544c73.906,14.782,149.049,18.252,223.34,10.313
			c320.496-34.25,579.504-269.526,644.502-585.456c82.023-398.704-175.575-789.805-574.268-871.873
			c-0.688-0.143-1.372-0.275-2.063-0.404l-0.317-0.061l-0.552-0.115c-4.615-1.133-7.557-5.744-6.59-10.437
			c0.903-4.386,4.538-6.696,7.74-7.039c0.852-0.091,1.732-0.051,2.621,0.118c0.098,0.019,1.031,0.2,1.031,0.2
			c0.439,0.087,0.881,0.17,1.319,0.252l0.328,0.062c99.949,20.567,192.864,60.079,276.157,117.437
			c40.043,27.574,77.623,59.241,111.699,94.121c33.761,34.561,64.377,72.572,90.996,112.982
			c26.62,40.409,49.459,83.545,67.885,128.208c18.594,45.076,32.854,92.104,42.382,139.777
			c19.822,99.181,19.445,200.151-1.12,300.109c-16.63,80.828-45.904,157.609-87.01,228.209
			c-39.748,68.268-89.891,129.696-149.04,182.58c-58.493,52.296-124.456,95.063-196.053,127.114
			c-72.476,32.442-149.091,53.151-227.714,61.551C1995.908,1507.623,1995.904,1507.624,1995.895,1507.625z"/>
	</g>
	<g>
		<path fill="none" stroke="#2F6DF6" stroke-width="6.5" stroke-miterlimit="10" d="M2580.194,869.721
			c-63.078,367.027-411.771,613.426-778.796,550.348c-367.043-63.089-613.447-411.772-550.361-778.799
			c63.076-367.013,411.762-613.428,778.81-550.346C2396.865,154.009,2643.275,502.702,2580.194,869.721z"/>
		<path fill="#2F6DF6" d="M2032.023,1428.906c-6.072,1.051-12.241,2.031-18.341,2.917c-70.956,10.306-142.61,9.397-212.976-2.699
			c-69.285-11.912-136.352-34.554-199.328-67.292l-0.018-0.009c-0.546-0.297-1.078-0.583-1.619-0.859l-0.246-0.125
			c-0.158-0.089-0.322-0.182-0.493-0.275c-3.869-2.139-5.301-6.903-3.253-10.844c1.538-2.959,4.021-3.953,5.832-4.266
			c0.93-0.162,1.92-0.169,2.781-0.02c0.534,0.091,1.063,0.24,1.578,0.444c0.264,0.104,0.547,0.233,0.844,0.384
			c0.08,0.043,0.354,0.199,0.857,0.536l2.084,1.385l2.226,1.143c60.53,31.057,124.921,52.596,191.387,64.02
			c75.745,13.018,152.224,13.036,227.312,0.055c205.926-35.601,379.661-162.991,476.662-349.509
			c169.518-325.962,42.242-729.101-283.719-898.665c-0.543-0.283-1.097-0.563-1.652-0.84l-0.307-0.154l-0.413-0.217
			c-3.711-2.087-5.175-7.043-3.194-10.851c1.533-2.948,4.008-3.939,5.813-4.252c0.93-0.16,1.917-0.167,2.777-0.02
			c0.776,0.134,1.547,0.391,2.291,0.764l0.857,0.435c0.352,0.179,0.702,0.355,1.057,0.53l0.313,0.157
			c81.731,42.51,152.677,99.738,210.881,170.105c27.978,33.826,52.812,70.602,73.81,109.306
			c20.804,38.348,38.021,78.918,51.177,120.583c13.155,41.671,22.356,84.772,27.343,128.108c5.033,43.743,5.822,88.11,2.34,131.871
			c-7.245,91.038-32.477,178.652-74.994,260.407c-34.379,66.106-78.745,125.581-131.865,176.769
			c-51.363,49.496-110.072,90.487-174.493,121.835C2157.268,1398.018,2095.592,1417.916,2032.023,1428.906z"/>
	</g>
	<g>
		<path fill="none" stroke="#2F6DF6" stroke-width="6" stroke-miterlimit="10" d="M2172.615,1304.979
			c-303.379,140.421-663.162,8.3-803.583-295.075c-140.423-303.396-8.31-663.178,295.07-803.594
			c303.366-140.415,663.159-8.308,803.587,295.088C2608.102,804.772,2475.987,1164.563,2172.615,1304.979z"/>
		<path fill="#2F6DF6" d="M1824.455,1362.799c-9.644-1.476-19.383-3.209-28.953-5.151c-62.893-12.764-123.236-35.311-179.355-67.014
			c-55.498-31.352-105.611-70.935-148.955-117.653c-43.872-47.293-79.798-100.83-106.777-159.122
			c-26.564-57.407-44.047-118.642-51.963-182.013l-0.002-0.017c-0.059-0.544-0.119-1.085-0.189-1.625l-0.033-0.26
			c-0.016-0.164-0.033-0.334-0.049-0.511c-0.467-4.698,2.847-8.842,7.543-9.429c0.848-0.106,1.679-0.099,2.471,0.022
			c3.338,0.512,5.543,2.888,6.494,4.942c0.242,0.524,0.435,1.081,0.565,1.655c0.071,0.302,0.131,0.638,0.178,0.993
			c0.001,0.01,0.032,0.311,0.046,1.033l0.038,2.158l0.278,2.146c7.877,60.422,24.734,118.85,50.104,173.663
			c84.301,182.129,252.548,308.922,450.06,339.169c54.578,8.358,110.27,9.1,165.524,2.206
			c326.524-40.743,559.056-339.552,518.347-666.095c-0.065-0.541-0.141-1.088-0.219-1.634l-0.045-0.331l-0.051-0.398
			c-0.457-4.624,2.936-8.849,7.578-9.428c0.844-0.105,1.672-0.097,2.461,0.024c3.331,0.509,5.531,2.88,6.479,4.929
			c0.349,0.757,0.589,1.579,0.712,2.439l0.121,0.892c0.044,0.336,0.094,0.687,0.145,1.039l0.043,0.313
			c10.26,82.255,4.109,164.041-18.281,243.087c-10.764,38.003-25.32,75.178-43.262,110.493
			c-17.776,34.993-39.029,68.466-63.17,99.49c-24.144,31.027-51.367,59.854-80.916,85.68
			c-29.826,26.069-62.285,49.312-96.476,69.083c-71.129,41.133-148.907,67.192-231.173,77.457
			C1937.193,1372.092,1880.226,1371.341,1824.455,1362.799z"/>
	</g>
	<g>
		<path fill="none" stroke="#2F6DF6" stroke-width="5.5" stroke-miterlimit="10" d="M1754.572,1262.742
			c-281.039-94.953-431.887-399.773-336.938-680.809c94.963-281.05,399.777-431.906,680.814-336.948
			c281.027,94.948,431.891,399.765,336.934,680.819C2340.426,1206.836,2035.604,1357.696,1754.572,1262.742z"/>
		<path fill="#2F6DF6" d="M1924.129,1303.422c-42.713,0-85.561-5.074-127.352-15.081c-71.387-17.094-137.813-48.043-197.436-91.988
			c-48.207-35.534-89.904-78.172-123.934-126.729c-32.902-46.952-58.137-98.675-75.006-153.736
			c-16.678-54.447-24.805-110.917-24.154-167.844c0.654-57.561,10.279-114.279,28.609-168.589l0.07-0.21
			c18.088-53.521,44.42-103.951,78.266-149.882l0.033-0.044c0.283-0.369,0.559-0.734,0.83-1.105
			c0.002-0.005,0.076-0.108,0.152-0.214c0.104-0.13,0.213-0.269,0.326-0.413c1.811-2.33,4.525-3.668,7.449-3.668
			c2.029,0,3.984,0.649,5.65,1.876c3.867,2.851,4.482,7.431,3.377,10.705c-0.203,0.601-0.473,1.19-0.803,1.753
			c-0.17,0.284-0.365,0.585-0.586,0.886c-0.064,0.087-0.289,0.372-0.729,0.85l-1.236,1.349l-1.076,1.478
			c-31.846,43.706-56.691,91.617-73.852,142.402c-74.023,219.094,1.402,458.552,187.688,595.861
			c91.521,67.458,199.965,103.115,313.605,103.115c168.078,0,327.729-80.458,427.063-215.223c0.27-0.365,0.551-0.755,0.828-1.146
			l0.166-0.231l0.234-0.316c1.809-2.329,4.551-3.664,7.525-3.664c2.041,0,3.988,0.64,5.629,1.849
			c3.857,2.845,4.471,7.416,3.369,10.683c-0.297,0.874-0.727,1.712-1.285,2.494l0.023-0.031c-0.107,0.145-0.486,0.669-0.486,0.669
			c-0.174,0.241-0.355,0.495-0.535,0.75l-0.188,0.263c-43.918,59.583-98.215,108.809-161.35,146.264
			c-60.994,36.186-127.645,59.942-198.109,70.607C1979.451,1301.314,1951.6,1303.422,1924.129,1303.422z"/>
	</g>
	<g>
		<path fill="none" stroke="#2F6DF6" stroke-width="5" stroke-miterlimit="10" d="M1517.963,984.395
			c-126.209-224.459-46.547-508.742,177.91-634.95c224.474-126.209,508.754-46.555,634.959,177.906
			c126.203,224.452,46.553,508.74-177.922,634.955C1928.454,1288.507,1644.166,1208.852,1517.963,984.395z"/>
		<path fill="#2F6DF6" d="M1923.771,1230.477c-30.851,0-61.929-3.085-92.376-9.172c-60.21-12.037-116.865-35.351-168.39-69.295
			s-95.306-76.798-130.127-127.372c-36.043-52.342-60.869-110.73-73.788-173.543c-10.446-50.792-12.589-102.381-6.366-153.334
			c6.02-49.276,19.732-97.181,40.767-142.379c20.797-44.698,48.27-85.748,81.657-122.01c33.787-36.694,72.863-67.641,116.151-91.986
			l0.084-0.046c42.626-23.963,88.786-41.169,137.173-51.128l0.033-0.006c0.406-0.076,0.801-0.152,1.193-0.235l0.222-0.047
			c0.136-0.022,0.269-0.046,0.405-0.071c0.518-0.092,1.047-0.139,1.57-0.139c4.113,0,7.573,2.834,8.408,6.895
			c0.88,4.28-1.489,7.75-4.229,9.29c-0.507,0.285-1.049,0.521-1.609,0.696c-0.291,0.092-0.608,0.174-0.941,0.245
			c-0.133,0.025-0.456,0.078-1.002,0.13l-1.547,0.149l-1.521,0.321c-45.723,9.667-89.383,26.081-129.766,48.786
			c-174.211,97.954-264.186,295.385-223.893,491.284c43.572,211.841,232.094,365.595,448.264,365.595
			c30.836,0,61.909-3.175,92.352-9.437c0.385-0.079,0.788-0.167,1.188-0.256l0.26-0.057l0.314-0.065
			c0.51-0.092,1.025-0.139,1.539-0.139c4.088,0,7.654,2.907,8.477,6.912c0.877,4.271-1.488,7.734-4.223,9.272
			c-0.734,0.413-1.541,0.717-2.396,0.905l1.415,5.581l-1.422-5.58l-1.688,0.372
			C1988.155,1227.156,1955.779,1230.477,1923.771,1230.477z"/>
	</g>
	<g>
		<path fill="none" stroke="#2F6DF6" stroke-width="4.5" stroke-miterlimit="10" d="M1528.639,737.713
			c15.273-218.956,205.167-384.075,424.121-368.803c218.965,15.277,384.088,205.166,368.811,424.122
			c-15.273,218.948-205.161,384.076-424.129,368.801C1678.489,1146.557,1513.363,956.664,1528.639,737.713z"/>
		<path fill="#2F6DF6" d="M1779.029,1144.877c-0.211,0-0.423-0.007-0.637-0.022c-0.877-0.062-1.749-0.256-2.593-0.579l-1.401-0.538
			c-51.122-20.359-96.738-50.125-135.56-88.463c-37.501-37.036-67.132-80.482-88.065-129.131
			c-20.936-48.645-32.116-100.03-33.232-152.728c-1.152-54.544,8.589-108.129,28.954-159.265
			c16.468-41.35,39.269-79.355,67.771-112.964c27.561-32.498,59.995-60.382,96.401-82.876
			c36.003-22.243,75.069-38.72,116.117-48.974c32.28-8.063,65.429-12.151,98.522-12.151c9.355,0,18.837,0.33,28.183,0.981
			l0.065,0.007l0.049,0c41.875,2.931,83.08,12.369,122.465,28.051l0.039,0.016c0.314,0.131,0.606,0.252,0.902,0.369l0.228,0.088
			c0.117,0.051,0.231,0.102,0.349,0.152c4.506,1.928,6.612,7.006,4.8,11.561c-1.372,3.444-4.645,5.67-8.339,5.67
			c-0.209,0-0.423-0.008-0.637-0.022c-0.604-0.042-1.209-0.149-1.797-0.316c-0.312-0.088-0.633-0.198-0.96-0.326
			c-0.071-0.029-0.36-0.149-0.915-0.442l-1.098-0.579l-1.15-0.453c-37.059-14.522-75.801-23.277-115.156-26.022
			c-9.153-0.639-18.434-0.962-27.579-0.962c-160.237,0-302.185,96.442-361.63,245.698c-79.52,199.669,18.223,426.81,217.87,506.369
			l0,0c0.331,0.133,0.661,0.26,0.993,0.385l0.234,0.089l0.359,0.145c4.399,1.88,6.563,7.08,4.771,11.573
			C1785.984,1142.656,1782.717,1144.877,1779.029,1144.877z"/>
	</g>
	<g>
		<circle fill="none" stroke="#2F6DF6" stroke-miterlimit="10" cx="1916.496" cy="756.488" r="61.982"/>
		<path fill="#2F6DF6" d="M1886.294,818.55c-6.396-3.114-12.269-7.207-17.458-12.164l-0.063-0.061
			c-0.024-0.021-0.05-0.043-0.073-0.065c-0.074-0.072-0.119-0.12-0.162-0.167c-2.688-2.736-2.721-7.015-0.084-9.776
			c2.119-2.218,5.395-2.807,8.15-1.464c0.432,0.21,0.844,0.467,1.226,0.762c0.187,0.146,0.368,0.301,0.545,0.469
			c0.153,0.146,0.296,0.297,0.442,0.464c4.063,3.822,8.64,6.985,13.605,9.404c21.583,10.508,47.23,5.896,63.824-11.475
			c20.94-21.923,20.141-56.796-1.783-77.738l-0.029-0.027l-0.222-0.159l-0.104-0.156c-2.6-2.69-2.633-6.996-0.027-9.726
			c2.118-2.216,5.393-2.804,8.146-1.463c0.607,0.296,1.168,0.678,1.668,1.136c0.051,0.044,0.101,0.089,0.147,0.136l0.117,0.11
			c13.327,12.729,20.9,29.889,21.322,48.316c0.423,18.427-6.355,35.915-19.085,49.243c-10.309,10.792-23.51,17.826-38.176,20.344
			c-14.377,2.467-28.875,0.413-41.926-5.941C1886.295,818.551,1886.295,818.551,1886.294,818.55z"/>
	</g>
	<g>
		<path fill="none" stroke="#2F6DF6" stroke-width="4" stroke-miterlimit="10" d="M1660.883,558.004
			c114.07-145.493,324.498-170.961,469.988-56.893c145.496,114.077,170.969,324.5,56.895,469.991
			c-114.063,145.486-324.49,170.963-469.99,56.888C1572.289,913.919,1546.816,703.492,1660.883,558.004z"/>
		<path fill="#2F6DF6" d="M1648.295,962.237c-1.99,0-3.877-0.654-5.455-1.892c-0.682-0.533-1.285-1.172-1.795-1.897
			c-0.041-0.062-0.721-1.032-0.721-1.032c-26.068-38.391-43.84-80.732-52.811-125.836c-8.668-43.574-8.814-87.9-0.432-131.748
			c8.383-43.844,24.867-84.991,48.994-122.298c24.979-38.614,57.104-71.407,95.484-97.468
			c31.035-21.073,64.914-36.822,100.691-46.808c29.91-8.347,60.855-12.579,91.977-12.579c4.803,0,9.672,0.102,14.477,0.304
			c35.637,1.492,70.689,8.458,104.186,20.702c33.883,12.388,65.4,29.905,93.68,52.067l0.064,0.053
			c27.861,21.846,52.17,47.919,72.258,77.495l0.027,0.045c0.15,0.228,0.301,0.455,0.453,0.679l0.115,0.162
			c0.057,0.093,0.113,0.187,0.174,0.278c2.615,4.072,1.533,9.394-2.471,12.112c-1.484,1.009-3.211,1.542-4.988,1.542
			c-1.996,0-3.885-0.655-5.465-1.895c-0.473-0.37-0.91-0.792-1.297-1.255c-0.203-0.241-0.406-0.508-0.602-0.792
			c-0.123-0.182-0.305-0.497-0.496-0.853l-0.455-0.855l-0.549-0.797c-18.848-27.432-41.568-51.662-67.531-72.018
			c-57.283-44.912-128.652-69.647-200.959-69.647c-65.391,0-128.777,19.571-183.305,56.597
			C1592.832,595.582,1554,798.725,1654.982,947.441c0.127,0.192,0.299,0.436,0.469,0.678l0.125,0.178l0.182,0.269
			c2.586,3.995,1.477,9.445-2.479,12.132C1651.797,961.705,1650.072,962.237,1648.295,962.237z"/>
	</g>
	<g>
		<path fill="none" stroke="#2F6DF6" stroke-width="3.5" stroke-miterlimit="10" d="M1895.401,493.813
			c149.456-11.452,279.9,100.433,291.353,249.886c11.449,149.464-100.43,279.909-249.887,291.357
			c-149.45,11.452-279.899-100.426-291.352-249.89C1634.066,635.712,1745.948,505.264,1895.401,493.813z"/>
		<path fill="#2F6DF6" d="M2195.936,743.02c2.205,28.797-0.09,57.788-6.82,86.164l-0.016,0.064
			c-0.051,0.193-0.101,0.388-0.146,0.582c0,0-0.038,0.171-0.044,0.203c-0.027,0.093-0.051,0.185-0.076,0.277
			c-1.234,4.669-5.885,7.458-10.584,6.344c-3.764-0.893-6.492-4.082-6.787-7.934c-0.045-0.6-0.029-1.207,0.05-1.806
			c0.04-0.309,0.099-0.629,0.173-0.949c0.059-0.242,0.155-0.563,0.292-0.945l0.229-0.652l0.156-0.673
			c6.046-26.128,8.081-52.812,6.051-79.311c-8.761-114.337-89.666-208.952-201.32-235.436
			c-140.914-33.423-282.752,54.03-316.179,194.949c-0.044,0.181-0.091,0.398-0.14,0.618l-0.041,0.183l-0.066,0.28
			c-1.203,4.644-5.925,7.504-10.611,6.392c-3.76-0.891-6.483-4.077-6.778-7.925c-0.065-0.863-0.003-1.738,0.19-2.603
			c0.006-0.032,0.225-1.013,0.225-1.013c8.738-36.836,24.416-70.839,46.607-101.081c21.438-29.213,48.021-53.716,79.014-72.823
			c30.989-19.108,64.82-31.856,100.549-37.889c36.986-6.245,74.407-4.983,111.226,3.75c58.983,13.99,110.726,45.825,149.635,92.062
			c18.729,22.26,33.847,47.179,44.929,74.071c11.219,27.224,18.044,55.853,20.283,85.09
			C2195.936,743.013,2195.936,743.015,2195.936,743.02z"/>
	</g>
	<g>
		<path fill="none" stroke="#2F6DF6" stroke-width="3" stroke-miterlimit="10" d="M2060.373,600.748
			c90.353,80.008,98.732,218.121,18.725,308.472c-80.016,90.355-218.125,98.739-308.476,18.728
			c-90.349-80.006-98.736-218.118-18.72-308.476C1831.91,529.122,1970.023,520.738,2060.373,600.748z"/>
		<path fill="#2F6DF6" d="M2085.908,915.275c-15.535,17.541-33.719,32.567-54.051,44.662l-0.501,0.293
			c-0.04,0.024-0.08,0.049-0.12,0.075c-0.078,0.041-0.155,0.083-0.232,0.125c-4.193,2.354-9.419,0.958-11.884-3.182
			c-1.972-3.316-1.581-7.483,0.975-10.368c0.397-0.45,0.845-0.859,1.331-1.22c0.246-0.184,0.513-0.361,0.787-0.527
			c0.227-0.134,0.52-0.285,0.873-0.447l0.42-0.192l0.393-0.238c18.35-11.052,34.786-24.714,48.859-40.605
			c60.717-68.564,70.025-167.552,23.169-246.317c-59.14-99.405-188.126-132.165-287.536-73.025
			c-0.123,0.073-0.564,0.345-0.564,0.345l-0.16,0.096c-4.17,2.415-9.541,1.025-12.012-3.126c-1.97-3.312-1.577-7.475,0.977-10.357
			c0.574-0.649,1.247-1.212,1.999-1.673c0.033-0.02,0.733-0.449,0.733-0.449c26.386-15.698,55.048-25.755,85.193-29.896
			c29.121-4,58.402-2.343,87.027,4.928s55.148,19.785,78.83,37.197c24.516,18.024,44.903,40.539,60.597,66.919
			c25.142,42.261,35.802,90.377,30.825,139.146c-2.396,23.477-8.383,46.35-17.795,67.984c-9.527,21.903-22.356,42.04-38.127,59.848
			C2085.912,915.271,2085.91,915.273,2085.908,915.275z"/>
	</g>
	<g>
		<path fill="none" stroke="#2F6DF6" stroke-width="2" stroke-miterlimit="10" d="M2079.367,767.917
			c-4.729,90.253-81.729,159.585-171.983,154.857c-90.256-4.729-159.59-81.73-154.859-171.982
			c4.728-90.249,81.729-159.586,171.985-154.857C2014.762,600.664,2084.097,677.666,2079.367,767.917z"/>
		<path fill="#2F6DF6" d="M1949.693,927.994c-17.361,3.478-35.168,4.232-52.932,2.243l-0.366-0.044
			c-0.067-0.007-0.128-0.013-0.184-0.017c-0.077-0.014-0.149-0.025-0.22-0.035c-4.399-0.607-7.464-4.543-6.969-8.961
			c0.396-3.536,3.002-6.381,6.49-7.08c0.545-0.109,1.102-0.162,1.66-0.158c0.279,0.003,0.568,0.021,0.858,0.052
			c0.257,0.029,0.554,0.08,0.894,0.156l0.252,0.056l0.256,0.027c15.795,1.681,31.629,0.966,47.062-2.127
			c66.591-13.347,116.413-67.693,123.979-135.234c9.549-85.241-52.032-162.357-137.275-171.907
			c-0.099-0.012-0.602-0.062-0.602-0.062c-4.437-0.521-7.637-4.549-7.14-8.993c0.396-3.532,3.002-6.375,6.485-7.073
			c0.787-0.157,1.595-0.196,2.402-0.117c0.029,0.003,0.67,0.067,0.67,0.067c45.598,5.107,86.48,27.668,115.115,63.528
			c28.634,35.859,41.592,80.72,36.482,126.319c-4.137,36.926-19.667,70.771-44.914,97.875c-12.152,13.047-26.191,24.093-41.73,32.83
			c-15.732,8.846-32.645,15.123-50.27,18.655C1949.699,927.993,1949.693,927.993,1949.693,927.994z"/>
	</g>
	<g>
		<path fill="none" stroke="#2F6DF6" stroke-width="12" stroke-miterlimit="10" d="M3616.15,754.347
			c0.035,939.216-761.383,1700.643-1700.588,1700.678C976.301,2455.042,214.865,1693.653,214.85,754.438
			C214.813-184.743,976.203-946.205,1915.473-946.241C2854.67-946.259,3616.123-184.851,3616.15,754.347z"/>
		<path fill="#2F6DF6" d="M1915.424,2466.241c-176.035-0.006-351.166-27.432-520.527-81.517c-0.934-0.318-2.545-0.867-4.551-1.496
			l-0.547-0.171c-0.344-0.123-0.701-0.248-1.064-0.375c-4.594-1.617-7.041-6.5-5.566-11.116c1.582-4.951,6.115-6.271,8.545-6.271
			c0.563,0,1.143,0.062,1.725,0.184c0.285,0.06,0.604,0.14,0.951,0.242c0.225,0.087,0.666,0.264,1.381,0.58l6.359,2.813l6.637,2.081
			c164.842,51.684,335.26,77.887,506.521,77.88c738.818-0.028,1386.424-473.204,1611.486-1177.438
			C3810.76,383.013,3318.889-571.132,2430.307-855.311c-1.986-0.64-3.707-1.158-4.846-1.502l-0.611-0.185l-0.885-0.287
			c-4.457-1.699-6.807-6.58-5.352-11.13c1.572-4.914,6.074-6.227,8.488-6.227c0.85,0,1.715,0.138,2.643,0.419l0.496,0.151
			l1.73,0.536c0.994,0.307,1.994,0.609,2.992,0.907l0.646,0.193c110.498,35.324,217.357,81.744,317.588,137.964
			c97.672,54.784,190.27,119.547,275.223,192.489c83.432,71.638,160.346,151.889,228.607,238.529
			c67.637,85.845,127.365,178.702,177.529,275.988c50.166,97.29,91.17,199.799,121.881,304.683
			c30.992,105.851,51.764,215.05,61.738,324.563c10.158,111.504,9.217,224.496-2.795,335.835
			c-12.334,114.304-36.502,228.322-71.836,338.886c-56.824,177.804-141.115,343.463-250.531,492.375
			c-105.801,143.994-233.342,270.106-379.082,374.835c-144.127,103.573-302.77,183.918-471.514,238.804
			c-170.803,55.555-348.092,83.724-526.938,83.724H1915.424z"/>
	</g>
	<g>
		<path fill="none" stroke="#2F6DF6" stroke-width="12.5" stroke-miterlimit="10" d="M462.764-274.48
			c574.246-807.01,1694.037-995.678,2501.039-421.436c807.038,574.29,995.729,1694.061,421.467,2501.062
			c-574.225,806.98-1694.014,995.694-2501.07,421.415C77.214,1652.309-111.48,532.509,462.764-274.48z"/>
		<path fill="#2F6DF6" d="M2970.781-705.468c151.247,107.64,284.954,238.287,397.4,388.313c0.609,0.844,1.658,2.301,2.997,4.068
			l0.364,0.481c0.221,0.316,0.451,0.642,0.686,0.973c2.959,4.199,2.074,9.889-2.016,12.954c-4.385,3.286-9.088,1.65-11.176,0.163
			c-0.482-0.344-0.945-0.751-1.371-1.212c-0.207-0.226-0.43-0.49-0.666-0.79c-0.143-0.211-0.412-0.634-0.834-1.342l-3.742-6.305
			l-4.432-5.847c-110.033-145.198-240.438-271.912-387.592-376.624c-634.82-451.72-1480.574-441.135-2104.552,26.34
			C68.5-74.416-92.279,1046.151,497.445,1833.64c1.314,1.764,2.477,3.262,3.245,4.252l0.409,0.532l0.588,0.789
			c2.789,4.184,1.826,9.815-2.208,12.835c-4.354,3.262-9.025,1.636-11.099,0.161c-0.73-0.521-1.391-1.168-2.017-1.976l-0.334-0.435
			l-1.157-1.518c-0.668-0.873-1.341-1.741-2.018-2.61l-0.436-0.56c-73.344-97.915-136.775-203.138-188.52-312.729
			c-50.424-106.791-90.388-219.056-118.781-333.672c-27.883-112.567-44.899-228.55-50.576-344.729
			c-5.624-115.115-0.168-231.42,16.215-345.684c16.385-114.265,43.832-227.415,81.574-336.31
			c38.094-109.898,87.014-216.425,145.404-316.62c59.452-102.017,129.348-198.526,207.748-286.845
			c80.486-90.671,170.968-173.86,268.934-247.252c157.539-118.027,331.256-208.825,516.316-269.874
			c178.949-59.03,365.646-89.403,554.904-90.277c187.166-0.864,372.6,27.102,551.146,83.121
			c180.725,56.702,350.278,140.901,503.947,250.257L2970.781-705.468z"/>
	</g>
	<g>
		<path fill="none" stroke="#2F6DF6" stroke-width="13" stroke-miterlimit="10" d="M65.531,1156.867
			C-150.391,130.034,507.045-877.447,1533.869-1093.368C2560.756-1309.282,3568.24-651.877,3784.143,374.96
			c215.916,1026.794-441.484,2034.309-1468.376,2250.246C1288.949,2841.104,281.439,2183.683,65.531,1156.867z"/>
		<path fill="#2F6DF6" d="M1531.443-1105.663c192.459-40.456,390.232-50.727,587.825-30.524c1.097,0.134,2.983,0.363,5.321,0.59
			l0.637,0.062c0.403,0.055,0.824,0.109,1.25,0.165c5.396,0.713,9.19,5.49,8.642,10.874c-0.593,5.776-5.245,8.263-7.903,8.822
			c-0.615,0.128-1.262,0.194-1.926,0.194c-0.326,0.001-0.693-0.014-1.096-0.046c-0.266-0.042-0.789-0.135-1.643-0.315l-7.598-1.615
			l-7.737-0.75c-192.101-18.615-384.44-8.091-571.679,31.281C727.797-917.073,128.533-250.895,44.345,570.773
			c-106.228,1036.806,650.851,1966.91,1687.657,2073.355c2.318,0.244,4.317,0.416,5.641,0.529l0.711,0.062l1.034,0.11
			c5.262,0.832,8.953,5.628,8.409,10.938c-0.59,5.735-5.21,8.204-7.85,8.759c-0.93,0.195-1.906,0.243-2.984,0.149l-0.579-0.052
			l-2.015-0.188c-1.158-0.106-2.318-0.208-3.48-0.304l-0.749-0.063c-128.929-13.221-256.426-39.409-378.931-77.837
			c-119.377-37.444-235.5-86.965-345.146-147.186c-107.683-59.144-210.218-129.205-304.763-208.236
			c-93.679-78.307-180.322-166.099-257.531-260.93c-77.207-94.837-145.6-197.484-203.283-305.093
			c-58.214-108.603-106.024-223.216-142.102-340.653c-36.734-119.573-61.678-243.321-74.137-367.81
			c-12.791-127.803-12.574-258.015,0.643-387.015c21.256-207.454,75.334-407.943,160.729-595.899
			c82.574-181.747,193.028-348.941,328.292-496.94c133.768-146.364,288.741-270.67,460.614-369.463
			c173.969-99.999,361.322-171.546,556.855-212.655L1531.443-1105.663z"/>
	</g>
	<g>
		<path fill="none" stroke="#2F6DF6" stroke-width="13" stroke-miterlimit="10" d="M405.062,2056.58
			C-313.574,1216.613-215.172-46.939,624.787-765.569c840.02-718.653,2103.561-620.281,2822.179,219.697
			c718.608,839.932,620.257,2103.499-219.757,2822.175C2387.246,2994.91,1123.676,2896.535,405.062,2056.58z"/>
		<path fill="#2F6DF6" d="M616.33-775.706c157.442-134.681,335.054-244.146,527.904-325.355c1.08-0.431,2.94-1.173,5.215-2.145
			l0.621-0.265c0.4-0.153,0.815-0.314,1.238-0.479c5.346-2.068,11.27,0.429,13.483,5.684c2.372,5.638-0.671,10.289-2.846,12.148
			c-0.504,0.43-1.067,0.817-1.682,1.153c-0.3,0.166-0.647,0.338-1.035,0.511c-0.268,0.096-0.798,0.274-1.679,0.538l-7.838,2.35
			l-7.53,3.218c-186.971,79.9-359.433,186.854-512.596,317.893C-31.158-195.155-248.316,723.523,89.213,1525.556
			c425.91,1012.028,1595.844,1489.036,2607.981,1063.328c2.267-0.946,4.201-1.799,5.483-2.363l0.688-0.303l1.012-0.42
			c5.283-1.89,11.119,0.677,13.301,5.86c2.354,5.598-0.67,10.217-2.827,12.063c-0.761,0.649-1.64,1.188-2.684,1.646l-0.562,0.246
			l-1.956,0.845c-1.126,0.486-2.249,0.979-3.372,1.477l-0.725,0.32c-125.852,52.953-256.938,93.195-389.595,119.602
			c-129.27,25.734-261.636,38.661-393.423,38.422c-129.43-0.233-259.619-13.161-386.957-38.418
			c-126.174-25.027-250.635-62.375-369.936-111.004c-119.304-48.628-234.407-108.936-342.119-179.242
			c-108.706-70.955-210.834-152.725-303.545-243.037c-94.396-91.953-180.006-193.727-254.449-302.495
			c-76.427-111.664-142.047-232.13-195.039-358.046c-85.219-202.497-136.58-415.147-152.658-632.043
			c-15.548-209.731,2.03-420.104,52.244-625.276c49.656-202.904,130.066-396.139,238.99-574.334
			c110.252-180.369,247.258-341.207,407.212-478.045L616.33-775.706z"/>
	</g>
</g>
</svg>
